<svg version="1.1" xmlns="http://www.w3.org/2000/svg" viewBox="0 0 1033.1774231881807 686.3956553141275" width="3099.532269564542" height="2059.1869659423824">
  <!-- svg-source:excalidraw -->
  
  <defs>
    <style class="style-fonts">
      @font-face {
        font-family: "Virgil";
        src: url("https://excalidraw.com/Virgil.woff2");
      }
      @font-face {
        font-family: "Cascadia";
        src: url("https://excalidraw.com/Cascadia.woff2");
      }
    </style>
  </defs>
  <rect x="0" y="0" width="1033.1774231881807" height="686.3956553141275" fill="#ffffff"></rect><g stroke-linecap="round" transform="translate(43.54313659667969 470.013468424479) rotate(0 40 102.5)"><path d="M0 0 C0 0, 0 0, 0 0 M0 0 C0 0, 0 0, 0 0 M-2.06 13.18 C3.38 6.13, 7.47 7.16, 9.5 -1.93 M-0.16 12.74 C2.49 9.34, 6.21 6.37, 10.27 -0.3 M-0.46 26.1 C8.81 18.3, 18.85 2.31, 23.7 1.95 M0.73 22.66 C7.84 16.53, 17.88 5.2, 21.9 0.44 M-1.93 38.91 C15.02 22.68, 19.1 9.72, 35.47 -0.73 M-1.79 36.84 C7.82 26.22, 17.74 16.16, 33.36 0.2 M-4.09 49.43 C11.72 35.53, 30.32 15.67, 39.05 -0.76 M0.02 48.5 C15.52 31.09, 32.66 13.03, 42.67 1.57 M-1.71 58.22 C12.21 50.79, 22.73 33.1, 49.92 -2.34 M-1.84 61.72 C21.72 37.52, 42.7 10.81, 52.82 0.28 M-0.99 76.27 C17.7 51.04, 39.81 28.88, 60.07 -1.12 M-1.29 72.4 C20.61 51.98, 38.53 30.21, 64.86 -1.05 M-0.58 84.08 C24.66 54.83, 50.94 22.03, 77.64 2.15 M-1.69 86.85 C22.4 57.45, 48.7 28.79, 73.14 -1.08 M-0.66 98.8 C27.77 72.46, 46.05 45.88, 79.95 3.02 M-1.29 98.31 C28.71 63.41, 59.28 28.43, 83.8 1.05 M3.37 113.6 C19.41 90.71, 39.92 70.67, 85.1 11.69 M-1.41 109.81 C17.05 90.44, 39.1 65.56, 82.02 13.55 M0.56 120.58 C20.39 103.63, 37.26 79.14, 83.35 25.32 M0.77 122.43 C29.79 87.04, 58.01 53.78, 80.92 27.7 M2.62 130.1 C18.23 110.25, 42.91 87.88, 79.73 38.51 M0.09 134.18 C29.79 98.67, 60.16 64.67, 83.74 37.77 M2.95 149.91 C19.77 123.8, 45.88 98.3, 81.59 48.64 M1.88 144.5 C28.14 116.59, 54.98 86.28, 80.96 49.8 M3.56 160.31 C27.38 125.51, 61.29 92.29, 81.5 67.02 M-1.47 156.87 C18.15 136.95, 39.05 116.62, 80.76 62.16 M1.34 169.49 C18.88 145.22, 37.05 123.25, 79.55 74.18 M-0.74 171.57 C29.77 140.29, 56.74 108.02, 80.88 76.37 M3.76 184.42 C27.61 151.23, 58.27 112.67, 79.01 90.86 M-0.56 184.03 C34.38 147.81, 63.95 115.89, 83.85 89.41 M-0.91 194.23 C30.8 160.52, 55.83 129.9, 84.61 101.3 M-1.68 193.67 C17.26 175.56, 35.83 155.73, 84.81 100.5 M0.06 208.55 C21.65 177.91, 42.54 158.21, 85.47 112.39 M0.27 205.62 C16.84 184.16, 35.98 163.32, 82.05 111.72 M11.33 202.88 C43.04 175.32, 71.1 138.73, 82.11 120.81 M9.85 205.56 C31.22 183.52, 47.13 164.25, 81.5 126.53 M21.55 204.61 C36.47 192.56, 42.13 175.97, 80.66 136.37 M21.39 205.21 C42.64 185.29, 61.66 162.59, 82.6 138.6 M31.9 206.23 C52.23 181.26, 69.76 160.47, 84.57 144.94 M31.08 204.89 C50.75 184.79, 69.89 167.33, 83.51 150.1 M41.83 207 C59.08 191.16, 70.75 174.55, 80.87 163.77 M44.32 206.71 C58.09 190.48, 72.25 173.82, 82.94 160.56 M56.71 207.32 C61.3 201.55, 68.27 189.98, 83.11 176.64 M54.91 206.36 C57.73 197.52, 64.39 193.18, 84.68 173.38 M67.44 207.14 C72.58 196.03, 77.33 191.04, 82.35 185 M66.2 206.92 C69.91 201.26, 72.96 195.4, 84.1 184.43 M74.65 207.25 C75.3 204.69, 78.72 202.62, 84.13 196.35 M74.79 206.35 C77.82 202.45, 79.14 200.43, 83.38 197.2" stroke="#fd7e14" stroke-width="1" fill="none"></path><path d="M1.86 2.25 C18.27 -4.42, 34.29 2.62, 80.23 -0.57 M-0.97 -0.63 C18.62 2.52, 39.77 0.4, 81.39 -1.84 M82.24 2.22 C82.35 61.73, 80.32 121.99, 81.62 207.54 M81.05 0.93 C82.29 43.71, 84.03 87.99, 79.35 205.97 M77.58 204.45 C55.57 200.68, 26.42 202.25, -1.28 205.07 M81.57 204.7 C49.49 205.55, 20.04 204.26, -1.84 203.48 M-2.12 208.5 C0.84 157.33, -1.46 106.04, 2.95 1.45 M1.35 206.09 C-4.86 142.94, -1.93 79.12, -0.42 0.68" stroke="#e67700" stroke-width="2" fill="none"></path></g><g transform="translate(52.04313659667969 547.513468424479) rotate(0 31.5 25)"><text x="31.5" y="18" font-family="Virgil, Segoe UI Emoji" font-size="20px" fill="#000000" text-anchor="middle" style="white-space: pre;" direction="ltr">Review</text><text x="31.5" y="43" font-family="Virgil, Segoe UI Emoji" font-size="20px" fill="#000000" text-anchor="middle" style="white-space: pre;" direction="ltr">s</text></g><g stroke-linecap="round"><g transform="translate(248.77581290813407 534.9771601019377) rotate(0 215.9610350521735 2.435477546097104)"><path d="M0.57 -1.03 C72.28 0.14, 358.37 4.84, 430.32 5.9 M-0.6 1.05 C71.49 1.95, 360.41 3.12, 432.52 4.05" stroke="#000000" stroke-width="1" fill="none"></path></g><g transform="translate(248.77581290813407 534.9771601019377) rotate(0 215.9610350521735 2.435477546097104)"><path d="M402.54 12.45 C413.73 12.58, 421.29 8.26, 432.25 2.8 M403.67 15.07 C415.42 11, 423.89 6.72, 431.73 4.75" stroke="#000000" stroke-width="1" fill="none"></path></g><g transform="translate(248.77581290813407 534.9771601019377) rotate(0 215.9610350521735 2.435477546097104)"><path d="M402.7 -8.07 C413.65 -1.77, 421.17 0.09, 432.25 2.8 M403.83 -5.45 C415.57 -2.06, 423.98 1.11, 431.73 4.75" stroke="#000000" stroke-width="1" fill="none"></path></g></g><mask></mask><g stroke-linecap="round" transform="translate(164.0494842529297 470.0460306803384) rotate(0 40 102.5)"><path d="M0 0 C0 0, 0 0, 0 0 M0 0 C0 0, 0 0, 0 0 M1.36 13.05 C2.62 8.63, 4.95 6.16, 12.53 -2.54 M-1.22 12.06 C4.16 7.87, 4.27 6.32, 9.6 1.33 M-1.18 22.38 C7.2 13.29, 12.33 11.73, 20.56 -3.4 M-1.27 22.77 C4.85 19.05, 12.12 10.29, 20.72 1.24 M0.97 34.25 C10.61 21.13, 19.44 13.67, 33.7 3.1 M0.75 36.21 C7.47 26.06, 18.21 18.1, 33.48 1.27 M-3.75 52.64 C18.45 30.08, 31.03 15.23, 40.4 1.72 M1.59 47.03 C17.96 28.88, 31.29 10.49, 42.54 -0.37 M1.93 61.22 C11.15 45.15, 26.64 33.89, 49.92 -0.64 M-0.27 59.8 C20.55 36.85, 41.18 13.7, 54.1 0.93 M-3.76 69.44 C18.75 53.37, 36.05 31.24, 65.9 -2.63 M0.17 74.64 C23.01 47.72, 45.86 20.8, 62.15 -0.9 M2.81 86.16 C24.57 61.63, 52.81 27.44, 71.52 0.4 M2.15 86.47 C28.34 51.15, 60.32 16.44, 74.91 -2.04 M3.09 97.32 C31.32 66.68, 60.89 26.31, 79.94 0.24 M1 98.34 C33.71 63.5, 64.55 27.5, 80.58 0.81 M0.2 107.72 C27.48 80.23, 51.2 49, 79.52 16.79 M-0.86 108.99 C20.3 85.91, 42.82 58.48, 81.86 14.95 M0.02 122.51 C26.09 97.83, 41.94 69.47, 86.59 28.75 M0.6 121.96 C20.01 101.54, 37.29 81.57, 84.08 28.19 M2.99 132.97 C21.94 110.47, 41.09 86.95, 85.65 38.68 M2.11 133.06 C21.33 106.11, 42.81 81.57, 84.63 37.5 M-3.43 142.18 C20.49 122.68, 35.43 105.81, 82.34 52.79 M-1.15 147.77 C17.07 127.04, 34.43 106.44, 81.34 50.58 M-0.27 162.67 C25.63 132.52, 48.87 104.95, 79.9 66.61 M0.22 160.52 C29.62 123.87, 58.81 92.52, 82.19 63.11 M2.64 174.21 C16.2 146.48, 35.18 127.65, 78.97 74.82 M-1.04 172.22 C18.77 150.12, 38.68 130.78, 84.4 74.35 M-0.07 181.28 C23.06 154.69, 43.28 133.13, 82.69 84.63 M-0.41 181.37 C21.21 162.25, 41.12 141.49, 80.94 88.22 M2.38 194.87 C17.34 170.63, 44.61 149.29, 80.55 101.71 M-0.51 193.6 C23.89 165.42, 51.58 136.47, 83.58 100.79 M2.09 205.42 C18.96 187.64, 41.18 164.72, 80.76 115.73 M1.36 204.25 C18.59 184, 37.4 164.5, 84.67 113.69 M13.45 206.58 C28.91 189.65, 48.59 165.77, 82.82 122.05 M11.49 205.84 C31.27 183.37, 52.59 162.27, 80.94 125.34 M18.71 207.8 C40.13 193.54, 48.06 171.06, 81.18 135.57 M20.7 206.35 C39.34 183.68, 60.72 160.25, 82.53 136.54 M29.99 210.01 C43.2 190.75, 60.91 177.48, 82.48 152.1 M31.57 204.58 C44.41 188.81, 60.53 174.1, 81.51 149.58 M44.56 205.81 C60.99 193.71, 73.11 173, 85.29 162.26 M45.12 208.03 C51.39 197.6, 61.63 186.36, 80.95 161.7 M53.95 204.34 C64.37 194.87, 71.75 183.44, 84.56 173.07 M55.15 205.45 C62.01 197.37, 66.17 189.81, 82.68 172.51 M65.1 204.16 C71.16 203.33, 76.48 196.89, 80.13 185.61 M64.78 205.41 C71.1 201.79, 73.96 192.82, 81.09 185.24 M76.5 203.85 C77.87 204.45, 76.43 204.3, 83.59 197.21 M76.17 205.37 C78.64 202.79, 81.43 199.5, 82.36 198.02" stroke="#228be6" stroke-width="1" fill="none"></path><path d="M1.33 -2.4 C29.29 2.33, 51.36 -3.42, 77.2 0.33 M0.72 -0.55 C25.7 -2.7, 49.63 -2.98, 81.21 0.1 M80.79 1.76 C80.62 62.52, 79.41 124.59, 80.24 203.58 M80.85 0.26 C79.6 64.47, 78.98 128.13, 80.18 204.97 M83.85 205.56 C52.59 205.32, 16.95 209.27, 0.68 201.83 M78.45 203.18 C59.15 202.26, 42.94 204.79, 0.84 203.74 M-1.62 204.47 C-3.8 127.88, 0.1 47.02, 0.83 -1.42 M-1.3 206.07 C-3.53 134.91, -1.79 64.89, 1.72 0.81" stroke="#1864ab" stroke-width="2" fill="none"></path></g><g transform="translate(175.5494842529297 560.0460306803384) rotate(0 28 12.5)"><text x="28" y="18" font-family="Virgil, Segoe UI Emoji" font-size="20px" fill="#1864ab" text-anchor="middle" style="white-space: pre;" direction="ltr">Envoy</text></g><g stroke-linecap="round" transform="translate(804.0868988037109 471.39565531412745) rotate(0 40 102.5)"><path d="M0 0 C0 0, 0 0, 0 0 M0 0 C0 0, 0 0, 0 0 M3.14 14.33 C1.39 6.01, 9.65 -0.15, 11.42 -2.91 M1.47 11.83 C4.12 8.86, 7.8 2.08, 9.64 -1.04 M2.76 25.08 C12.14 16.82, 19.19 7.69, 17.59 -3.94 M0.42 23 C7.25 17.27, 12.43 9.35, 19.74 0.93 M-1.75 35.11 C6.94 30.37, 18.2 14.39, 30.52 0.23 M-0.26 37.17 C10.25 27.59, 15.76 16.18, 33.84 0.86 M1.04 49 C10.45 37.84, 17.6 29.42, 45.31 2.59 M1.29 48.42 C11.07 36.81, 20.96 24.69, 43.94 -0.23 M3.93 59.16 C13.79 41.61, 26.11 27.76, 56.78 -2.9 M-1.85 59.05 C12.66 46.46, 22.56 35.23, 52.84 0.77 M-2.74 76.55 C12.43 60.26, 26.66 42.63, 60.56 -0.87 M0.13 74.94 C19.93 52.48, 37.94 31.34, 62.52 1.25 M1.19 88.49 C27.71 52.67, 54.33 26.5, 73.93 -1.43 M1.65 86.73 C16.18 63.99, 32.82 46.34, 72.61 -0.7 M-2.12 100.6 C19.07 76.8, 40.46 59.3, 86.09 -0.03 M-0.3 97.04 C22.48 70.94, 43.53 47.58, 82.42 1.17 M-1 106.85 C22.12 89.81, 42.81 70.3, 79.04 15.65 M1 109.85 C18.95 85.92, 42.59 63.74, 81.41 15.73 M-1.33 119.29 C21.78 90.85, 51.89 62.03, 84.19 28.76 M0.59 121.53 C18.25 101.88, 39.31 78.98, 81.59 28.76 M0.96 130.05 C16.83 109.73, 35.63 92.38, 86.24 42.51 M1.08 134.16 C19.8 113.59, 40.89 88.7, 83.01 37.56 M0.11 145.34 C22.92 118.77, 49.27 95.3, 79.96 52.26 M-1.47 146.83 C22.27 125.72, 38.87 99.95, 82.26 50.34 M-3.26 159.23 C22.52 128.39, 53.25 95.35, 82.34 63.39 M-1.66 160.75 C20.26 132.68, 45.54 107.15, 82.32 65.38 M-2.64 167.8 C18.67 141.74, 46.35 117.55, 80.17 77.41 M0.44 170.71 C31.87 139.1, 61.17 102.01, 83.79 76.48 M3.32 186.8 C16.75 165.03, 38.04 141.59, 78.91 89.62 M-0.04 182.03 C25.21 154.39, 47.71 127.04, 83.49 87.91 M2.26 193.75 C21.36 171.24, 35.16 149.82, 82.24 99.2 M0.34 194 C24.08 169.03, 48.14 141.18, 81.67 99.82 M1.06 205.03 C27.76 181.71, 47.22 147.94, 80.25 111.11 M1.99 204.29 C18.54 185.65, 34.12 166.08, 83.87 111.46 M14.51 204.01 C41.69 174.92, 68.99 143.21, 81.66 125.96 M12.62 206.33 C34.17 181.23, 58.11 150.35, 80.91 126.35 M22.69 209.84 C39.34 182.1, 60.26 163.09, 81.33 138.09 M20.32 205.48 C43.19 182.81, 64.11 156.29, 81.97 135.71 M36.68 205.33 C44.01 195.12, 54.32 184.25, 81.21 145.29 M32.98 204.24 C44.54 194, 56.21 181.76, 83.31 147.4 M41.6 209.49 C55.42 189.98, 67.48 179.57, 81.81 162.84 M44.98 205.98 C50.22 197.41, 60.98 186.25, 81.4 161.4 M57.5 206.55 C62.25 193.95, 70.81 187.89, 82.42 173.4 M55.78 205.44 C63.5 198.36, 72.49 186.83, 84.85 170.91 M68.22 207.17 C69.45 200.59, 72.68 193.77, 85.37 184.95 M66.47 205.09 C69.77 197.42, 76.67 191.87, 84.32 185.64 M74.75 207.92 C76.38 202.27, 80.76 199.81, 83.08 199.38 M74.81 205.79 C77.81 203.01, 79.74 200.43, 83.19 197.38" stroke="#fd7e14" stroke-width="1" fill="none"></path><path d="M-3.08 -2.62 C19.88 2.9, 44.27 -2.13, 78.91 2.61 M0.62 -1.31 C27.22 -0.45, 53.11 2.03, 80.9 1.6 M81.8 -1.18 C78.04 56.85, 80.91 119.6, 82.84 207.46 M78.38 1.66 C77.37 75.04, 76.02 151.57, 79.05 205.83 M83.42 201.22 C51.75 206.13, 14.44 207.33, 0.03 204.54 M80.96 205.13 C58.62 203.29, 39.11 205.47, -1.62 204.77 M-0.5 202.94 C2.57 128.1, 4.65 51.67, 1.69 1.97 M-1.74 203.41 C1.76 145.82, 1.16 85.46, 0.95 -1.08" stroke="#e67700" stroke-width="2" fill="none"></path></g><g transform="translate(812.5868988037109 548.8956553141275) rotate(0 31.5 25)"><text x="31.5" y="18" font-family="Virgil, Segoe UI Emoji" font-size="20px" fill="#000000" text-anchor="middle" style="white-space: pre;" direction="ltr">Rating</text><text x="31.5" y="43" font-family="Virgil, Segoe UI Emoji" font-size="20px" fill="#000000" text-anchor="middle" style="white-space: pre;" direction="ltr">s</text></g><g stroke-linecap="round" transform="translate(681.0871429443359 467.4908396402993) rotate(0 40 102.5)"><path d="M0 0 C0 0, 0 0, 0 0 M0 0 C0 0, 0 0, 0 0 M-2.85 10.69 C3.6 6.2, 5.87 3.07, 12.58 -3.11 M0.1 13.17 C2.73 7.4, 4.82 4.3, 11.89 -0.71 M3.99 25.76 C8.04 19.61, 6.81 8.01, 22.41 -1.11 M0.23 25.54 C6.42 16.63, 14.63 7, 20.34 0.04 M-1.18 40.37 C14.91 19.44, 24.08 8.25, 30.38 -2.46 M1.38 37.24 C7.85 24.64, 20.47 16.15, 30.36 -1.53 M0.23 48.15 C7.14 39.66, 21.52 29.61, 40.14 2.09 M1.36 48.62 C13.14 33.73, 26.29 19.48, 41.98 1.45 M0.25 58.83 C15.44 40.78, 39.59 15.98, 49.39 -1.82 M1.21 59.24 C18.21 42.17, 34.65 24.02, 51.18 -0.86 M-0.89 76.02 C25.76 44.18, 46.35 15.56, 63.25 -3.76 M0.38 73.54 C19.59 49.81, 37.74 28.54, 64.75 -0.69 M1.48 83.13 C27.92 55.44, 51.48 22.67, 71.13 -3.4 M-1.34 84.04 C27.46 49.81, 56.3 15.47, 72.87 -0.26 M0.63 97.19 C25.29 75.82, 45.91 46.07, 81 1.61 M0.06 96.55 C26.26 67.98, 53.76 34.85, 81.04 1.69 M2 111.01 C24.78 90.83, 38.38 64.15, 80.23 12.78 M-2.01 109.55 C28.49 78.29, 53.53 46.61, 82.66 14.33 M-3.92 118.78 C20.68 98.13, 40.4 80.96, 80.23 29.81 M-0.06 123.22 C18.7 102.66, 34.34 82.81, 81.31 27.08 M-2.06 130.24 C14.51 116.62, 37.75 99.47, 80.35 39.86 M0.58 134.78 C18.59 112.26, 34.45 92.24, 82.33 38.18 M-0.53 144.48 C25.35 121.92, 41.86 96.45, 80.57 49.58 M1.75 147.74 C20.66 120.54, 42.34 97.49, 83.27 52.07 M-2.48 159.91 C35.83 119.63, 65.6 84.12, 81.81 67.04 M-1.67 159.08 C22.98 134.22, 44.08 109.31, 81.76 64.62 M-2.5 168.3 C35.17 135.27, 60.35 102.85, 85.32 75.82 M1.4 172.65 C16.74 151.13, 34.72 132.43, 80.75 74.5 M-1.75 184.44 C22.89 153.73, 39.14 131.95, 81.72 84.64 M0.92 182.14 C33.15 144.37, 65.8 109.04, 81.09 88.16 M3.54 192.28 C23.66 162.93, 49.54 136.15, 82.43 101.49 M0.89 196.53 C25.23 168.93, 47.68 139.47, 82.73 99.26 M3 210.03 C25.07 173.69, 51.93 144.11, 79.91 115.52 M1.9 206.5 C21.36 182.91, 47.33 153.95, 84.65 109.87 M12.81 206.24 C32.85 182.28, 51.95 159.52, 83.91 122.89 M9.58 207.79 C25.62 184.91, 42.83 169.07, 82.72 125.62 M21.05 204.59 C44.35 181.53, 63.81 156.95, 84.9 136.88 M21.62 207.39 C38.81 187.06, 56.1 167.37, 80.92 137.18 M33.43 207.86 C48.03 190.99, 62.73 165.49, 79.09 145.59 M33.18 206.73 C52.78 186.21, 70.3 163.21, 81.98 147.18 M44.32 202.34 C60.28 187.27, 70.59 175.56, 79.86 161.97 M41.61 207.45 C53.73 193.97, 63.19 181.59, 82.52 159.62 M53.66 202.97 C60.03 198.71, 66.16 191.39, 82.02 169.76 M55.02 207.83 C65.6 194, 75.67 181.01, 83 171.12 M63.77 206.45 C65.22 201.17, 75.14 196.21, 86.01 185.36 M62.84 205.23 C67.24 202.33, 75.73 195.27, 83.59 184.06 M73.67 205.1 C76.98 203.79, 78.83 204.19, 81.94 198.88 M75.94 205.19 C77.81 202.8, 79.67 201.54, 81.92 197.85" stroke="#228be6" stroke-width="1" fill="none"></path><path d="M-0.84 1.95 C22.07 -2.03, 37.36 3.66, 81.44 3.43 M0.35 -1.96 C15.78 1.56, 33.74 2.65, 79.68 0.22 M77.64 -1.37 C82.35 50.09, 84.68 96.32, 82.37 201.57 M80.89 -0.09 C76.22 78.54, 75.74 155.29, 81.55 204.59 M82.71 204.56 C44.51 204.24, 16.33 203.03, -1.77 207 M79.08 204.51 C62.15 206.8, 42.62 204.87, 1.33 204.11 M0.94 203.2 C3.54 126.73, 2.2 56.71, -0.25 -2.1 M-0.4 205.87 C2.57 142.02, 4.51 76.84, 1.15 0.71" stroke="#1864ab" stroke-width="2" fill="none"></path></g><g transform="translate(692.5871429443359 557.4908396402993) rotate(0 28 12.5)"><text x="28" y="18" font-family="Virgil, Segoe UI Emoji" font-size="20px" fill="#1864ab" text-anchor="middle" style="white-space: pre;" direction="ltr">Envoy</text></g><g stroke-linecap="round"><g transform="translate(679.8258126411811 603.386016553736) rotate(0 -215.7400645592288 -2.195304659354008)"><path d="M0.75 -1.14 C-71.18 -1.93, -359.26 -4.75, -431.49 -5.26 M-0.32 0.87 C-72.37 0.3, -360.59 -2.71, -432.23 -3.89" stroke="#000000" stroke-width="1" fill="none"></path></g><g transform="translate(679.8258126411811 603.386016553736) rotate(0 -215.7400645592288 -2.195304659354008)"><path d="M-405.81 -13.11 C-413.1 -11.84, -419.98 -9.44, -430.3 -3.52 M-403.79 -13.34 C-410.41 -11.36, -418.09 -8.51, -432.7 -4.04" stroke="#000000" stroke-width="1" fill="none"></path></g><g transform="translate(679.8258126411811 603.386016553736) rotate(0 -215.7400645592288 -2.195304659354008)"><path d="M-406.08 7.4 C-413.19 2.43, -420 -1.42, -430.3 -3.52 M-404.05 7.18 C-410.67 3.79, -418.28 1.27, -432.7 -4.04" stroke="#000000" stroke-width="1" fill="none"></path></g></g><mask></mask><g stroke-linecap="round" transform="translate(310.5766652425132 10) rotate(0 126.81589762369777 126.81589762369777)"><path d="M26.16 47.91 C26.16 47.91, 26.16 47.91, 26.16 47.91 M26.16 47.91 C26.16 47.91, 26.16 47.91, 26.16 47.91 M17.15 62.05 C24.48 56.86, 38.59 44.21, 44.15 32.39 M16.97 63.3 C24.96 55.92, 32.98 43.42, 42.18 37.34 M11.88 75.83 C23.05 69.26, 30.9 52.23, 58.73 25.31 M7.92 78.56 C17.85 67.27, 28.84 55.74, 56.8 23.68 M5.37 91.92 C21.58 75.76, 38.38 50.8, 67.27 21.95 M4.52 89.93 C23.25 71.23, 39.29 50.31, 62.72 24.49 M1.91 94.98 C20.59 80.26, 37.63 61.3, 69.94 17.96 M5.24 95.82 C30.62 67.9, 55.82 39.43, 70.85 18.16 M4.57 107.84 C27.08 77.1, 48.89 53.16, 78.66 14.71 M5.18 103.18 C26.13 79.57, 46.92 52.92, 79.58 18.29 M4.21 107.85 C30.45 81.49, 53.69 56.67, 87.32 15.93 M2.44 111.61 C27.59 81.11, 54.36 50.78, 88.21 12.2 M3.34 117.77 C37.32 85.87, 60.73 46.21, 97.49 3.86 M1.29 117.89 C23.88 94.61, 48.18 65.42, 100.09 4.67 M5.24 122.18 C30.46 95.01, 58.11 56.04, 105.21 5.29 M2.55 124.08 C40.95 82.45, 79.93 35.97, 104.63 5.65 M1.07 130.54 C30.18 107.54, 52.88 79.61, 109.6 8.16 M2.06 130.27 C29.28 97.69, 59.35 62.28, 111.29 2.6 M2.35 138.88 C48.3 83.02, 95.39 29.78, 118.37 1.63 M0.47 135.97 C39.15 96.4, 74.63 56.51, 118.34 2.25 M6.76 141.89 C29.19 107.57, 53.09 74.3, 123.48 1.41 M4.32 141.87 C40.8 100.78, 78.45 59.1, 121.89 3.57 M6.57 150.56 C37.66 108.5, 74.53 71.44, 130.3 6.6 M3.84 147.2 C37.85 109.44, 67.66 73.62, 128.32 4.36 M3.13 147.54 C50.31 102.3, 96.4 46.73, 134.71 0.64 M6.66 150.73 C45.56 108.09, 87.08 64.5, 132.72 1.79 M7.16 153.16 C32.95 125.23, 63.69 90.77, 136.64 3.91 M7.49 156.14 C34.41 123.97, 58.62 93.28, 139.4 2.93 M4.84 164.02 C40.26 118.99, 74.94 80.85, 146.35 4.16 M5.53 162.34 C64.63 101.28, 117.92 40.36, 143.52 2.41 M10.99 168.1 C33.78 135.47, 66.55 98.56, 147.98 6.55 M7.58 165.86 C37.85 131.31, 71.25 92.69, 148.65 2.77 M11.22 171.98 C51.07 125.91, 93.15 73.08, 149.72 5.28 M7.11 170.22 C58.58 114.47, 109.37 57.76, 153.25 4.3 M9.29 177.24 C56.25 127.35, 94.89 81.28, 154.03 7.54 M11.14 176.08 C51.64 135.51, 87.4 93.58, 156.25 5.94 M11.51 176.6 C44.69 141.55, 72.12 106.68, 162.44 10.2 M13.99 178.74 C56.1 130.3, 99.05 78.76, 162.61 9.55 M12.76 183.64 C59.71 123.52, 111.01 70.83, 168.96 8.11 M15.51 183.8 C52.66 139.82, 88.19 97.93, 165.73 8.83 M18.56 184.46 C54.47 144.64, 90.29 98.79, 167.34 9.18 M18.34 187.7 C54.82 145.35, 90.56 102.79, 169.48 11.04 M21.08 191.49 C65.67 132.68, 118.71 69.49, 175.48 11.19 M18.68 190.38 C58.48 141.3, 97.86 96.67, 174.83 11.89 M19.67 190.41 C72.84 137.95, 121.18 75.85, 175.67 9.51 M22.79 194.3 C75.86 128.97, 128.75 66.92, 178.61 13.04 M20.95 195.45 C76.98 138.66, 131.9 72.99, 186.16 14.48 M24.79 195.67 C79.37 129.72, 136.75 66.24, 183.97 14.12 M23.1 199.84 C74.06 142.02, 125.65 83.85, 188.53 12.12 M27.22 199.9 C57.74 160.06, 91.89 121.31, 189.02 13.2 M30.05 203.36 C73.71 156.87, 119.27 105.83, 190.63 16.22 M29.66 202.16 C81.08 140.76, 134.34 79.25, 189.26 17.04 M29.47 209.61 C90.95 133.22, 156.1 65.63, 191.54 18.18 M32.42 206.03 C63.61 170.86, 95.61 132.32, 193.36 20.53 M33.08 213.6 C81 157.46, 128.68 108.07, 195.08 21.94 M32 210.78 C90.03 141.29, 149.88 73.81, 196.58 23.22 M35.5 211.59 C78.86 167.81, 117.57 117.74, 198.95 23.49 M35.19 212.75 C93.04 147.57, 150.63 79.33, 200.51 24.99 M39.48 217.14 C82.57 171.16, 119.29 127.97, 205.48 27.97 M39.46 214.57 C92.46 149.54, 149.96 85.65, 203.58 28.1 M41.76 217.73 C96.31 158.98, 144.76 96.71, 203.56 29.96 M41.15 219.28 C82.74 171.13, 122.61 123.04, 206.98 30.41 M42.49 219.1 C79.24 181.82, 114.69 140.41, 209.45 33.62 M46.01 221.92 C102.3 149.51, 164.51 78.73, 209.16 33.73 M45.49 227.5 C97.04 163.11, 155.09 97.53, 212.8 35.77 M49.28 222.7 C100.96 161.03, 152.24 98.24, 211.71 36.48 M48.7 227.9 C88.98 183.02, 119.67 141.92, 217.43 39.4 M50.06 227.74 C91.66 178.56, 135.91 130.13, 213.84 38.84 M54.29 227.81 C105.94 173.5, 154.04 115.58, 216.76 40.64 M54.32 229.03 C121.9 158.73, 185.99 84.15, 218.3 39.13 M56.47 231.95 C102.72 182.82, 146.84 127.73, 224.76 44.97 M57.27 231.02 C92.36 188.71, 129.16 145.27, 222.61 41.72 M58.75 233.1 C101.18 186.31, 145 144.48, 220.76 46.41 M60.08 236.34 C108.16 179.04, 155.32 122.29, 223.64 45.68 M61.79 239.03 C119.4 177.58, 173.97 113.34, 227.37 47.71 M62.01 236.58 C125.13 164.34, 188.81 93.4, 226.43 50.14 M67.63 237.16 C101.6 199.38, 136.07 161.57, 231.08 51.41 M67.4 240.37 C108.32 195.97, 150.73 147.77, 227.98 51.45 M67.44 241.15 C120.69 184.31, 171.28 124.57, 229.56 59.23 M67.92 241.26 C111.71 188.74, 156.11 138.5, 231.22 57.13 M73.31 240.97 C104.77 207.13, 139.32 168.63, 231.97 60.37 M73.8 244.46 C127.05 181.32, 182.4 120.48, 233.34 60.91 M75.8 247.58 C129.41 184.53, 185.17 127.31, 236.32 62.58 M79.11 245.56 C129.88 184.33, 181.99 124.32, 235.31 65.21 M85.17 246.06 C139.74 178.43, 193.47 112.45, 239.46 70.29 M82.33 244.54 C145.42 175.65, 208.16 107.03, 236.6 68.73 M84.3 244.39 C122.59 204.02, 161.79 163.63, 237.3 72.97 M87.28 247.9 C115.06 209.91, 150.68 174.36, 238.28 69.8 M92.66 251.8 C138.34 199.73, 185.45 141.84, 242.06 76.29 M89.38 248.09 C137.68 195.08, 185.92 140.58, 241.02 73.88 M95.97 249.31 C133.77 202.44, 176.5 155.98, 245.46 80.24 M93.78 251.17 C133.87 203.7, 175.08 160.71, 244.76 76.29 M100.42 252.5 C148.48 190.7, 205.8 122.64, 246.57 79.68 M98.3 249.76 C142.74 197.15, 185.16 147.7, 247.4 79.53 M102.49 255.05 C132.78 219.86, 159.44 184.47, 248.17 83.72 M101.45 251.03 C137.74 208.44, 178.13 165.43, 247.19 86.86 M106.28 253.83 C141.67 211.33, 177.26 166.62, 248 91.54 M105.63 252.47 C152.59 204.04, 196.72 152.62, 248.89 91.31 M110.15 257.63 C147.92 212.27, 180.67 177.03, 253.69 93.15 M111.77 256.7 C146.65 211.59, 183.61 172.38, 250.46 95.45 M114.26 252.69 C160.55 209.13, 205.36 160.48, 254.53 99.6 M115.82 256.04 C170.2 196.03, 220.76 135.45, 250.77 99.57 M123.5 258.8 C163.34 206.87, 200.96 167.79, 250.73 107.88 M119.7 256.64 C165.15 203.31, 209.09 152.23, 254.04 102.83 M126.01 252.21 C167.4 215.82, 199.04 168.98, 252.8 110.81 M127.55 256.66 C159.39 216.48, 188.57 183.51, 255.88 109.86 M131.06 252.52 C159.46 220.26, 188.59 183.02, 256.23 109.53 M133.93 256 C168.82 209.78, 203.56 167.19, 255.28 112.97 M135.98 255.21 C181.85 204.82, 226.6 154.81, 259.07 121.53 M137.09 253.84 C179.38 204.4, 222.72 153.97, 254.96 118.5 M144.65 251.16 C167.07 229.83, 189.53 201.42, 258.43 121.8 M145.05 253.41 C181.74 210.78, 219.42 167.66, 259.05 120.57 M152.84 252.41 C179.58 212.47, 215.19 171.15, 254.87 129.44 M147.87 253.31 C179.34 218.52, 206.36 182.38, 255.01 130.67 M153.34 248.53 C195.94 211.16, 225.1 172.04, 253.97 134.14 M156.03 251.5 C185.03 215.4, 218.37 178.55, 254.59 137.96 M161.1 248.03 C197.08 213.73, 229.57 172.4, 254.33 144.17 M164.97 248.4 C190.98 220.34, 214.85 187.71, 255.12 144.9 M168.99 244.22 C197.15 216.01, 227.84 182.76, 251.9 150.97 M172.08 244.44 C191.07 226.72, 204.15 206.6, 251.17 153.49 M182.97 246.3 C203.47 219.05, 220.43 201.86, 250.57 169.52 M179.23 244.87 C202.91 215.24, 227.29 188.39, 246.43 165.42 M187.14 243.79 C201.44 225.04, 215.87 204.05, 235.15 186.25 M187.13 239.82 C208.39 219.8, 227.64 198.37, 238.01 183.53 M192.95 239.86 C208.48 222.27, 220.05 207.96, 231.13 196.79 M195.8 235.37 C206.47 221.77, 220.19 209.6, 225.51 201.39 M67.42 241.01 C67.42 241.01, 67.42 241.01, 67.42 241.01 M67.42 241.01 C67.42 241.01, 67.42 241.01, 67.42 241.01 M77.53 241.15 C67.88 231.49, 53.02 221.47, 35.58 207.27 M75.85 244.84 C63.37 231.47, 50.46 220.69, 34 207.47 M81.94 243.47 C63.62 228.36, 44.49 213.51, 26.51 191.38 M83.87 244.25 C69.36 232.68, 57.62 223, 26.57 196.21 M94.76 249.66 C77.21 233, 54.78 213.81, 10.27 174.86 M94.12 247.73 C69.38 226.83, 46.98 208.45, 7.36 172.36 M102.78 248.21 C69.54 220.96, 38.71 194.5, 11.48 167.05 M105.68 253.36 C87.05 233.33, 67.73 217.2, 5.86 167.81 M112.4 253.74 C67.15 217.9, 28.19 184.81, 10 157.84 M111.12 251.79 C80.35 223.38, 50.45 197.71, 6.51 160.62 M117.09 248.35 C85.24 225.47, 57.97 196.12, 4.97 157.71 M117.29 251.23 C89.8 228.39, 67.7 208.1, 4 156.7 M123.7 250.08 C76.17 212.45, 27.97 172.33, 7.27 152.2 M122.88 251.62 C88.89 221.99, 54.98 189.84, 5.11 147.99 M124.83 251.66 C79.44 215.51, 40.12 172.98, 4.69 138.76 M128.19 251.04 C86.72 213.83, 45.93 178.65, 5.13 143.01 M133 246.73 C102.13 226.32, 82.3 207.61, 3.04 135.62 M132.53 249.62 C104.83 228.04, 76 200.44, 2.32 135.38 M139.46 252.74 C97.35 207.52, 42.83 161.81, -0.72 130.69 M138.42 248.2 C94.34 211.84, 49.95 174.14, 2.34 130.45 M148.66 248.45 C91.53 203.55, 43.62 155.75, 0.12 123.75 M145.29 251.4 C99.28 208.26, 53.45 170.52, 2.17 127.13 M149.28 249.53 C91.52 198.96, 37.57 149.05, -1.33 119.36 M149.87 250.99 C99.37 204.43, 47.19 161.55, 2.07 120.53 M156.64 246.43 C121.87 221.27, 88.94 191.3, 3.85 115.61 M156.02 249.1 C104.55 205.16, 54.99 163.3, 0.66 114.53 M161.28 247.42 C106.95 201.18, 42.98 152.07, 4.79 108.26 M160.3 246.68 C111.91 209.87, 62.58 167.37, 1.22 110.6 M163.81 243.98 C102.74 199.52, 45.71 145.5, 3.25 105.69 M165.98 246.44 C126.33 211.15, 85.18 172.68, 2.96 105.37 M169.94 243.08 C106.16 188.25, 39.02 134.08, 3.04 98.27 M169.53 242.9 C126.47 203.66, 79.86 163.8, 2.45 100.69 M176.39 245.16 C107.63 189.44, 49.6 132.38, 1.32 98.66 M173.88 243.97 C119.71 194.44, 65.56 149.13, 3.13 94.38 M176.07 242.55 C135.66 202.33, 94.17 166.15, 4.48 87.51 M177.07 240.94 C132.51 205.72, 90.51 168.87, 2.81 89.8 M180.49 241.33 C129.85 196.22, 79.94 154.91, 7.05 88.61 M180.55 238.89 C125.66 191.28, 73.48 142.35, 7.98 88.15 M183.56 238.79 C153.01 202.94, 113.41 173.29, 6.12 80.88 M184.89 237.33 C143.16 200.18, 104.77 165.3, 6.74 84.13 M187.16 235.18 C138.48 194, 91.71 145.23, 13.27 77.83 M190.85 236.44 C138.42 191.49, 88.48 146.06, 9.11 80.37 M195.24 234.27 C156.31 199.98, 125.07 170.78, 10.45 76.23 M194.81 234.22 C132.8 182.65, 69.85 127.43, 12.17 74.87 M198.15 234.13 C147.11 188.84, 99.4 145.74, 11.22 70.44 M199.12 231.99 C156.33 193.14, 114.78 156.34, 12.27 71.46 M198.7 233.23 C132.76 161.86, 53.62 101.29, 18.05 69.68 M202.56 230.14 C145.44 181.69, 89.66 131.75, 15.34 68.58 M200.93 225.22 C157.85 184.94, 109.97 140.81, 17.05 65.64 M205.35 227.64 C164.13 191.78, 123.84 157.49, 18.96 66.48 M206.55 222 C155.86 183.01, 107.84 138.71, 21.61 62.93 M206.55 225.12 C144.21 172.6, 82.01 116.74, 19.45 62.69 M207.53 219.56 C136.07 162.36, 70.53 106.22, 20.66 60.02 M209.25 221.75 C160.51 180.86, 111.23 139.37, 20.36 59.07 M213.3 218.44 C148.19 163.39, 82.28 106.33, 22.35 53.28 M212.7 218.97 C164.56 175.14, 116.12 133.37, 23 54.05 M215.59 214.63 C167.27 170.08, 122.35 126.84, 22.14 50.77 M215.99 215.99 C173.9 177.63, 130.76 138.96, 25.16 49.63 M215.58 213.33 C178.03 179.16, 139.89 142.26, 26.62 43.54 M216.72 213.59 C172.08 175.22, 125.28 135.26, 28.04 46.98 M221.46 206.86 C166.36 163.57, 116.11 119.8, 29.86 46.77 M221.19 209.66 C151.64 147.07, 82.41 88.33, 29.92 44.88 M223.32 207.91 C165.12 153.81, 107.29 106.78, 32.58 41.24 M223.54 206.14 C181.04 164.84, 138.77 129.55, 35.05 41.2 M224.12 202.07 C162.94 149.01, 102.83 98.68, 34.61 36.52 M226.41 205.31 C158.83 139.78, 86.83 80.1, 37.33 40.53 M231.12 198.07 C185.01 164.11, 143.48 126, 36.76 33.96 M226.91 201.04 C180.48 159.62, 129.61 113.89, 41.24 37.99 M231.19 195.87 C161.55 136.12, 88.05 71.52, 44.78 36.51 M230.49 197.27 C178.58 154.31, 125.45 111.36, 44.01 35.37 M230.07 193.3 C179.49 144.47, 119.91 98.8, 49.42 29.08 M232.6 194.7 C189.19 154.51, 146.37 117.53, 47.76 32.75 M235.64 188.66 C161.46 127.87, 89.77 59.76, 49.89 27.83 M233.9 188.31 C197.06 159.57, 159.74 126.27, 51.45 28.31 M233.11 188.73 C198.48 151.86, 160.49 118.67, 50.17 23.78 M236.43 184.92 C182.54 139.23, 125.43 88.81, 52.99 25.71 M236.24 180.42 C170.19 125.59, 105.11 65.92, 56.35 25.6 M238.18 182.9 C201.09 144.34, 160.44 111.31, 54.26 23.99 M238.94 181.86 C188.37 137.78, 137.48 89.66, 56.4 20.06 M238.65 179.89 C194.59 143.8, 149.71 102.72, 60.31 22.35 M243.98 177.39 C195.2 133.97, 150.9 91.44, 64 21.81 M243.81 175.54 C203.04 140.01, 162.17 102.18, 61.11 19.93 M240.79 168.74 C185.95 124.74, 127.76 73.01, 69.57 17.55 M245.07 172.72 C180.1 114.31, 114.63 55.9, 65.19 17.91 M244.09 166.67 C184.95 114.2, 127.83 66.82, 72.18 18.21 M247.12 166.92 C185.23 113.87, 128.01 64.36, 69.45 14.72 M247.87 164.8 C177.2 102.34, 108.57 43.53, 72.83 11.32 M246.52 163.54 C184.34 109, 123.24 55.42, 75.13 13.5 M249 163.15 C184.47 99.15, 116.23 43.63, 81.56 15.2 M248.19 159.14 C204.9 120.61, 156.25 81.67, 78.95 11.82 M249.79 156.61 C213.16 120.36, 175.94 86.71, 80.74 8.21 M248.7 156.85 C214.82 126.56, 178.34 95.35, 83.73 10.61 M249.47 153.58 C197.25 106.61, 145.85 60.95, 87.76 11.71 M250.9 151.96 C198.69 108.59, 145.73 59.84, 86.78 7.75 M247.48 145.13 C220.09 115.43, 186.1 91.12, 90.52 4.51 M251.24 145.79 C192.36 95.4, 133.47 43.86, 90.6 7.29 M254.24 142.41 C200.67 94.44, 150.09 53.33, 97.01 7.19 M253.13 142.85 C211.79 107.68, 168.86 72.12, 94.65 6 M251.33 137.73 C219.58 104.78, 187.12 80.04, 97.67 2.2 M253.26 136.08 C203.55 93.96, 153.25 50.37, 99.18 2.48 M255.26 131.81 C194.97 85.01, 140.02 35.59, 100.86 4.95 M255.09 132.36 C195.21 79.14, 135.56 30.46, 103.07 0.66 M255.92 130.13 C201.12 80.7, 144.89 30.43, 107.41 -0.99 M254.57 126.33 C225.48 98.24, 193.02 70.01, 108.78 2.32 M252.44 119.05 C213.91 84.84, 168.77 47.55, 115.22 -2.43 M254.83 124.06 C215.09 89.53, 178.25 58.54, 115.57 1.73 M253.74 119.79 C211.73 85, 173.32 46.86, 117.35 0.18 M254.74 117.81 C215.91 85.89, 173.94 51.89, 119.64 -0.2 M251.06 114.15 C213.35 75.64, 176.71 48.3, 124.63 -0.57 M253.01 113.17 C224.06 85.78, 190.81 58.05, 126.32 -1.57 M255.23 103.88 C228.9 83.36, 199.25 57.09, 130.79 1.83 M250.72 104.15 C203.71 64.69, 161.1 26.32, 130.42 -0.91 M251.93 99.04 C224.29 75.67, 203.2 56.53, 137.58 -3.31 M249.98 99.21 C216.43 65.03, 181.21 35.9, 138.74 -0.6 M245.88 89.44 C219.75 61.63, 187.82 34.91, 145.38 2.29 M247.34 92.45 C219.36 65.86, 194.48 46.32, 143.96 0.97 M249.94 81.6 C220.01 56.88, 197.08 35.84, 151.36 0.15 M246.23 82.16 C214.47 54.51, 179.31 24.32, 152.11 3.37 M246.23 75.55 C219.26 51, 185.26 26.51, 163.32 4.54 M243.46 75.39 C226.47 62.2, 203.85 42.09, 163.71 7.34 M234 65.19 C223.21 52.07, 208.97 37, 168.82 7.38 M236.29 65.92 C221.19 49.12, 203.59 32.24, 172.27 7.33 M230.57 52.85 C220.4 46.06, 208.14 37.15, 183.33 9.72 M228.76 52.6 C220.16 41.88, 206.48 33.44, 179.67 8.73" stroke="#e14b2d" stroke-width="0.5" fill="none"></path><path d="M185.13 13.19 C198.14 17.86, 209.83 29.51, 219.58 40.4 C229.34 51.29, 237.75 65.25, 243.66 78.51 C249.58 91.77, 254.49 105.48, 255.08 119.96 C255.68 134.45, 252.08 151.63, 247.23 165.42 C242.38 179.22, 234.47 190.99, 226 202.73 C217.53 214.47, 208.25 227.68, 196.41 235.85 C184.57 244.01, 169.71 248.86, 154.96 251.72 C140.2 254.59, 122.5 254.87, 107.87 253.05 C93.24 251.23, 79.69 247.88, 67.18 240.8 C54.66 233.73, 42.55 221.6, 32.75 210.6 C22.96 199.6, 13.86 188.17, 8.42 174.81 C2.98 161.45, 0.81 144.76, 0.1 130.46 C-0.61 116.16, -0.15 102.74, 4.17 89.01 C8.49 75.28, 16.58 59.39, 26.03 48.06 C35.48 36.72, 48.43 28.21, 60.86 21 C73.28 13.78, 86.88 7.97, 100.6 4.77 C114.31 1.56, 121.95 -5.64, 143.13 1.74 C164.31 9.12, 210.59 33.32, 227.7 49.04 C244.8 64.76, 247.97 95.1, 245.75 96.08 M205.99 23.83 C218.21 30.54, 225.86 47.87, 233.6 60.97 C241.34 74.06, 249.07 88.2, 252.43 102.41 C255.8 116.61, 255.94 132.65, 253.77 146.21 C251.6 159.76, 246.17 171.04, 239.39 183.71 C232.61 196.38, 223.83 212.07, 213.09 222.23 C202.35 232.39, 188.72 239.03, 174.93 244.68 C161.13 250.33, 144.48 255.39, 130.32 256.13 C116.16 256.87, 103.57 254.17, 89.96 249.15 C76.36 244.12, 60.13 235.26, 48.68 226 C37.23 216.73, 28.81 205.38, 21.25 193.57 C13.69 181.77, 6.62 168.93, 3.31 155.15 C0 141.36, -0.08 125.52, 1.4 110.89 C2.87 96.26, 5.58 80.54, 12.15 67.36 C18.72 54.19, 29.36 41.45, 40.8 31.86 C52.24 22.28, 67.48 15.25, 80.78 9.86 C94.08 4.47, 106.43 -0.06, 120.62 -0.46 C134.82 -0.86, 151.96 3.13, 165.95 7.45 C179.94 11.77, 198.34 21.98, 204.58 25.44 C210.82 28.9, 204.28 26.76, 203.4 28.2" stroke="#e14b2d" stroke-width="1" fill="none"></path></g><g stroke-linecap="round" transform="translate(367.16644007051525 175.77750281023464) rotate(0 68.78193874015398 12.721080283928075)"><path d="M-1.29 0.9 L137.28 3.77 L134.41 22.03 L0.91 27.25" stroke="none" stroke-width="0" fill="#ffffff"></path><path d="M1.94 -1.39 C38.28 -2.18, 79.18 -2.91, 135.19 -1.09 M-0.35 -0.11 C37.91 0.89, 79.9 4.4, 138.85 0.97 M141.12 -0.31 C134.83 3.35, 137.77 10.71, 135 21.67 M139.23 1.46 C138.06 10.68, 136.58 18.14, 139.2 26.62 M135.91 28.07 C103.24 26.51, 74.28 19.55, -0.46 28.13 M139.24 25.6 C87.02 27.16, 40.22 26.52, 0.39 24.31 M-0.9 23.8 C1.82 14.13, 0.23 7.36, 0.36 1.27 M-0.82 26.9 C0.32 19.13, -0.28 14.59, 0.99 0.2" stroke="#e14b2d" stroke-width="1" fill="none"></path></g><g stroke-linecap="round"><g transform="translate(399.5988925471821 238.77364415914917) rotate(181.11973861006382 38.20402698276047 -12.290640121981255)" fill-rule="evenodd"><path d="M3.5 2.57 L2.16 -8.15 L15.59 -20.1 L31.84 -26.51 L35.06 -28.3 L59.74 -21.57 L69.09 -18.29 L82.33 -5.36 L74.56 2.58 L64.83 1.94 L3.78 -1.68" stroke="none" stroke-width="0" fill="#ffffff" fill-rule="evenodd"></path><path d="M1.36 -0.97 C0.71 -2.02, -4.4 -1.74, -1.69 -5.65 C1.03 -9.57, 11.34 -20.89, 17.66 -24.46 C23.99 -28.02, 28.35 -28.39, 36.27 -27.06 C44.19 -25.74, 58.9 -20.82, 65.2 -16.51 C71.49 -12.21, 84.91 -3.74, 74.02 -1.23 C63.13 1.27, 12.6 -2.14, -0.15 -1.48 M-1.35 -3.97 C-1.3 -4.69, -0.45 0.43, 3.68 -2.61 C7.8 -5.65, 18.03 -18.5, 23.41 -22.21 C28.79 -25.92, 29.61 -26.17, 35.95 -24.87 C42.29 -23.57, 54.81 -17.9, 61.47 -14.41 C68.12 -10.93, 85.92 -6.89, 75.89 -3.95 C65.86 -1.02, 13.53 1.95, 1.29 3.19" stroke="#e14b2d" stroke-width="1" fill="none"></path></g></g><mask></mask><g stroke-linecap="round"><g transform="translate(398.4301206331695 166.9680153300518) rotate(0 41.19218319132398 -70.91205181851387)" fill-rule="evenodd"><path d="M-3.15 -3.42 L-5.38 -3.33 L-9.88 -26.36 L-9.04 -19.65 L4.45 -20.99 L-1.93 -35.64 L-3.27 -51.4 L-7.82 -58.89 L2.26 -98.41 L-8.57 -108.68 L5.46 -100.27 L13.5 -85.82 L15.94 -78.79 L18.15 -82.77 L18.22 -84.79 L18.07 -108.18 L45.39 -144.36 L38.71 -126.69 L31.02 -115.84 L41.26 -82.31 L46.41 -68.31 L48.2 -110.5 L59.28 -127.47 L59.54 -127.89 L64.1 -131.63 L60.97 -120.72 L59.79 -105.53 L79.49 -66.31 L80.45 -50.41 L82.56 -31.78 L75.25 -25.41 L70.22 -17.89 L86.46 -23.19 L96.56 -30.13 L93.45 -17.93 L82.77 0.66 L-5.61 4.06 L2.26 -3.88" stroke="none" stroke-width="0" fill="#ffffff" fill-rule="evenodd"></path><path d="M-0.97 -1.91 C-1.5 -2.78, -1.37 -3.02, -2.52 -3.84 C-3.67 -4.65, -6.03 -2.74, -7.89 -6.8 C-9.76 -10.86, -14 -25.06, -13.7 -28.19 C-13.41 -31.32, -9.06 -27.38, -6.13 -25.59 C-3.19 -23.8, 4 -14.93, 3.92 -17.44 C3.83 -19.96, -5.23 -33.56, -6.63 -40.7 C-8.02 -47.84, -5.59 -50.99, -4.45 -60.3 C-3.3 -69.61, 0.87 -89.15, 0.24 -96.56 C-0.38 -103.97, -8.03 -104.06, -8.19 -104.77 C-8.34 -105.48, -4.24 -103.1, -0.69 -100.81 C2.86 -98.52, 10.57 -94.62, 13.09 -91.04 C15.61 -87.46, 13.21 -80.14, 14.44 -79.33 C15.68 -78.52, 20.04 -84.01, 20.48 -86.19 C20.91 -88.36, 17.83 -88.66, 17.05 -92.38 C16.26 -96.1, 15.21 -105.39, 15.75 -108.49 C16.29 -111.6, 15.49 -105.97, 20.27 -110.99 C25.05 -116.02, 41.79 -136.55, 44.42 -138.67 C47.06 -140.79, 38.02 -127.93, 36.07 -123.72 C34.13 -119.51, 33.35 -117.38, 32.74 -113.4 C32.12 -109.41, 31.12 -105.15, 32.39 -99.79 C33.67 -94.43, 38.26 -86.81, 40.4 -81.25 C42.53 -75.69, 43.76 -64.69, 45.2 -66.43 C46.64 -68.17, 47.71 -82, 49.02 -91.69 C50.33 -101.37, 50.69 -118.77, 53.08 -124.53 C55.46 -130.29, 62.2 -126.78, 63.33 -126.26 C64.45 -125.74, 60.33 -124.64, 59.84 -121.44 C59.35 -118.23, 60.32 -111.27, 60.38 -107.01 C60.45 -102.76, 56.82 -102.29, 60.22 -95.92 C63.62 -89.54, 76.76 -75.91, 80.78 -68.76 C84.81 -61.61, 83.94 -59.86, 84.38 -53.01 C84.81 -46.17, 84.96 -33.51, 83.38 -27.68 C81.8 -21.85, 77.37 -20.33, 74.89 -18.01 C72.41 -15.7, 68.36 -14.2, 68.5 -13.82 C68.64 -13.44, 71.61 -14.06, 75.7 -15.74 C79.79 -17.42, 89.63 -21.43, 93.02 -23.92 C96.41 -26.42, 95.88 -31.32, 96.05 -30.71 C96.22 -30.1, 96.1 -25.14, 94.04 -20.24 C91.99 -15.33, 87.08 -4.22, 83.71 -1.26 C80.33 1.71, 87.69 -2.84, 73.77 -2.43 C59.86 -2.02, 12.88 0.8, 0.24 1.21 C-12.39 1.62, -1.86 0.11, -2.05 0.01 C-2.24 -0.09, -1.21 0.2, -0.9 0.63 M3.69 3.22 C2.64 2.53, -2.97 0.01, -5.35 -1.29 C-7.72 -2.59, -9.2 -0.5, -10.57 -4.59 C-11.93 -8.68, -13.89 -22.25, -13.53 -25.84 C-13.18 -29.43, -11.84 -27.11, -8.42 -26.13 C-5 -25.15, 6.57 -18.24, 6.99 -19.98 C7.4 -21.72, -3.85 -29.95, -5.91 -36.58 C-7.97 -43.21, -5.91 -49.35, -5.38 -59.77 C-4.84 -70.19, -2.33 -91.49, -2.73 -99.09 C-3.12 -106.69, -8.13 -104.28, -7.73 -105.4 C-7.34 -106.51, -3.24 -107.81, -0.35 -105.77 C2.55 -103.73, 7.21 -97.22, 9.64 -93.13 C12.07 -89.05, 12.69 -82.18, 14.22 -81.26 C15.75 -80.34, 18.45 -85.66, 18.81 -87.61 C19.18 -89.57, 16.56 -89.88, 16.39 -93.01 C16.22 -96.13, 17.41 -102.4, 17.78 -106.36 C18.14 -110.32, 14.56 -110.32, 18.58 -116.76 C22.59 -123.2, 38.17 -144.02, 41.87 -145.01 C45.58 -145.99, 43.36 -127.39, 40.8 -122.68 C38.24 -117.96, 27.03 -120.18, 26.49 -116.71 C25.94 -113.24, 35.33 -108.56, 37.53 -101.85 C39.74 -95.14, 38.28 -81.9, 39.71 -76.43 C41.15 -70.97, 45.17 -66.31, 46.15 -69.06 C47.13 -71.8, 43.99 -83.75, 45.58 -92.92 C47.16 -102.08, 53.53 -118.55, 55.68 -124.02 C57.82 -129.49, 58.38 -126.1, 58.44 -125.73 C58.5 -125.37, 56.38 -124.34, 56.03 -121.84 C55.68 -119.33, 55.74 -114.29, 56.31 -110.72 C56.89 -107.15, 56.04 -106.89, 59.48 -100.43 C62.92 -93.98, 72.89 -80.47, 76.94 -72 C81 -63.53, 82.54 -56.42, 83.79 -49.59 C85.04 -42.76, 86.61 -36.02, 84.44 -31.01 C82.26 -26, 72.83 -21.56, 70.75 -19.54 C68.66 -17.52, 70.57 -19.3, 71.93 -18.9 C73.28 -18.5, 75.07 -16.88, 78.85 -17.15 C82.64 -17.41, 92.36 -18.96, 94.65 -20.48 C96.94 -22.01, 92.47 -26.02, 92.6 -26.29 C92.73 -26.56, 97.32 -25.25, 95.45 -22.1 C93.59 -18.94, 85.57 -10.56, 81.42 -7.37 C77.27 -4.18, 83.98 -4.68, 70.57 -2.94 C57.15 -1.2, 13.82 2.47, 0.92 3.06 C-11.97 3.64, -6 0.95, -6.79 0.6 C-7.58 0.24, -5.03 1.27, -3.81 0.92" stroke="#e14b2d" stroke-width="1" fill="none"></path></g></g><mask></mask><g stroke-linecap="round"><g transform="translate(212.0393569736591 466.23325509144263) rotate(0 93.37411272292854 -100.69772942874977)"><path d="M1.12 0.99 C32.11 -32.83, 154.7 -168.11, 185.63 -202.38" stroke="#000000" stroke-width="1.5" fill="none" stroke-dasharray="8 9"></path></g><g transform="translate(212.0393569736591 466.23325509144263) rotate(0 93.37411272292854 -100.69772942874977)"><path d="M175.97 -175.64 C179.11 -181.57, 178.45 -189.25, 184.15 -202.01" stroke="#000000" stroke-width="1.5" fill="none"></path></g><g transform="translate(212.0393569736591 466.23325509144263) rotate(0 93.37411272292854 -100.69772942874977)"><path d="M160.75 -189.41 C168.12 -191.72, 171.62 -195.62, 184.15 -202.01" stroke="#000000" stroke-width="1.5" fill="none"></path></g></g><mask></mask><g stroke-linecap="round"><g transform="translate(712.5978256726646 463.51991623874676) rotate(0 -115.35604343826736 -100.80955873115244)"><path d="M-1.06 1.06 C-39.35 -32.9, -191.27 -168.68, -229.65 -202.68" stroke="#000000" stroke-width="1.5" fill="none" stroke-dasharray="8 9"></path></g><g transform="translate(712.5978256726646 463.51991623874676) rotate(0 -115.35604343826736 -100.80955873115244)"><path d="M-200.01 -190.37 C-208.51 -196.78, -217.43 -200.06, -231.43 -202.87" stroke="#000000" stroke-width="1.5" fill="none"></path></g><g transform="translate(712.5978256726646 463.51991623874676) rotate(0 -115.35604343826736 -100.80955873115244)"><path d="M-213.66 -175.04 C-218.13 -186.01, -222.88 -193.96, -231.43 -202.87" stroke="#000000" stroke-width="1.5" fill="none"></path></g></g><mask></mask><g transform="translate(10 154.8009134928384) rotate(0 186.97869040749305 125.19442749023438)"><text x="0" y="9.923278808593754" font-family="Cascadia, Segoe UI Emoji" font-size="10.615609420095277px" fill="#000000" text-anchor="start" style="white-space: pre;" direction="ltr">istio_requests_total{</text><text x="0" y="21.846557617187507" font-family="Cascadia, Segoe UI Emoji" font-size="10.615609420095277px" fill="#000000" text-anchor="start" style="white-space: pre;" direction="ltr">    reporter="source",</text><text x="0" y="33.769836425781264" font-family="Cascadia, Segoe UI Emoji" font-size="10.615609420095277px" fill="#000000" text-anchor="start" style="white-space: pre;" direction="ltr">    response_code="200",</text><text x="0" y="45.693115234375014" font-family="Cascadia, Segoe UI Emoji" font-size="10.615609420095277px" fill="#000000" text-anchor="start" style="white-space: pre;" direction="ltr">    source_cluster="Kubernetes",</text><text x="0" y="57.616394042968764" font-family="Cascadia, Segoe UI Emoji" font-size="10.615609420095277px" fill="#000000" text-anchor="start" style="white-space: pre;" direction="ltr">    source_workload_namespace="default",</text><text x="0" y="69.53967285156253" font-family="Cascadia, Segoe UI Emoji" font-size="10.615609420095277px" fill="#000000" text-anchor="start" style="white-space: pre;" direction="ltr">    source_workload="reviews-v3",</text><text x="0" y="81.46295166015628" font-family="Cascadia, Segoe UI Emoji" font-size="10.615609420095277px" fill="#000000" text-anchor="start" style="white-space: pre;" direction="ltr">    source_app="reviews",</text><text x="0" y="93.38623046875003" font-family="Cascadia, Segoe UI Emoji" font-size="10.615609420095277px" fill="#000000" text-anchor="start" style="white-space: pre;" direction="ltr">    source_version="v3",</text><text x="0" y="105.30950927734378" font-family="Cascadia, Segoe UI Emoji" font-size="10.615609420095277px" fill="#000000" text-anchor="start" style="white-space: pre;" direction="ltr">    source_canonical_service="reviews",</text><text x="0" y="117.23278808593753" font-family="Cascadia, Segoe UI Emoji" font-size="10.615609420095277px" fill="#000000" text-anchor="start" style="white-space: pre;" direction="ltr">    source_canonical_revision="v3",</text><text x="0" y="129.15606689453128" font-family="Cascadia, Segoe UI Emoji" font-size="10.615609420095277px" fill="#000000" text-anchor="start" style="white-space: pre;" direction="ltr">    destination_cluster="Kubernetes",</text><text x="0" y="141.07934570312506" font-family="Cascadia, Segoe UI Emoji" font-size="10.615609420095277px" fill="#000000" text-anchor="start" style="white-space: pre;" direction="ltr">    destination_service="ratings.default.svc.cluster.local",</text><text x="0" y="153.0026245117188" font-family="Cascadia, Segoe UI Emoji" font-size="10.615609420095277px" fill="#000000" text-anchor="start" style="white-space: pre;" direction="ltr">    destination_service_name="ratings",</text><text x="0" y="164.92590332031256" font-family="Cascadia, Segoe UI Emoji" font-size="10.615609420095277px" fill="#000000" text-anchor="start" style="white-space: pre;" direction="ltr">    destination_service_namespace="default",</text><text x="0" y="176.8491821289063" font-family="Cascadia, Segoe UI Emoji" font-size="10.615609420095277px" fill="#000000" text-anchor="start" style="white-space: pre;" direction="ltr">    destination_workload_namespace="default",</text><text x="0" y="188.77246093750006" font-family="Cascadia, Segoe UI Emoji" font-size="10.615609420095277px" fill="#000000" text-anchor="start" style="white-space: pre;" direction="ltr">    destination_workload="ratings-v1",</text><text x="0" y="200.6957397460938" font-family="Cascadia, Segoe UI Emoji" font-size="10.615609420095277px" fill="#000000" text-anchor="start" style="white-space: pre;" direction="ltr">    destination_app="ratings",</text><text x="0" y="212.61901855468756" font-family="Cascadia, Segoe UI Emoji" font-size="10.615609420095277px" fill="#000000" text-anchor="start" style="white-space: pre;" direction="ltr">    destination_version="v1",</text><text x="0" y="224.5422973632813" font-family="Cascadia, Segoe UI Emoji" font-size="10.615609420095277px" fill="#000000" text-anchor="start" style="white-space: pre;" direction="ltr">    destination_canonical_service="ratings",</text><text x="0" y="236.46557617187506" font-family="Cascadia, Segoe UI Emoji" font-size="10.615609420095277px" fill="#000000" text-anchor="start" style="white-space: pre;" direction="ltr">    destination_canonical_revision="v1"</text><text x="0" y="248.38885498046884" font-family="Cascadia, Segoe UI Emoji" font-size="10.615609420095277px" fill="#000000" text-anchor="start" style="white-space: pre;" direction="ltr">} 12</text></g><g transform="translate(288.2910614013672 479.73170361287214) rotate(0 176.72014944894067 16.170471191406307)"><text x="0" y="13.170471191406335" font-family="Cascadia, Segoe UI Emoji" font-size="13.649568950679392px" fill="#000000" text-anchor="start" style="white-space: pre;" direction="ltr">GET /ratings/0</text><text x="0" y="29.34094238281267" font-family="Cascadia, Segoe UI Emoji" font-size="13.649568950679392px" fill="#000000" text-anchor="start" style="white-space: pre;" direction="ltr">x-envoy-peer-metadata: Reviews node metadata</text></g><g transform="translate(284.02461678641157 552.9723612467445) rotate(0 171.84284755161843 15.72418212890625)"><text x="0" y="12.724182128906254" font-family="Cascadia, Segoe UI Emoji" font-size="13.272854304679068px" fill="#000000" text-anchor="start" style="white-space: pre;" direction="ltr">200 OK</text><text x="0" y="28.448364257812507" font-family="Cascadia, Segoe UI Emoji" font-size="13.272854304679068px" fill="#000000" text-anchor="start" style="white-space: pre;" direction="ltr">x-envoy-peer-metadata: Ratings node metadata</text></g><g stroke-linecap="round"><g transform="translate(125.86084910310012 532.7093592716731) rotate(0 18.792639930610278 -0.3002434849096858)"><path d="M-0.35 -0.25 C6.16 -0.21, 31.63 -0.44, 37.93 -0.11 M1.67 -1.42 C8.22 -1.25, 31.7 0.63, 37.61 0.82" stroke="#000000" stroke-width="1" fill="none"></path></g><g transform="translate(125.86084910310012 532.7093592716731) rotate(0 18.792639930610278 -0.3002434849096858)"><path d="M19.63 7.91 C21.87 6.22, 28.31 2.28, 38.07 0.57 M19.15 6.86 C24.07 4.32, 30.14 3.12, 37.38 0.08" stroke="#000000" stroke-width="1" fill="none"></path></g><g transform="translate(125.86084910310012 532.7093592716731) rotate(0 18.792639930610278 -0.3002434849096858)"><path d="M20.37 -4.63 C22.42 -3.75, 28.7 -5.1, 38.07 0.57 M19.89 -5.69 C24.72 -4.69, 30.58 -2.35, 37.38 0.08" stroke="#000000" stroke-width="1" fill="none"></path></g></g><mask></mask><g stroke-linecap="round"><g transform="translate(161.43195418560083 598.3642185011856) rotate(0 -18.261358020390674 1.2677627357746246)"><path d="M-0.16 0.83 C-6.17 1.03, -30.27 0.66, -36.36 0.78 M-1.71 0.22 C-7.3 0.66, -28.63 2.41, -34.07 2.32" stroke="#000000" stroke-width="1" fill="none"></path></g><g transform="translate(161.43195418560083 598.3642185011856) rotate(0 -18.261358020390674 1.2677627357746246)"><path d="M-16.39 -5.62 C-22.15 -4.27, -25.47 -2.4, -34.04 3.38 M-18.47 -4.84 C-22.72 -1.5, -28.11 0.02, -33.95 3.05" stroke="#000000" stroke-width="1" fill="none"></path></g><g transform="translate(161.43195418560083 598.3642185011856) rotate(0 -18.261358020390674 1.2677627357746246)"><path d="M-15.92 6.53 C-21.76 4.56, -25.2 3.11, -34.04 3.38 M-18 7.31 C-22.29 7.01, -27.83 4.88, -33.95 3.05" stroke="#000000" stroke-width="1" fill="none"></path></g></g><mask></mask><g stroke-linecap="round"><g transform="translate(766.8105880511673 541.3177677756323) rotate(0 18.01521739722557 -0.00633337260751432)"><path d="M0.1 -0.14 C6.09 0.05, 29.35 1.15, 35.19 1.31 M-1.31 -1.25 C5.11 -1.46, 30.87 -1.21, 37.34 -0.66" stroke="#000000" stroke-width="1" fill="none"></path></g><g transform="translate(766.8105880511673 541.3177677756323) rotate(0 18.01521739722557 -0.00633337260751432)"><path d="M19.84 3.2 C24.55 1.83, 27.94 0.78, 37.49 -1.68 M19.48 4.79 C24.23 3.8, 28.09 2.71, 38.2 0.1" stroke="#000000" stroke-width="1" fill="none"></path></g><g transform="translate(766.8105880511673 541.3177677756323) rotate(0 18.01521739722557 -0.00633337260751432)"><path d="M20.35 -9.2 C24.96 -7.63, 28.22 -5.74, 37.49 -1.68 M19.99 -7.62 C24.56 -5.55, 28.3 -3.6, 38.2 0.1" stroke="#000000" stroke-width="1" fill="none"></path></g></g><mask></mask><g stroke-linecap="round"><g transform="translate(802.8388464539805 606.9764113561779) rotate(0 -18.33613146445839 -0.06119664328963381)"><path d="M-0.14 -1.08 C-6.12 -1.15, -29.72 -0.48, -35.73 -0.32 M-1.67 0.96 C-7.8 0.99, -30.63 0.68, -36.54 0.63" stroke="#000000" stroke-width="1" fill="none"></path></g><g transform="translate(802.8388464539805 606.9764113561779) rotate(0 -18.33613146445839 -0.06119664328963381)"><path d="M-21.17 -4.93 C-26.57 -3.79, -31.68 -1.45, -37.55 -0.35 M-19.6 -5.43 C-23.37 -4.39, -27.45 -1.55, -35.77 0.44" stroke="#000000" stroke-width="1" fill="none"></path></g><g transform="translate(802.8388464539805 606.9764113561779) rotate(0 -18.33613146445839 -0.06119664328963381)"><path d="M-21.31 7.39 C-26.68 4.65, -31.74 3.1, -37.55 -0.35 M-19.74 6.89 C-23.58 4.78, -27.63 4.48, -35.77 0.44" stroke="#000000" stroke-width="1" fill="none"></path></g></g><mask></mask><g transform="translate(654.6023589295228 146.0892435709634) rotate(0 184.28753212932895 133.03256225585938)"><text x="0" y="10.669767833891367" font-family="Cascadia, Segoe UI Emoji" font-size="10.443831339182228px" fill="#000000" text-anchor="start" style="white-space: pre;" direction="ltr">istio_requests_total{</text><text x="0" y="23.339535667782734" font-family="Cascadia, Segoe UI Emoji" font-size="10.443831339182228px" fill="#000000" text-anchor="start" style="white-space: pre;" direction="ltr">    reporter="destination",</text><text x="0" y="36.0093035016741" font-family="Cascadia, Segoe UI Emoji" font-size="10.443831339182228px" fill="#000000" text-anchor="start" style="white-space: pre;" direction="ltr">    response_code="200",</text><text x="0" y="48.67907133556547" font-family="Cascadia, Segoe UI Emoji" font-size="10.443831339182228px" fill="#000000" text-anchor="start" style="white-space: pre;" direction="ltr">    source_cluster="Kubernetes",</text><text x="0" y="61.34883916945684" font-family="Cascadia, Segoe UI Emoji" font-size="10.443831339182228px" fill="#000000" text-anchor="start" style="white-space: pre;" direction="ltr">    source_workload_namespace="default",</text><text x="0" y="74.0186070033482" font-family="Cascadia, Segoe UI Emoji" font-size="10.443831339182228px" fill="#000000" text-anchor="start" style="white-space: pre;" direction="ltr">    source_workload="reviews-v3",</text><text x="0" y="86.68837483723956" font-family="Cascadia, Segoe UI Emoji" font-size="10.443831339182228px" fill="#000000" text-anchor="start" style="white-space: pre;" direction="ltr">    source_app="reviews",</text><text x="0" y="99.35814267113093" font-family="Cascadia, Segoe UI Emoji" font-size="10.443831339182228px" fill="#000000" text-anchor="start" style="white-space: pre;" direction="ltr">    source_version="v3",</text><text x="0" y="112.0279105050223" font-family="Cascadia, Segoe UI Emoji" font-size="10.443831339182228px" fill="#000000" text-anchor="start" style="white-space: pre;" direction="ltr">    source_canonical_service="reviews",</text><text x="0" y="124.69767833891368" font-family="Cascadia, Segoe UI Emoji" font-size="10.443831339182228px" fill="#000000" text-anchor="start" style="white-space: pre;" direction="ltr">    source_canonical_revision="v3",</text><text x="0" y="137.36744617280505" font-family="Cascadia, Segoe UI Emoji" font-size="10.443831339182228px" fill="#000000" text-anchor="start" style="white-space: pre;" direction="ltr">    destination_cluster="Kubernetes",</text><text x="0" y="150.0372140066964" font-family="Cascadia, Segoe UI Emoji" font-size="10.443831339182228px" fill="#000000" text-anchor="start" style="white-space: pre;" direction="ltr">    destination_service="ratings.default.svc.cluster.local",</text><text x="0" y="162.70698184058776" font-family="Cascadia, Segoe UI Emoji" font-size="10.443831339182228px" fill="#000000" text-anchor="start" style="white-space: pre;" direction="ltr">    destination_service_name="ratings",</text><text x="0" y="175.37674967447913" font-family="Cascadia, Segoe UI Emoji" font-size="10.443831339182228px" fill="#000000" text-anchor="start" style="white-space: pre;" direction="ltr">    destination_service_namespace="default",</text><text x="0" y="188.0465175083705" font-family="Cascadia, Segoe UI Emoji" font-size="10.443831339182228px" fill="#000000" text-anchor="start" style="white-space: pre;" direction="ltr">    destination_workload_namespace="default",</text><text x="0" y="200.71628534226187" font-family="Cascadia, Segoe UI Emoji" font-size="10.443831339182228px" fill="#000000" text-anchor="start" style="white-space: pre;" direction="ltr">    destination_workload="ratings-v1",</text><text x="0" y="213.38605317615324" font-family="Cascadia, Segoe UI Emoji" font-size="10.443831339182228px" fill="#000000" text-anchor="start" style="white-space: pre;" direction="ltr">    destination_app="ratings",</text><text x="0" y="226.0558210100446" font-family="Cascadia, Segoe UI Emoji" font-size="10.443831339182228px" fill="#000000" text-anchor="start" style="white-space: pre;" direction="ltr">    destination_version="v1",</text><text x="0" y="238.72558884393598" font-family="Cascadia, Segoe UI Emoji" font-size="10.443831339182228px" fill="#000000" text-anchor="start" style="white-space: pre;" direction="ltr">    destination_canonical_service="ratings",</text><text x="0" y="251.39535667782735" font-family="Cascadia, Segoe UI Emoji" font-size="10.443831339182228px" fill="#000000" text-anchor="start" style="white-space: pre;" direction="ltr">    destination_canonical_revision="v1"</text><text x="0" y="264.0651245117187" font-family="Cascadia, Segoe UI Emoji" font-size="10.443831339182228px" fill="#000000" text-anchor="start" style="white-space: pre;" direction="ltr">} 12</text></g></svg>