<svg xmlns:xlink="http://www.w3.org/1999/xlink" width="43.977ex" height="6.009ex" style="font-size: 15px; vertical-align: -2.505ex;" viewBox="0 -1508.9 18934.4 2587.3" role="img" focusable="false" xmlns="http://www.w3.org/2000/svg">
<defs>
<path stroke-width="1" id="E1-MJMAIN-2202" d="M202 508Q179 508 169 520T158 547Q158 557 164 577T185 624T230 675T301 710L333 715H345Q378 715 384 714Q447 703 489 661T549 568T566 457Q566 362 519 240T402 53Q321 -22 223 -22Q123 -22 73 56Q42 102 42 148V159Q42 276 129 370T322 465Q383 465 414 434T455 367L458 378Q478 461 478 515Q478 603 437 639T344 676Q266 676 223 612Q264 606 264 572Q264 547 246 528T202 508ZM430 306Q430 372 401 400T333 428Q270 428 222 382Q197 354 183 323T150 221Q132 149 132 116Q132 21 232 21Q244 21 250 22Q327 35 374 112Q389 137 409 196T430 306Z"></path>
<path stroke-width="1" id="E1-MJMATHI-4C" d="M228 637Q194 637 192 641Q191 643 191 649Q191 673 202 682Q204 683 217 683Q271 680 344 680Q485 680 506 683H518Q524 677 524 674T522 656Q517 641 513 637H475Q406 636 394 628Q387 624 380 600T313 336Q297 271 279 198T252 88L243 52Q243 48 252 48T311 46H328Q360 46 379 47T428 54T478 72T522 106T564 161Q580 191 594 228T611 270Q616 273 628 273H641Q647 264 647 262T627 203T583 83T557 9Q555 4 553 3T537 0T494 -1Q483 -1 418 -1T294 0H116Q32 0 32 10Q32 17 34 24Q39 43 44 45Q48 46 59 46H65Q92 46 125 49Q139 52 144 61Q147 65 216 339T285 628Q285 635 228 637Z"></path>
<path stroke-width="1" id="E1-MJMATHI-78" d="M52 289Q59 331 106 386T222 442Q257 442 286 424T329 379Q371 442 430 442Q467 442 494 420T522 361Q522 332 508 314T481 292T458 288Q439 288 427 299T415 328Q415 374 465 391Q454 404 425 404Q412 404 406 402Q368 386 350 336Q290 115 290 78Q290 50 306 38T341 26Q378 26 414 59T463 140Q466 150 469 151T485 153H489Q504 153 504 145Q504 144 502 134Q486 77 440 33T333 -11Q263 -11 227 52Q186 -10 133 -10H127Q78 -10 57 16T35 71Q35 103 54 123T99 143Q142 143 142 101Q142 81 130 66T107 46T94 41L91 40Q91 39 97 36T113 29T132 26Q168 26 194 71Q203 87 217 139T245 247T261 313Q266 340 266 352Q266 380 251 392T217 404Q177 404 142 372T93 290Q91 281 88 280T72 278H58Q52 284 52 289Z"></path>
<path stroke-width="1" id="E1-MJMAIN-3D" d="M56 347Q56 360 70 367H707Q722 359 722 347Q722 336 708 328L390 327H72Q56 332 56 347ZM56 153Q56 168 72 173H708Q722 163 722 153Q722 140 707 133H70Q56 140 56 153Z"></path>
<path stroke-width="1" id="E1-MJMATHI-64" d="M366 683Q367 683 438 688T511 694Q523 694 523 686Q523 679 450 384T375 83T374 68Q374 26 402 26Q411 27 422 35Q443 55 463 131Q469 151 473 152Q475 153 483 153H487H491Q506 153 506 145Q506 140 503 129Q490 79 473 48T445 8T417 -8Q409 -10 393 -10Q359 -10 336 5T306 36L300 51Q299 52 296 50Q294 48 292 46Q233 -10 172 -10Q117 -10 75 30T33 157Q33 205 53 255T101 341Q148 398 195 420T280 442Q336 442 364 400Q369 394 369 396Q370 400 396 505T424 616Q424 629 417 632T378 637H357Q351 643 351 645T353 664Q358 683 366 683ZM352 326Q329 405 277 405Q242 405 210 374T160 293Q131 214 119 129Q119 126 119 118T118 106Q118 61 136 44T179 26Q233 26 290 98L298 109L352 326Z"></path>
<path stroke-width="1" id="E1-MJMATHI-74" d="M26 385Q19 392 19 395Q19 399 22 411T27 425Q29 430 36 430T87 431H140L159 511Q162 522 166 540T173 566T179 586T187 603T197 615T211 624T229 626Q247 625 254 615T261 596Q261 589 252 549T232 470L222 433Q222 431 272 431H323Q330 424 330 420Q330 398 317 385H210L174 240Q135 80 135 68Q135 26 162 26Q197 26 230 60T283 144Q285 150 288 151T303 153H307Q322 153 322 145Q322 142 319 133Q314 117 301 95T267 48T216 6T155 -11Q125 -11 98 4T59 56Q57 64 57 83V101L92 241Q127 382 128 383Q128 385 77 385H26Z"></path>
<path stroke-width="1" id="E1-MJMATHI-6D" d="M21 287Q22 293 24 303T36 341T56 388T88 425T132 442T175 435T205 417T221 395T229 376L231 369Q231 367 232 367L243 378Q303 442 384 442Q401 442 415 440T441 433T460 423T475 411T485 398T493 385T497 373T500 364T502 357L510 367Q573 442 659 442Q713 442 746 415T780 336Q780 285 742 178T704 50Q705 36 709 31T724 26Q752 26 776 56T815 138Q818 149 821 151T837 153Q857 153 857 145Q857 144 853 130Q845 101 831 73T785 17T716 -10Q669 -10 648 17T627 73Q627 92 663 193T700 345Q700 404 656 404H651Q565 404 506 303L499 291L466 157Q433 26 428 16Q415 -11 385 -11Q372 -11 364 -4T353 8T350 18Q350 29 384 161L420 307Q423 322 423 345Q423 404 379 404H374Q288 404 229 303L222 291L189 157Q156 26 151 16Q138 -11 108 -11Q95 -11 87 -5T76 7T74 17Q74 30 112 181Q151 335 151 342Q154 357 154 369Q154 405 129 405Q107 405 92 377T69 316T57 280Q55 278 41 278H27Q21 284 21 287Z"></path>
<path stroke-width="1" id="E1-MJMATHI-76" d="M173 380Q173 405 154 405Q130 405 104 376T61 287Q60 286 59 284T58 281T56 279T53 278T49 278T41 278H27Q21 284 21 287Q21 294 29 316T53 368T97 419T160 441Q202 441 225 417T249 361Q249 344 246 335Q246 329 231 291T200 202T182 113Q182 86 187 69Q200 26 250 26Q287 26 319 60T369 139T398 222T409 277Q409 300 401 317T383 343T365 361T357 383Q357 405 376 424T417 443Q436 443 451 425T467 367Q467 340 455 284T418 159T347 40T241 -11Q177 -11 139 22Q102 54 102 117Q102 148 110 181T151 298Q173 362 173 380Z"></path>
<path stroke-width="1" id="E1-MJMAIN-2C" d="M78 35T78 60T94 103T137 121Q165 121 187 96T210 8Q210 -27 201 -60T180 -117T154 -158T130 -185T117 -194Q113 -194 104 -185T95 -172Q95 -168 106 -156T131 -126T157 -76T173 -3V9L172 8Q170 7 167 6T161 3T152 1T140 0Q113 0 96 17Z"></path>
<path stroke-width="1" id="E1-MJMATHI-79" d="M21 287Q21 301 36 335T84 406T158 442Q199 442 224 419T250 355Q248 336 247 334Q247 331 231 288T198 191T182 105Q182 62 196 45T238 27Q261 27 281 38T312 61T339 94Q339 95 344 114T358 173T377 247Q415 397 419 404Q432 431 462 431Q475 431 483 424T494 412T496 403Q496 390 447 193T391 -23Q363 -106 294 -155T156 -205Q111 -205 77 -183T43 -117Q43 -95 50 -80T69 -58T89 -48T106 -45Q150 -45 150 -87Q150 -107 138 -122T115 -142T102 -147L99 -148Q101 -153 118 -160T152 -167H160Q177 -167 186 -165Q219 -156 247 -127T290 -65T313 -9T321 21L315 17Q309 13 296 6T270 -6Q250 -11 231 -11Q185 -11 150 11T104 82Q103 89 103 113Q103 170 138 262T173 379Q173 380 173 381Q173 390 173 393T169 400T158 404H154Q131 404 112 385T82 344T65 302T57 280Q55 278 41 278H27Q21 284 21 287Z"></path>
<path stroke-width="1" id="E1-MJMATHI-7A" d="M347 338Q337 338 294 349T231 360Q211 360 197 356T174 346T162 335T155 324L153 320Q150 317 138 317Q117 317 117 325Q117 330 120 339Q133 378 163 406T229 440Q241 442 246 442Q271 442 291 425T329 392T367 375Q389 375 411 408T434 441Q435 442 449 442H462Q468 436 468 434Q468 430 463 420T449 399T432 377T418 358L411 349Q368 298 275 214T160 106L148 94L163 93Q185 93 227 82T290 71Q328 71 360 90T402 140Q406 149 409 151T424 153Q443 153 443 143Q443 138 442 134Q425 72 376 31T278 -11Q252 -11 232 6T193 40T155 57Q111 57 76 -3Q70 -11 59 -11H54H41Q35 -5 35 -2Q35 13 93 84Q132 129 225 214T340 322Q352 338 347 338Z"></path>
</defs>
<g stroke="currentColor" fill="currentColor" stroke-width="0" transform="matrix(1 0 0 -1 0 0)">
<g transform="translate(120,0)">
<rect stroke="none" width="1369" height="60" x="0" y="220"></rect>
<g transform="translate(60,676)">
 <use xlink:href="#E1-MJMAIN-2202" x="0" y="0"></use>
 <use xlink:href="#E1-MJMATHI-4C" x="567" y="0"></use>
</g>
<g transform="translate(114,-736)">
 <use xlink:href="#E1-MJMAIN-2202" x="0" y="0"></use>
 <use xlink:href="#E1-MJMATHI-78" x="567" y="0"></use>
</g>
</g>
 <use xlink:href="#E1-MJMAIN-3D" x="1886" y="0"></use>
<g transform="translate(2665,0)">
<g transform="translate(397,0)">
<rect stroke="none" width="1005" height="60" x="0" y="220"></rect>
 <use xlink:href="#E1-MJMATHI-64" x="240" y="676"></use>
<g transform="translate(60,-715)">
 <use xlink:href="#E1-MJMATHI-64" x="0" y="0"></use>
 <use xlink:href="#E1-MJMATHI-74" x="523" y="0"></use>
</g>
</g>
</g>
 <use xlink:href="#E1-MJMATHI-6D" x="4188" y="0"></use>
<g transform="translate(5066,0)">
 <use xlink:href="#E1-MJMATHI-76" x="0" y="0"></use>
 <use transform="scale(0.707)" xlink:href="#E1-MJMATHI-78" x="686" y="-213"></use>
</g>
 <use xlink:href="#E1-MJMAIN-2C" x="6056" y="0"></use>
<g transform="translate(6335,0)">
<g transform="translate(286,0)">
<rect stroke="none" width="1369" height="60" x="0" y="220"></rect>
<g transform="translate(60,676)">
 <use xlink:href="#E1-MJMAIN-2202" x="0" y="0"></use>
 <use xlink:href="#E1-MJMATHI-4C" x="567" y="0"></use>
</g>
<g transform="translate(152,-736)">
 <use xlink:href="#E1-MJMAIN-2202" x="0" y="0"></use>
 <use xlink:href="#E1-MJMATHI-79" x="567" y="0"></use>
</g>
</g>
</g>
 <use xlink:href="#E1-MJMAIN-3D" x="8388" y="0"></use>
<g transform="translate(9167,0)">
<g transform="translate(397,0)">
<rect stroke="none" width="1005" height="60" x="0" y="220"></rect>
 <use xlink:href="#E1-MJMATHI-64" x="240" y="676"></use>
<g transform="translate(60,-715)">
 <use xlink:href="#E1-MJMATHI-64" x="0" y="0"></use>
 <use xlink:href="#E1-MJMATHI-74" x="523" y="0"></use>
</g>
</g>
</g>
 <use xlink:href="#E1-MJMATHI-6D" x="10690" y="0"></use>
<g transform="translate(11568,0)">
 <use xlink:href="#E1-MJMATHI-76" x="0" y="0"></use>
 <use transform="scale(0.707)" xlink:href="#E1-MJMATHI-79" x="686" y="-213"></use>
</g>
 <use xlink:href="#E1-MJMAIN-2C" x="12505" y="0"></use>
<g transform="translate(12784,0)">
<g transform="translate(286,0)">
<rect stroke="none" width="1369" height="60" x="0" y="220"></rect>
<g transform="translate(60,676)">
 <use xlink:href="#E1-MJMAIN-2202" x="0" y="0"></use>
 <use xlink:href="#E1-MJMATHI-4C" x="567" y="0"></use>
</g>
<g transform="translate(166,-736)">
 <use xlink:href="#E1-MJMAIN-2202" x="0" y="0"></use>
 <use xlink:href="#E1-MJMATHI-7A" x="567" y="0"></use>
</g>
</g>
</g>
 <use xlink:href="#E1-MJMAIN-3D" x="14837" y="0"></use>
<g transform="translate(15616,0)">
<g transform="translate(397,0)">
<rect stroke="none" width="1005" height="60" x="0" y="220"></rect>
 <use xlink:href="#E1-MJMATHI-64" x="240" y="676"></use>
<g transform="translate(60,-715)">
 <use xlink:href="#E1-MJMATHI-64" x="0" y="0"></use>
 <use xlink:href="#E1-MJMATHI-74" x="523" y="0"></use>
</g>
</g>
</g>
 <use xlink:href="#E1-MJMATHI-6D" x="17139" y="0"></use>
<g transform="translate(18017,0)">
 <use xlink:href="#E1-MJMATHI-76" x="0" y="0"></use>
 <use transform="scale(0.707)" xlink:href="#E1-MJMATHI-7A" x="686" y="-213"></use>
</g>
</g>
</svg>