<svg version="1.1" xmlns="http://www.w3.org/2000/svg" viewBox="0 0 1114.7436286222426 346.41005452164154" width="2229.487257244485" height="692.8201090432831">
  <!-- svg-source:excalidraw -->
  
  <defs>
    <style class="style-fonts">
      @font-face {
        font-family: "Virgil";
        src: url("https://excalidraw.com/Virgil.woff2");
      }
      @font-face {
        font-family: "Cascadia";
        src: url("https://excalidraw.com/Cascadia.woff2");
      }
      @font-face {
        font-family: "Assistant";
        src: url("https://excalidraw.com/Assistant-Regular.woff2");
      }
    </style>
    
  </defs>
  <rect x="0" y="0" width="1114.7436286222426" height="346.41005452164154" fill="#ffffff"></rect><g stroke-linecap="round"><g stroke-opacity="0.5" fill-opacity="0.5" transform="translate(653.694838633137 217.0200323206518) rotate(0 62.76400502691234 1.2478963449070761)"><path d="M0.23 1.07 C21.24 1.3, 104.76 1.47, 125.63 1.56 M-1.11 0.59 C19.79 0.92, 103.77 2.29, 124.74 2.61" stroke="#000000" stroke-width="1" fill="none"></path></g><g stroke-opacity="0.5" fill-opacity="0.5" transform="translate(653.694838633137 217.0200323206518) rotate(0 62.76400502691234 1.2478963449070761)"><path d="M124.42 1.29 L110.63 7.52 L109.56 -2.58 L124.53 2.72" stroke="none" stroke-width="0" fill="#000000" fill-rule="evenodd"></path><path d="M124.74 2.61 C122.46 4.39, 116.33 5.8, 111.04 8.73 M124.74 2.61 C121.06 3.74, 118.29 4.97, 111.04 8.73 M111.04 8.73 C111.43 5.42, 111.94 0.66, 111.24 -3.94 M111.04 8.73 C110.54 4.52, 110.73 0.33, 111.24 -3.94 M111.24 -3.94 C116.06 -0.59, 121.45 -0.44, 124.74 2.61 M111.24 -3.94 C114.63 -2.98, 117.08 -1.1, 124.74 2.61 M124.74 2.61 C124.74 2.61, 124.74 2.61, 124.74 2.61 M124.74 2.61 C124.74 2.61, 124.74 2.61, 124.74 2.61" stroke="#000000" stroke-width="1" fill="none"></path></g></g><mask></mask><g stroke-opacity="0.4" fill-opacity="0.4" stroke-linecap="round" transform="translate(273.2450146473518 124.9140469549775) rotate(0 74.13034789048439 74.13034789048447)"><path d="M12.52 62.56 C12.52 62.56, 12.52 62.56, 12.52 62.56 M12.52 62.56 C12.52 62.56, 12.52 62.56, 12.52 62.56 M5.7 76.51 C16.89 64.91, 25.81 50.67, 52.94 22.17 M5.7 76.51 C21.19 58.05, 38.51 37.66, 52.94 22.17 M7.41 80.64 C27.92 57.51, 46 35.37, 72.36 5.92 M7.41 80.64 C25.16 59.41, 43.85 37.92, 72.36 5.92 M9.77 84.02 C26.21 65.7, 41.95 44.77, 77.34 6.28 M9.77 84.02 C35.35 55.07, 62.23 25.73, 77.34 6.28 M12.13 87.4 C29.31 67.72, 45.81 47.13, 81.02 8.15 M12.13 87.4 C30.05 66.2, 48.32 45.06, 81.02 8.15 M15.15 90.02 C34.34 69, 51.17 48.25, 84.04 10.78 M15.15 90.02 C43.01 59.55, 69.31 28.53, 84.04 10.78 M18.17 92.65 C33.78 71.67, 55.09 50.44, 87.06 13.4 M18.17 92.65 C42.49 66.21, 67.76 38.15, 87.06 13.4 M20.53 96.03 C36.97 75.25, 56.84 53.3, 90.08 16.03 M20.53 96.03 C48.58 63.58, 76.3 32.9, 90.08 16.03 M23.55 98.65 C39.43 81.18, 55.43 58.34, 93.09 18.65 M23.55 98.65 C38.57 82.53, 52.6 67.03, 93.09 18.65 M26.57 101.27 C51.32 70.1, 76.38 40.87, 96.11 21.27 M26.57 101.27 C48.07 76.24, 71.15 50.69, 96.11 21.27 M29.59 103.9 C45.93 85.92, 64.37 62.57, 99.13 23.9 M29.59 103.9 C56.18 75.15, 81.34 45.28, 99.13 23.9 M32.61 106.52 C58.59 77.16, 86.89 44.76, 101.5 27.28 M32.61 106.52 C51.66 84.13, 73.11 59.74, 101.5 27.28 M34.97 109.9 C56.23 85.46, 80.31 59.08, 104.51 29.9 M34.97 109.9 C61.04 79.53, 85.15 51.76, 104.51 29.9 M37.99 112.53 C63.04 83.21, 91.81 51.9, 107.53 32.53 M37.99 112.53 C52.37 95.78, 65.06 79.88, 107.53 32.53 M41.01 115.15 C67.11 85.79, 93.21 53.58, 109.9 35.91 M41.01 115.15 C67.56 84.46, 93.76 51.83, 109.9 35.91 M44.03 117.77 C69.23 88.34, 98.78 55.4, 112.91 38.53 M44.03 117.77 C66.69 91.29, 88.89 64.72, 112.91 38.53 M47.05 120.4 C73.15 91.29, 100.72 60.18, 115.93 41.15 M47.05 120.4 C62.46 103.25, 77.93 86.98, 115.93 41.15 M50.07 123.02 C71.73 98.72, 89.78 79.44, 118.3 44.53 M50.07 123.02 C70.95 100.12, 90.06 76.42, 118.3 44.53 M52.43 126.4 C80.88 95.84, 103.73 66.22, 121.31 47.16 M52.43 126.4 C70.7 104.21, 91.82 81.65, 121.31 47.16 M55.45 129.03 C78.8 106.7, 97.24 82.07, 123.68 50.54 M55.45 129.03 C79.4 101.65, 104.41 72.1, 123.68 50.54 M58.47 131.65 C87.38 100.25, 114.78 68.91, 126.7 53.16 M58.47 131.65 C86.28 100.51, 112.95 69.32, 126.7 53.16 M61.49 134.27 C83.47 106.73, 107.06 82.32, 129.72 55.78 M61.49 134.27 C79.63 114.25, 95.52 94.5, 129.72 55.78 M64.5 136.9 C91.23 107.69, 114.63 77.99, 132.08 59.16 M64.5 136.9 C81.75 116.82, 98.9 96.69, 132.08 59.16 M67.52 139.52 C80.23 123.54, 96.42 108.22, 135.1 61.79 M67.52 139.52 C92.74 111.03, 118.46 80.67, 135.1 61.79 M71.2 141.39 C92.67 120.84, 110.7 97.73, 138.12 64.41 M71.2 141.39 C92.54 117.36, 114.03 92.18, 138.12 64.41 M74.87 143.26 C88.2 129.98, 98.84 111.6, 139.82 68.55 M74.87 143.26 C89.37 124.47, 105.73 106.14, 139.82 68.55 M83.14 139.85 C103.19 114.94, 128.1 87.9, 142.19 71.92 M83.14 139.85 C101.12 118.75, 121.64 96.5, 142.19 71.92 M115.03 109.27 C125.82 98.13, 134.94 84.05, 144.55 75.3 M115.03 109.27 C125.88 96.1, 137.67 82.86, 144.55 75.3" stroke="#fd7e14" stroke-width="0.5" fill="none"></path><path d="M93.75 18.75 C103.95 30.59, 115.52 42.94, 129.51 56.25 M93.75 18.75 C104.52 30.04, 116.38 43.33, 129.51 56.25 M129.51 56.25 C147.78 75.68, 149.87 76.37, 129.51 93.75 M129.51 56.25 C149.35 76.21, 148.56 75.32, 129.51 93.75 M129.51 93.75 C123.75 102.34, 115.45 107.73, 93.75 129.51 M129.51 93.75 C118.36 103.4, 109.22 114.12, 93.75 129.51 M93.75 129.51 C76.55 146.98, 75.7 148.39, 56.25 129.51 M93.75 129.51 C75.72 149.48, 75.16 146.38, 56.25 129.51 M56.25 129.51 C46.1 120.8, 36.51 107.53, 18.75 93.75 M56.25 129.51 C41.99 115.8, 27.98 102.54, 18.75 93.75 M18.75 93.75 C-1.69 76.36, -0.21 75.11, 18.75 56.25 M18.75 93.75 C1.37 75.87, 2.24 76.07, 18.75 56.25 M18.75 56.25 C27.58 46.59, 37.77 36.86, 56.25 18.75 M18.75 56.25 C30.51 44.87, 41.94 31.42, 56.25 18.75 M56.25 18.75 C74.04 1.95, 75.74 1.2, 93.75 18.75 M56.25 18.75 C76.5 1.59, 74.25 -0.73, 93.75 18.75" stroke="#d9480f" stroke-width="1" fill="none"></path></g><g stroke-linecap="round"><g stroke-opacity="0.5" fill-opacity="0.5" transform="translate(427.55041663517886 216.62312571012626) rotate(0 70.83249010175626 0.19419123407874395)"><path d="M0 0 C42.3 0.48, 87.69 -1.12, 141.66 0.39 M0 0 C37.34 1.87, 73.59 1.44, 141.66 0.39" stroke="#000000" stroke-width="1" fill="none"></path></g><g stroke-opacity="0.5" fill-opacity="0.5" transform="translate(427.55041663517886 216.62312571012626) rotate(0 70.83249010175626 0.19419123407874395)"><path d="M139.98 1.75 L127.95 7.03 L129.18 -5.01 L143.61 1.32" stroke="none" stroke-width="0" fill="#000000" fill-rule="evenodd"></path><path d="M141.66 0.39 C136.4 2.61, 133.49 3.34, 128.16 6.91 M141.66 0.39 C138.45 2.66, 134.43 3.96, 128.16 6.91 M128.16 6.91 C128.67 2.25, 128.11 -3.85, 127.98 -5.76 M128.16 6.91 C128.58 2.9, 127.82 -1.78, 127.98 -5.76 M127.98 -5.76 C131.52 -2.7, 136.81 -0.04, 141.66 0.39 M127.98 -5.76 C131.47 -3.93, 134.51 -3.48, 141.66 0.39 M141.66 0.39 C141.66 0.39, 141.66 0.39, 141.66 0.39 M141.66 0.39 C141.66 0.39, 141.66 0.39, 141.66 0.39" stroke="#000000" stroke-width="1" fill="none"></path></g></g><mask></mask><g stroke-linecap="round" transform="translate(780.4239658402245 165.105745767014) rotate(0 30.945145062371466 47.32646614261739)"><path d="M-0.21 0.11 L63.08 0.75 L63.83 95.58 L-1.17 94.82" stroke="none" stroke-width="0" fill="#ced4da"></path><path d="M0 0 C18.54 -1.52, 35.72 -0.49, 61.89 0 M0 0 C14.39 -0.2, 30.07 0.14, 61.89 0 M61.89 0 C62.66 31.14, 63.21 64.42, 61.89 94.65 M61.89 0 C62 36.32, 63.09 73.05, 61.89 94.65 M61.89 94.65 C47.27 96.5, 34.23 95.65, 0 94.65 M61.89 94.65 C42.98 94.16, 23.77 94.73, 0 94.65 M0 94.65 C1.28 62.44, 1.25 34.52, 0 0 M0 94.65 C-0.05 58.99, -0.69 25.23, 0 0" stroke="#000000" stroke-width="1" fill="none"></path></g><g stroke-linecap="round" transform="translate(787.5097236911689 172.3221398201399) rotate(0 24.38381619614023 36.196010493402355)"><path d="M1.19 0.75 L50.71 0.93 L47.6 72.56 L-0.96 72.2" stroke="none" stroke-width="0" fill="#fff"></path><path d="M0 0 C14.54 -0.06, 29.38 1.19, 48.77 0 M0 0 C19.69 0.52, 38.25 0.36, 48.77 0 M48.77 0 C49.69 21.3, 50.56 46.57, 48.77 72.39 M48.77 0 C49.03 25.53, 47.55 49.58, 48.77 72.39 M48.77 72.39 C30.5 73.47, 14.93 73.4, 0 72.39 M48.77 72.39 C31.4 71.75, 14.57 72.2, 0 72.39 M0 72.39 C0.91 46.55, 0.87 18.78, 0 0 M0 72.39 C-0.69 56.13, 0.05 38.56, 0 0" stroke="#000000" stroke-width="1" fill="none"></path></g><g stroke-linecap="round" transform="translate(806.8998454472398 247.81223412195777) rotate(0 4.993694440069305 4.993694440069248)"><path d="M4.75 -0.23 C5.77 -0.3, 7.09 0.55, 7.94 1.23 C8.8 1.9, 9.61 2.83, 9.9 3.81 C10.19 4.78, 10.22 6.13, 9.7 7.06 C9.17 7.98, 7.7 8.9, 6.74 9.37 C5.79 9.85, 4.93 10.15, 3.99 9.93 C3.05 9.71, 1.7 8.96, 1.08 8.04 C0.46 7.13, 0.2 5.5, 0.25 4.41 C0.3 3.33, 0.67 2.24, 1.38 1.53 C2.1 0.81, 4.03 0.39, 4.54 0.12 C5.05 -0.16, 4.46 -0.18, 4.44 -0.13 M4.8 -0.24 C5.86 -0.09, 7.72 1.06, 8.58 1.77 C9.45 2.49, 9.86 3.01, 9.98 4.04 C10.1 5.07, 9.86 6.97, 9.31 7.95 C8.75 8.94, 7.71 9.74, 6.63 9.95 C5.55 10.15, 3.8 9.59, 2.83 9.2 C1.85 8.8, 1.27 8.5, 0.78 7.55 C0.28 6.59, -0.37 4.56, -0.14 3.47 C0.1 2.37, 1.37 1.57, 2.19 0.99 C3.02 0.42, 4.22 0.2, 4.8 0 C5.38 -0.21, 5.51 -0.26, 5.66 -0.23" stroke="none" stroke-width="0" fill="#fff"></path><path d="M5.46 0.28 C6.46 0.33, 7.91 0.86, 8.69 1.56 C9.47 2.27, 10.05 3.53, 10.14 4.52 C10.22 5.51, 9.78 6.65, 9.18 7.5 C8.57 8.34, 7.5 9.19, 6.51 9.57 C5.52 9.94, 4.22 10.19, 3.24 9.76 C2.27 9.34, 1.19 7.98, 0.67 7.02 C0.15 6.06, -0.12 5.05, 0.13 3.99 C0.37 2.93, 1.32 1.3, 2.15 0.66 C2.98 0.03, 4.58 0.23, 5.1 0.18 C5.61 0.13, 5.22 0.31, 5.23 0.38 M5.08 -0.41 C6.06 -0.53, 7.34 0.3, 8.17 1.08 C8.99 1.86, 9.79 3.15, 10.03 4.28 C10.27 5.42, 10.27 6.94, 9.63 7.91 C8.99 8.87, 7.24 9.71, 6.21 10.07 C5.18 10.42, 4.38 10.51, 3.43 10.02 C2.49 9.53, 1.14 8.15, 0.56 7.11 C-0.01 6.07, -0.16 4.71, -0.02 3.77 C0.12 2.83, 0.57 2.1, 1.41 1.47 C2.24 0.85, 4.34 0.23, 5 0.03 C5.65 -0.17, 5.26 0.17, 5.35 0.29" stroke="#000000" stroke-width="1" fill="none"></path></g><g stroke-linecap="round" transform="translate(794.7457896110733 181.53724438233712) rotate(0 17.147750276235968 8.691233616739055)"><path d="M0 0 C0 0, 0 0, 0 0 M0 0 C0 0, 0 0, 0 0 M-0.26 6.4 C1.27 5.13, 2.63 3.21, 4.99 0.36 M-0.26 6.4 C1.2 4.59, 2.4 2.98, 4.99 0.36 M0.13 12.04 C2.17 7.97, 5.43 5.71, 10.63 -0.03 M0.13 12.04 C4.24 7.65, 8.29 3.03, 10.63 -0.03 M0.53 17.68 C5.24 12.49, 7.87 8.79, 15.62 0.33 M0.53 17.68 C5.55 12.09, 10.19 6.84, 15.62 0.33 M5.51 18.04 C11.52 12.31, 15.9 6.17, 21.26 -0.07 M5.51 18.04 C10.77 11.65, 16.6 5.38, 21.26 -0.07 M11.16 17.65 C14.41 13.55, 18.38 9.5, 26.25 0.29 M11.16 17.65 C16.69 11.22, 22.92 4.08, 26.25 0.29 M16.14 18.01 C20.03 13.14, 22.62 9.76, 31.89 -0.1 M16.14 18.01 C19.3 14.42, 23.62 9.7, 31.89 -0.1 M21.79 17.61 C25.54 11.58, 30.74 7.55, 34.25 3.28 M21.79 17.61 C24.72 14.26, 27.11 10.79, 34.25 3.28 M26.77 17.98 C29.89 13.83, 33 11.35, 34.65 8.92 M26.77 17.98 C30.04 14.52, 32.64 11.04, 34.65 8.92 M32.42 17.58 C33.01 16.95, 33.6 16.22, 34.39 15.32 M32.42 17.58 C33.1 16.83, 33.7 16.14, 34.39 15.32 M-0.3 17.12 C-0.3 17.12, -0.3 17.12, -0.3 17.12 M-0.3 17.12 C-0.3 17.12, -0.3 17.12, -0.3 17.12 M6.09 17.38 C4.88 16.13, 3.1 15, 0.06 12.13 M6.09 17.38 C3.77 15.19, 1.32 13.48, 0.06 12.13 M12.49 17.64 C8.47 14.45, 5.72 11.57, -0.34 6.49 M12.49 17.64 C7.85 13.49, 3.18 9.74, -0.34 6.49 M18.13 17.25 C11.6 10.79, 2.98 5.69, 0.02 1.5 M18.13 17.25 C12 12, 6.24 7.41, 0.02 1.5 M24.53 17.51 C17.85 12.47, 11.75 5.08, 3.4 -0.86 M24.53 17.51 C18.89 12.5, 13.2 8.12, 3.4 -0.86 M30.17 17.11 C23.05 10.43, 15.61 3.31, 9.8 -0.6 M30.17 17.11 C25.53 13.77, 21.15 9.93, 9.8 -0.6 M34.31 15.41 C30.69 12.01, 25.65 8.49, 16.2 -0.34 M34.31 15.41 C30.16 12.17, 25.75 8.61, 16.2 -0.34 M34.67 10.42 C29.92 6.38, 24.62 1.86, 21.84 -0.73 M34.67 10.42 C32.12 7.64, 29.01 5.87, 21.84 -0.73 M34.27 4.78 C32.25 2.74, 30.53 1.23, 28.24 -0.47 M34.27 4.78 C31.95 2.87, 30 0.71, 28.24 -0.47" stroke="#fab005" stroke-width="0.5" fill="none"></path><path d="M0 0 C10.47 -0.31, 19.53 0.73, 34.3 0 M0 0 C12.7 -0.02, 24.83 0.12, 34.3 0 M34.3 0 C34.79 3.61, 34.31 8.58, 34.3 17.38 M34.3 0 C34.43 5.37, 34.56 11.09, 34.3 17.38 M34.3 17.38 C23.33 17.5, 10.49 17.28, 0 17.38 M34.3 17.38 C25.2 17.79, 14.99 17.78, 0 17.38 M0 17.38 C-0.63 11.29, -0.59 4.83, 0 0 M0 17.38 C0.27 11.15, 0.43 4.79, 0 0" stroke="#000000" stroke-width="1" fill="none"></path></g><g stroke-linecap="round" transform="translate(794.7457896110733 212.61307973607745) rotate(0 17.147750276235968 8.691233616739055)"><path d="M0 0 C0 0, 0 0, 0 0 M0 0 C0 0, 0 0, 0 0 M-0.26 6.4 C1.77 4.21, 3.13 2.42, 4.99 0.36 M-0.26 6.4 C0.95 4.67, 2.4 3.36, 4.99 0.36 M0.13 12.04 C2.78 8.91, 6.8 5.27, 10.63 -0.03 M0.13 12.04 C2.62 9.47, 4.64 6.36, 10.63 -0.03 M0.53 17.68 C5.04 11.98, 11.08 4.56, 15.62 0.33 M0.53 17.68 C5.39 12.23, 9.57 7.09, 15.62 0.33 M5.51 18.04 C9.98 12.8, 14.83 7.23, 21.26 -0.07 M5.51 18.04 C9.27 13.78, 12.93 8.86, 21.26 -0.07 M11.16 17.65 C16.51 11.66, 23.58 5.11, 26.25 0.29 M11.16 17.65 C14.82 13.43, 18.41 8.9, 26.25 0.29 M16.14 18.01 C20.01 12.78, 23.89 8.19, 31.89 -0.1 M16.14 18.01 C20.48 13.27, 24.32 8.5, 31.89 -0.1 M21.79 17.61 C26.9 12.09, 31.01 6.62, 34.25 3.28 M21.79 17.61 C24.52 13.76, 28.58 9.86, 34.25 3.28 M26.77 17.98 C29.52 15.36, 32.88 12.12, 34.65 8.92 M26.77 17.98 C28.61 15.66, 30.91 13.15, 34.65 8.92 M32.42 17.58 C33.27 16.62, 34.04 15.91, 34.39 15.32 M32.42 17.58 C32.87 17.1, 33.31 16.42, 34.39 15.32 M-0.3 17.12 C-0.3 17.12, -0.3 17.12, -0.3 17.12 M-0.3 17.12 C-0.3 17.12, -0.3 17.12, -0.3 17.12 M6.09 17.38 C4.11 15.9, 2.57 14.19, 0.06 12.13 M6.09 17.38 C4.47 16.2, 3.05 14.55, 0.06 12.13 M12.49 17.64 C8.57 14.04, 3.64 9.44, -0.34 6.49 M12.49 17.64 C7.57 13.48, 3.15 8.75, -0.34 6.49 M18.13 17.25 C11.84 13.47, 7.55 7.87, 0.02 1.5 M18.13 17.25 C12.05 12.35, 6.77 7.11, 0.02 1.5 M24.53 17.51 C17.65 10.24, 8.72 4.93, 3.4 -0.86 M24.53 17.51 C16.32 10.61, 9.05 3.39, 3.4 -0.86 M30.17 17.11 C26.6 13.04, 21.03 9.79, 9.8 -0.6 M30.17 17.11 C22.19 10.81, 14.26 3.56, 9.8 -0.6 M34.31 15.41 C27.26 9.9, 19.32 2.19, 16.2 -0.34 M34.31 15.41 C27.04 9.77, 20.88 3.09, 16.2 -0.34 M34.67 10.42 C30.32 6.86, 25.41 2.99, 21.84 -0.73 M34.67 10.42 C29.55 6.25, 24.68 1.86, 21.84 -0.73 M34.27 4.78 C33.05 3.41, 31.93 2.66, 28.24 -0.47 M34.27 4.78 C32.77 3.1, 30.92 1.91, 28.24 -0.47" stroke="#fab005" stroke-width="0.5" fill="none"></path><path d="M0 0 C12.07 0.85, 24.15 0.52, 34.3 0 M0 0 C11.66 0.18, 23.85 0.4, 34.3 0 M34.3 0 C34.28 6.82, 34.57 11.83, 34.3 17.38 M34.3 0 C34.67 3.29, 34.49 7.17, 34.3 17.38 M34.3 17.38 C22.11 17.23, 11.31 17.61, 0 17.38 M34.3 17.38 C22.87 17.87, 12.51 17.86, 0 17.38 M0 17.38 C-0.47 11.71, 0.65 7.42, 0 0 M0 17.38 C0.37 12.27, -0.31 6.79, 0 0" stroke="#000000" stroke-width="1" fill="none"></path></g><g stroke-linecap="round"><g stroke-opacity="0.5" fill-opacity="0.5" transform="translate(144.75933492681384 226.05689874639302) rotate(0 61.247101612721245 -0.2610161197872003)"><path d="M0.26 0.25 C20.85 0.36, 103.11 0.34, 123.31 0.36 M-1.06 -0.67 C19.46 -0.86, 101.98 -1.15, 122.79 -1.3" stroke="#000000" stroke-width="1" fill="none"></path></g><g stroke-opacity="0.5" fill-opacity="0.5" transform="translate(144.75933492681384 226.05689874639302) rotate(0 61.247101612721245 -0.2610161197872003)"><path d="M123.41 0.31 L109.32 3.55 L109.76 -6.76 L123.65 -0.64" stroke="none" stroke-width="0" fill="#000000" fill-rule="evenodd"></path><path d="M122.79 -1.3 C119.23 1.57, 116.18 1.06, 109.23 5.11 M122.79 -1.3 C117.65 0.69, 112.57 3.11, 109.23 5.11 M109.23 5.11 C109.2 3.13, 109.59 0.87, 109.17 -7.57 M109.23 5.11 C108.98 0.66, 109.01 -3.38, 109.17 -7.57 M109.17 -7.57 C112.6 -5.95, 116.25 -5.2, 122.79 -1.3 M109.17 -7.57 C112.16 -5.99, 115.12 -4.65, 122.79 -1.3 M122.79 -1.3 C122.79 -1.3, 122.79 -1.3, 122.79 -1.3 M122.79 -1.3 C122.79 -1.3, 122.79 -1.3, 122.79 -1.3" stroke="#000000" stroke-width="1" fill="none"></path></g></g><mask></mask><g stroke-opacity="0.4" fill-opacity="0.4" stroke-linecap="round" transform="translate(273.2450146473518 136.94676199629566) rotate(0 74.13034789048439 74.13034789048447)"><path d="M12.52 62.56 C12.52 62.56, 12.52 62.56, 12.52 62.56 M12.52 62.56 C12.52 62.56, 12.52 62.56, 12.52 62.56 M5.7 76.51 C21.78 58.74, 36.67 38.42, 52.94 22.17 M5.7 76.51 C17.87 61.58, 31.61 48.97, 52.94 22.17 M7.41 80.64 C26.39 59.62, 40.01 41.27, 72.36 5.92 M7.41 80.64 C27.34 57.74, 47.54 33.83, 72.36 5.92 M9.77 84.02 C27.45 64.57, 41.93 44.62, 77.34 6.28 M9.77 84.02 C35.24 53.75, 62.25 21.73, 77.34 6.28 M12.13 87.4 C37.53 60.96, 59.16 34.59, 81.02 8.15 M12.13 87.4 C29.54 66.15, 48.31 44.41, 81.02 8.15 M15.15 90.02 C40.97 57.92, 69.76 28.84, 84.04 10.78 M15.15 90.02 C35.89 66.83, 56 42.59, 84.04 10.78 M18.17 92.65 C35.21 75.59, 51.26 55.39, 87.06 13.4 M18.17 92.65 C40.98 64.84, 64.69 36.69, 87.06 13.4 M20.53 96.03 C48.22 65.66, 73.36 37.82, 90.08 16.03 M20.53 96.03 C45.6 67.56, 69.15 39, 90.08 16.03 M23.55 98.65 C45.2 74.54, 67.33 45.77, 93.09 18.65 M23.55 98.65 C50.76 66.67, 77.23 35.42, 93.09 18.65 M26.57 101.27 C50.87 74.91, 74.4 49.64, 96.11 21.27 M26.57 101.27 C43.95 81.83, 58.85 62.67, 96.11 21.27 M29.59 103.9 C48.83 80.09, 72.6 55.39, 99.13 23.9 M29.59 103.9 C48.64 83.34, 66.18 63.25, 99.13 23.9 M32.61 106.52 C61.41 77.59, 86.73 45.82, 101.5 27.28 M32.61 106.52 C59.07 78.16, 83.9 48.81, 101.5 27.28 M34.97 109.9 C60.54 81.37, 86.19 51.21, 104.51 29.9 M34.97 109.9 C58.46 85.28, 78.53 59.31, 104.51 29.9 M37.99 112.53 C61.2 82.94, 86.11 55.12, 107.53 32.53 M37.99 112.53 C54.74 91.66, 72.54 72.99, 107.53 32.53 M41.01 115.15 C54.97 99.62, 68.97 83.51, 109.9 35.91 M41.01 115.15 C69.11 83.32, 95.22 54.28, 109.9 35.91 M44.03 117.77 C63.93 95.51, 85.91 70.5, 112.91 38.53 M44.03 117.77 C69.39 86.75, 95.2 58.63, 112.91 38.53 M47.05 120.4 C75.38 87.7, 102.92 56.72, 115.93 41.15 M47.05 120.4 C74.88 88.96, 101.47 59.33, 115.93 41.15 M50.07 123.02 C71.51 98.68, 89.17 77.05, 118.3 44.53 M50.07 123.02 C70.74 100.51, 90.2 76.66, 118.3 44.53 M52.43 126.4 C68.16 105.22, 87.39 88.83, 121.31 47.16 M52.43 126.4 C73.58 103.83, 92.41 81.11, 121.31 47.16 M55.45 129.03 C76.97 102.39, 101.01 77.55, 123.68 50.54 M55.45 129.03 C77.57 103.47, 101.62 76.78, 123.68 50.54 M58.47 131.65 C82.2 105.35, 103.45 79.2, 126.7 53.16 M58.47 131.65 C82.08 103.63, 106.04 77.26, 126.7 53.16 M61.49 134.27 C88.57 103.69, 113.43 73.26, 129.72 55.78 M61.49 134.27 C79.4 113.6, 99.16 90.72, 129.72 55.78 M64.5 136.9 C89.75 109.39, 118.5 77.09, 132.08 59.16 M64.5 136.9 C84.29 115.33, 103.71 92.25, 132.08 59.16 M67.52 139.52 C90.64 111.89, 113.9 84.29, 135.1 61.79 M67.52 139.52 C89.89 113.63, 111.71 88.11, 135.1 61.79 M71.2 141.39 C97.7 112.15, 120.84 84.42, 138.12 64.41 M71.2 141.39 C91.42 117.31, 111.13 95.53, 138.12 64.41 M74.87 143.26 C96.37 119.48, 116.22 97.47, 139.82 68.55 M74.87 143.26 C96.36 118.84, 116.83 95.5, 139.82 68.55 M83.14 139.85 C105.24 113.29, 131.35 86.57, 142.19 71.92 M83.14 139.85 C98.66 121.65, 114.11 104.28, 142.19 71.92 M115.03 109.27 C120.76 101.79, 128.59 92.85, 144.55 75.3 M115.03 109.27 C122.69 98.96, 130.29 91.59, 144.55 75.3" stroke="#fd7e14" stroke-width="0.5" fill="none"></path><path d="M93.75 18.75 C106.81 28.83, 118.29 43.45, 129.51 56.25 M93.75 18.75 C106.73 32.26, 119.33 47.44, 129.51 56.25 M129.51 56.25 C148.06 75.11, 149.45 75.75, 129.51 93.75 M129.51 56.25 C150.5 76.07, 146.92 75.19, 129.51 93.75 M129.51 93.75 C121.4 101.17, 111.79 113.44, 93.75 129.51 M129.51 93.75 C117.86 104.47, 106.13 117.91, 93.75 129.51 M93.75 129.51 C75.74 149.46, 76.3 149.64, 56.25 129.51 M93.75 129.51 C74.25 147.53, 75.62 147.33, 56.25 129.51 M56.25 129.51 C42.27 116.81, 32.41 105.16, 18.75 93.75 M56.25 129.51 C49.41 122.97, 41.64 114.24, 18.75 93.75 M18.75 93.75 C0.59 75.81, 0.86 75.66, 18.75 56.25 M18.75 93.75 C-0.81 73.26, 1.17 76.5, 18.75 56.25 M18.75 56.25 C28.26 44.95, 37.34 39.24, 56.25 18.75 M18.75 56.25 C27.35 47.2, 35.6 39.99, 56.25 18.75 M56.25 18.75 C75.24 0.22, 74.72 1.07, 93.75 18.75 M56.25 18.75 C73.59 -1.35, 73.3 -0.13, 93.75 18.75" stroke="#d9480f" stroke-width="1" fill="none"></path></g><g stroke-opacity="0.4" fill-opacity="0.4" stroke-linecap="round" transform="translate(273.3746710295649 153.65925060014433) rotate(0 74.13034789048439 74.13034789048447)"><path d="M12.52 62.56 C12.52 62.56, 12.52 62.56, 12.52 62.56 M12.52 62.56 C12.52 62.56, 12.52 62.56, 12.52 62.56 M5.7 76.51 C18.64 58.66, 34.44 41.01, 52.94 22.17 M5.7 76.51 C20.69 61.74, 33.2 45.74, 52.94 22.17 M7.41 80.64 C18.94 65.08, 35.25 47.05, 72.36 5.92 M7.41 80.64 C28.77 55.31, 49.6 32.86, 72.36 5.92 M9.77 84.02 C21.42 67.98, 38.96 53.92, 77.34 6.28 M9.77 84.02 C36.2 52.84, 62.35 23.59, 77.34 6.28 M12.13 87.4 C33.11 63.44, 53.49 38.64, 81.02 8.15 M12.13 87.4 C39.77 55.45, 68.01 23.69, 81.02 8.15 M15.15 90.02 C30.93 73.66, 46.49 55.95, 84.04 10.78 M15.15 90.02 C40.05 60.63, 63.91 31.59, 84.04 10.78 M18.17 92.65 C35.57 72, 53.74 53.92, 87.06 13.4 M18.17 92.65 C41.1 65.29, 65.93 38.99, 87.06 13.4 M20.53 96.03 C35.12 80.8, 51.09 63.01, 90.08 16.03 M20.53 96.03 C39.96 72.38, 61.09 49.88, 90.08 16.03 M23.55 98.65 C37.67 79.78, 54.44 65.21, 93.09 18.65 M23.55 98.65 C43.5 74.72, 64.96 51.98, 93.09 18.65 M26.57 101.27 C47.74 79.76, 64.88 54.22, 96.11 21.27 M26.57 101.27 C51.2 71.03, 77.86 42.59, 96.11 21.27 M29.59 103.9 C47.71 84.93, 63.96 62.19, 99.13 23.9 M29.59 103.9 C49.67 80.94, 69.59 57.83, 99.13 23.9 M32.61 106.52 C53.07 82.63, 74.2 57.35, 101.5 27.28 M32.61 106.52 C47.08 89.24, 61.7 74.08, 101.5 27.28 M34.97 109.9 C52.12 90.33, 68.46 69.6, 104.51 29.9 M34.97 109.9 C54.01 85.5, 76.26 62.01, 104.51 29.9 M37.99 112.53 C61.35 85.03, 86.53 57.86, 107.53 32.53 M37.99 112.53 C62.63 85.82, 85.83 57.17, 107.53 32.53 M41.01 115.15 C65.42 87.85, 91.73 56.52, 109.9 35.91 M41.01 115.15 C67.83 85.3, 94.48 52.47, 109.9 35.91 M44.03 117.77 C67.28 91.35, 88.11 70.42, 112.91 38.53 M44.03 117.77 C68.11 91.4, 93.22 62.3, 112.91 38.53 M47.05 120.4 C73.61 90.44, 99.07 63.17, 115.93 41.15 M47.05 120.4 C61.24 104.97, 75.24 88.52, 115.93 41.15 M50.07 123.02 C67.75 101.89, 87.13 79.06, 118.3 44.53 M50.07 123.02 C70.07 98.8, 90.13 75.53, 118.3 44.53 M52.43 126.4 C78.28 100.61, 100.64 71, 121.31 47.16 M52.43 126.4 C69.2 106.3, 87.52 84.58, 121.31 47.16 M55.45 129.03 C79.36 102.79, 100.72 76.98, 123.68 50.54 M55.45 129.03 C77.74 104.23, 98.27 81.26, 123.68 50.54 M58.47 131.65 C83.52 102.33, 110.14 73.88, 126.7 53.16 M58.47 131.65 C73.27 115.55, 89.46 97.49, 126.7 53.16 M61.49 134.27 C84.59 106.42, 110.41 78.65, 129.72 55.78 M61.49 134.27 C75.45 118.14, 90.62 100.96, 129.72 55.78 M64.5 136.9 C81.98 117.77, 94.94 101.72, 132.08 59.16 M64.5 136.9 C82.02 116.23, 98.6 98.05, 132.08 59.16 M67.52 139.52 C84.85 118.2, 102.43 102.36, 135.1 61.79 M67.52 139.52 C83.48 120.79, 100.59 101.02, 135.1 61.79 M71.2 141.39 C89.65 119.16, 107.39 98.83, 138.12 64.41 M71.2 141.39 C89.84 120.45, 110.07 98.19, 138.12 64.41 M74.87 143.26 C95.52 121.25, 116.36 96.07, 139.82 68.55 M74.87 143.26 C88.29 127.94, 102.66 113.33, 139.82 68.55 M83.14 139.85 C97.52 126.01, 107.02 111.84, 142.19 71.92 M83.14 139.85 C102.86 117.48, 120.94 96.46, 142.19 71.92 M115.03 109.27 C121 101.78, 128.05 95.12, 144.55 75.3 M115.03 109.27 C123.45 100.09, 132.83 89.34, 144.55 75.3" stroke="#fd7e14" stroke-width="0.5" fill="none"></path><path d="M93.75 18.75 C108.63 33.67, 121.76 46.35, 129.51 56.25 M93.75 18.75 C101.2 28.42, 110.31 36.58, 129.51 56.25 M129.51 56.25 C149.45 75.75, 150.21 75.93, 129.51 93.75 M129.51 56.25 C146.92 75.19, 147.16 74.77, 129.51 93.75 M129.51 93.75 C120.68 104.63, 111.44 112.57, 93.75 129.51 M129.51 93.75 C116.13 107.19, 104.17 119.62, 93.75 129.51 M93.75 129.51 C76.3 149.64, 74.34 147.63, 56.25 129.51 M93.75 129.51 C75.62 147.33, 75.74 146, 56.25 129.51 M56.25 129.51 C48.74 120.91, 37.43 111.07, 18.75 93.75 M56.25 129.51 C46.8 120.09, 37.67 112.32, 18.75 93.75 M18.75 93.75 C0.86 75.66, -0.7 73.49, 18.75 56.25 M18.75 93.75 C1.17 76.5, -1.27 73.34, 18.75 56.25 M18.75 56.25 C31.22 45.57, 42.43 33.29, 56.25 18.75 M18.75 56.25 C27.21 48.58, 36.27 39.11, 56.25 18.75 M56.25 18.75 C74.72 1.07, 73.77 -1.17, 93.75 18.75 M56.25 18.75 C73.3 -0.13, 74.49 0.46, 93.75 18.75" stroke="#d9480f" stroke-width="1" fill="none"></path></g><g transform="translate(330.5040893579546 202.85463410528337) rotate(0 16.61948595684362 10.045634655661615)"><text x="16.619485956843615" y="14.079961533375238" font-family="Virgil, Segoe UI Emoji" font-size="16.07301544905849px" fill="#000000" text-anchor="middle" style="white-space: pre;" direction="ltr" dominant-baseline="alphabetic">CDN</text></g><g stroke-opacity="0.6" fill-opacity="0.6" stroke-linecap="round" transform="translate(575.0041687870417 147.00303066413198) rotate(0 36.57578194706002 69.95419310158218)"><path d="M4.87 4.23 C4.87 4.23, 4.87 4.23, 4.87 4.23 M4.87 4.23 C4.87 4.23, 4.87 4.23, 4.87 4.23 M1.33 14.4 C4.69 9.68, 8.58 7.85, 11.82 2.33 M1.33 14.4 C4.9 10.79, 8.22 5.33, 11.82 2.33 M1.06 20.8 C6.53 15.74, 8.73 8.48, 18.78 0.42 M1.06 20.8 C6.63 15.57, 12.11 8.07, 18.78 0.42 M0.8 27.2 C5.94 21.77, 11.2 18.15, 23.77 0.78 M0.8 27.2 C6.37 21.36, 9.66 15.58, 23.77 0.78 M1.2 32.84 C8.98 21.38, 19.85 11.38, 29.41 0.39 M1.2 32.84 C8.92 23.86, 16.97 15.2, 29.41 0.39 M0.94 39.24 C9.7 26.04, 23.34 14.26, 34.4 0.75 M0.94 39.24 C14.02 23.94, 27.27 10.38, 34.4 0.75 M0.67 45.64 C11.18 31.54, 22.78 21.22, 40.04 0.35 M0.67 45.64 C9.73 35.14, 17.84 26.39, 40.04 0.35 M1.07 51.28 C10.19 37.82, 22.01 27.08, 45.03 0.71 M1.07 51.28 C17.01 33.59, 31.73 16.76, 45.03 0.71 M0.81 57.68 C19.31 35.57, 36.36 17.74, 50.67 0.32 M0.81 57.68 C15.36 39.79, 29.98 23.69, 50.67 0.32 M1.2 63.32 C14.48 47.42, 33.23 26.69, 55.66 0.68 M1.2 63.32 C15.79 46.52, 29.79 30.19, 55.66 0.68 M0.94 69.72 C18.09 49.18, 35.62 28.27, 60.64 1.04 M0.94 69.72 C13.26 54.37, 26.92 41.56, 60.64 1.04 M0.68 76.12 C20.29 56.3, 37.1 37.65, 64.32 2.91 M0.68 76.12 C19.25 54.42, 38.16 32.92, 64.32 2.91 M1.07 81.76 C19.82 60.92, 37.5 40.11, 67.99 4.78 M1.07 81.76 C16.93 63.17, 32.72 45.61, 67.99 4.78 M0.81 88.16 C18.68 65.37, 40 45.12, 71.01 7.4 M0.81 88.16 C26.44 59, 53.76 27.17, 71.01 7.4 M0.55 94.56 C24.52 69.54, 46.03 43.55, 72.72 11.54 M0.55 94.56 C22.24 68.82, 43.9 44.12, 72.72 11.54 M0.95 100.2 C27.04 70.38, 50.23 41.79, 73.77 16.43 M0.95 100.2 C19.03 80.08, 35.25 60.63, 73.77 16.43 M0.68 106.6 C22.61 83.3, 41.68 58.67, 75.48 20.56 M0.68 106.6 C23.4 80.42, 46.3 53.41, 75.48 20.56 M1.08 112.24 C28.32 81.95, 56.82 49.52, 75.87 26.2 M1.08 112.24 C25.28 84.19, 48.91 56.62, 75.87 26.2 M0.82 118.64 C21.81 91.21, 44.89 64.34, 75.61 32.6 M0.82 118.64 C18.09 97.52, 37.84 76.99, 75.61 32.6 M1.87 123.53 C27.75 91.11, 56.88 59.43, 75.35 39 M1.87 123.53 C26.86 96.29, 52.24 67.74, 75.35 39 M1.61 129.92 C26.59 99.73, 55.89 67.93, 75.74 44.64 M1.61 129.92 C20.5 107.96, 40.47 84.96, 75.74 44.64 M3.97 133.3 C23.74 107.84, 45.14 86.47, 75.48 51.04 M3.97 133.3 C23.42 111.3, 41.47 90.02, 75.48 51.04 M6.33 136.68 C27.13 113.86, 48.6 88.74, 75.22 57.44 M6.33 136.68 C32.68 106.54, 59.65 74.52, 75.22 57.44 M9.35 139.31 C30.12 113.07, 52.42 92.29, 75.61 63.08 M9.35 139.31 C30.72 112.55, 54.59 88.1, 75.61 63.08 M14.34 139.67 C39.6 113.19, 62.46 88.55, 75.35 69.48 M14.34 139.67 C28.26 122.21, 42.99 106.54, 75.35 69.48 M19.33 140.03 C40.93 117.84, 61.04 93.24, 75.75 75.12 M19.33 140.03 C36.01 119.97, 53.38 99.97, 75.75 75.12 M24.97 139.63 C44.52 117.13, 59.56 99.88, 75.48 81.52 M24.97 139.63 C39.32 124.59, 52.63 107.62, 75.48 81.52 M29.96 139.99 C42.07 124.47, 56.17 109.66, 75.22 87.92 M29.96 139.99 C46.55 120.52, 62.74 102.98, 75.22 87.92 M35.6 139.6 C52.3 120.11, 67.39 102.73, 75.62 93.56 M35.6 139.6 C49.11 124.45, 62.38 107.48, 75.62 93.56 M40.59 139.96 C51.84 123.81, 66.41 108.05, 75.36 99.96 M40.59 139.96 C52.79 123.99, 67.21 109.54, 75.36 99.96 M45.57 140.32 C54.99 130.02, 63.76 116.37, 75.1 106.35 M45.57 140.32 C57.27 126.78, 67.47 113.97, 75.1 106.35 M51.22 139.92 C58.36 132.45, 65.98 125.26, 75.49 112 M51.22 139.92 C58.02 131.21, 65.68 124.93, 75.49 112 M55.55 141.04 C62.93 135.9, 67.63 128.9, 75.23 118.4 M55.55 141.04 C61.06 135.39, 65.11 128.86, 75.23 118.4 M61.85 139.89 C66.29 134.25, 69.96 129.65, 73.65 126.3 M61.85 139.89 C65.68 134.99, 69.93 130.52, 73.65 126.3" stroke="#fab005" stroke-width="0.5" fill="none"></path><path d="M18.29 0 C26.33 -1.84, 38.09 -1.12, 54.86 0 M18.29 0 C31.52 -0.38, 45.44 0.14, 54.86 0 M54.86 0 C65.1 -0.65, 74.34 5.62, 73.15 18.29 M54.86 0 C68.22 -1.33, 74.72 7.42, 73.15 18.29 M73.15 18.29 C70.27 43.67, 74.24 71.63, 73.15 121.62 M73.15 18.29 C73.25 58.2, 72.7 97.17, 73.15 121.62 M73.15 121.62 C74.18 132.58, 68.21 140.01, 54.86 139.91 M73.15 121.62 C71.08 134.42, 69.14 138.16, 54.86 139.91 M54.86 139.91 C44.03 140.42, 29.91 138.69, 18.29 139.91 M54.86 139.91 C47.16 139.46, 37.66 140.83, 18.29 139.91 M18.29 139.91 C7.07 139.41, -0.74 133.9, 0 121.62 M18.29 139.91 C7.89 137.99, -0.13 133.44, 0 121.62 M0 121.62 C1.41 84.74, 0.62 51.77, 0 18.29 M0 121.62 C-0.76 93.98, -1.34 66.18, 0 18.29 M0 18.29 C0.76 6.5, 4.84 1.12, 18.29 0 M0 18.29 C-1.29 5.5, 3.92 -1.86, 18.29 0" stroke="#e67700" stroke-width="1" fill="none"></path></g><g stroke-opacity="0.6" fill-opacity="0.6" stroke-linecap="round" transform="translate(616.6496532378617 207.6347922260711) rotate(0 7.893149074031157 7.650282948676249)"><path d="M1.92 1.67 C1.92 1.67, 1.92 1.67, 1.92 1.67 M1.92 1.67 C1.92 1.67, 1.92 1.67, 1.92 1.67 M1 8.82 C3.92 5.35, 6.75 2.56, 8.22 0.52 M1 8.82 C3.18 6.07, 5.39 3.26, 8.22 0.52 M2.71 12.96 C6.92 8.92, 11.08 4.9, 12.55 1.63 M2.71 12.96 C5.33 10.01, 8.51 6.47, 12.55 1.63 M5.73 15.58 C8.71 12.78, 10.35 10.22, 14.91 5.01 M5.73 15.58 C8.41 12.11, 11.87 8.53, 14.91 5.01" stroke="#fab005" stroke-width="0.5" fill="none"></path><path d="M7.27 0.11 C8.79 0, 10.8 0.97, 12.2 1.8 C13.59 2.62, 15.17 3.51, 15.62 5.06 C16.08 6.6, 15.67 9.44, 14.94 11.06 C14.21 12.68, 12.77 14.06, 11.23 14.78 C9.69 15.51, 7.26 15.88, 5.69 15.41 C4.12 14.94, 2.81 13.26, 1.79 11.96 C0.78 10.66, -0.4 9.29, -0.41 7.61 C-0.42 5.93, 0.36 3.2, 1.72 1.9 C3.09 0.59, 6.75 0.04, 7.78 -0.2 C8.82 -0.45, 7.99 0.29, 7.93 0.42 M8.97 -0.43 C10.77 -0.36, 12.89 1.01, 13.91 2.28 C14.93 3.55, 14.89 5.65, 15.08 7.19 C15.27 8.72, 15.86 10.06, 15.04 11.47 C14.21 12.88, 11.82 15.08, 10.13 15.67 C8.44 16.26, 6.42 15.86, 4.88 15 C3.33 14.13, 1.72 12.13, 0.87 10.48 C0.02 8.83, -0.57 6.6, -0.24 5.09 C0.08 3.58, 1.27 2.3, 2.8 1.4 C4.33 0.5, 8.08 -0.23, 8.93 -0.32 C9.78 -0.41, 7.9 0.72, 7.9 0.87" stroke="#e67700" stroke-width="1" fill="none"></path></g><g stroke-opacity="0.6" fill-opacity="0.6" stroke-linecap="round" transform="translate(585.8145961544025 205.16214409138593) rotate(0 7.893149074031157 7.650282948676249)"><path d="M2.58 2.24 C2.58 2.24, 2.58 2.24, 2.58 2.24 M2.58 2.24 C2.58 2.24, 2.58 2.24, 2.58 2.24 M0.35 10.9 C3.39 7.84, 6.29 3.79, 9.53 0.33 M0.35 10.9 C3.32 6.87, 7.22 3.15, 9.53 0.33 M2.71 14.28 C5.71 12.36, 7.09 8.32, 13.21 2.2 M2.71 14.28 C5.14 11.58, 7.49 8.63, 13.21 2.2 M7.04 15.39 C8.76 13.31, 11.65 10.59, 15.57 5.58 M7.04 15.39 C10.36 11.7, 12.92 8.32, 15.57 5.58" stroke="#fab005" stroke-width="0.5" fill="none"></path><path d="M6.36 0.61 C7.91 0.14, 10.48 -0.27, 11.94 0.51 C13.4 1.29, 14.59 3.63, 15.13 5.29 C15.68 6.95, 15.8 8.93, 15.21 10.48 C14.62 12.03, 12.98 13.84, 11.59 14.59 C10.2 15.35, 8.55 15.25, 6.86 15 C5.17 14.76, 2.67 14.39, 1.45 13.1 C0.22 11.81, -0.64 9.02, -0.5 7.26 C-0.35 5.5, 1.02 3.7, 2.31 2.54 C3.6 1.39, 6.41 0.76, 7.23 0.33 C8.05 -0.1, 7.26 -0.03, 7.23 -0.03 M7.84 0.05 C9.26 -0.03, 10.51 0.82, 11.91 1.7 C13.31 2.57, 15.7 3.62, 16.25 5.29 C16.79 6.95, 15.97 10.05, 15.16 11.69 C14.35 13.32, 12.93 14.59, 11.37 15.08 C9.81 15.56, 7.55 15.22, 5.79 14.59 C4.03 13.96, 1.85 12.6, 0.8 11.3 C-0.25 10, -0.85 8.4, -0.52 6.81 C-0.19 5.22, 1.59 2.78, 2.8 1.76 C4 0.74, 5.9 1, 6.73 0.7 C7.56 0.41, 7.71 -0.04, 7.78 -0.02" stroke="#e67700" stroke-width="1" fill="none"></path></g><g stroke-opacity="0.6" fill-opacity="0.6" stroke-linecap="round" transform="translate(617.0701115946943 250.89824795118693) rotate(0 7.893149074031157 7.650282948676249)"><path d="M3.55 1.76 C3.55 1.76, 3.55 1.76, 3.55 1.76 M3.55 1.76 C3.55 1.76, 3.55 1.76, 3.55 1.76 M0.67 11.18 C3.16 8, 5.78 5.32, 9.85 0.61 M0.67 11.18 C3.53 8.08, 5.45 5.6, 9.85 0.61 M3.69 13.8 C6.9 9.19, 9.75 5.48, 13.53 2.48 M3.69 13.8 C7.44 9.33, 11.2 5.2, 13.53 2.48 M7.36 15.67 C10.06 13.08, 12.8 9.4, 15.23 6.62 M7.36 15.67 C9.38 13.01, 11.67 10.54, 15.23 6.62" stroke="#fab005" stroke-width="0.5" fill="none"></path><path d="M8.32 -0.48 C9.92 -0.56, 11.81 1.04, 13.02 2.27 C14.23 3.49, 15.38 5.22, 15.59 6.85 C15.8 8.48, 15.12 10.74, 14.29 12.05 C13.46 13.37, 12.24 14.21, 10.61 14.74 C8.98 15.27, 6.2 15.9, 4.5 15.24 C2.8 14.58, 1.06 12.37, 0.42 10.8 C-0.22 9.23, 0.16 7.31, 0.67 5.83 C1.17 4.34, 2.15 2.88, 3.46 1.87 C4.76 0.87, 7.61 0.16, 8.52 -0.2 C9.42 -0.56, 8.92 -0.51, 8.88 -0.3 M6.01 0.29 C7.62 -0.15, 11.07 -0.39, 12.66 0.54 C14.25 1.46, 15.08 4.1, 15.56 5.81 C16.05 7.53, 16.2 9.47, 15.58 10.83 C14.95 12.19, 13.45 13.33, 11.83 13.95 C10.21 14.58, 7.62 14.83, 5.85 14.58 C4.07 14.33, 2.09 13.7, 1.17 12.46 C0.26 11.23, 0.33 8.67, 0.34 7.14 C0.36 5.62, 0.16 4.51, 1.28 3.3 C2.4 2.09, 6.19 0.41, 7.05 -0.1 C7.91 -0.6, 6.38 0.22, 6.43 0.27" stroke="#e67700" stroke-width="1" fill="none"></path></g><g stroke-opacity="0.6" fill-opacity="0.6" stroke-linecap="round" transform="translate(616.4872328938538 163.5288910059553) rotate(0 7.893149074031157 7.650282948676249)"><path d="M4.8 0.2 C4.8 0.2, 4.8 0.2, 4.8 0.2 M4.8 0.2 C4.8 0.2, 4.8 0.2, 4.8 0.2 M1.26 10.37 C4.5 6.71, 6.85 3.15, 9.79 0.56 M1.26 10.37 C2.8 8.41, 5.08 6.42, 9.79 0.56 M3.62 13.75 C6.87 8.82, 11.85 5.06, 13.46 2.43 M3.62 13.75 C6.73 10.25, 10.18 6.02, 13.46 2.43 M7.3 15.62 C10.6 11.75, 13.17 9.21, 15.17 6.56 M7.3 15.62 C8.99 13.55, 11.05 11.52, 15.17 6.56" stroke="#fab005" stroke-width="0.5" fill="none"></path><path d="M9.62 0.52 C11.16 0.92, 13.17 2.06, 14.15 3.39 C15.12 4.73, 15.53 6.95, 15.48 8.51 C15.43 10.07, 15.07 11.56, 13.87 12.76 C12.68 13.97, 10.12 15.62, 8.31 15.76 C6.49 15.89, 4.25 14.6, 3 13.57 C1.75 12.53, 1.12 11.01, 0.81 9.55 C0.49 8.09, 0.48 6.31, 1.09 4.81 C1.7 3.31, 2.96 1.4, 4.48 0.56 C6.01 -0.27, 9.29 -0.24, 10.23 -0.2 C11.18 -0.17, 10.27 0.52, 10.15 0.78 M8.67 -0.57 C10.42 -0.58, 12.02 1.25, 13.24 2.48 C14.46 3.71, 15.74 5.38, 16.01 6.83 C16.27 8.27, 15.81 9.91, 14.81 11.16 C13.81 12.4, 11.7 13.68, 9.99 14.29 C8.27 14.9, 5.97 15.37, 4.53 14.83 C3.09 14.28, 2.2 12.36, 1.35 11.05 C0.51 9.73, -0.86 8.5, -0.54 6.92 C-0.22 5.33, 1.89 2.69, 3.26 1.54 C4.64 0.4, 6.83 0.37, 7.71 0.03 C8.6 -0.3, 8.54 -0.57, 8.57 -0.47" stroke="#e67700" stroke-width="1" fill="none"></path></g><g stroke-linecap="round"><g stroke-opacity="0.6" fill-opacity="0.6" transform="translate(597.2160709100472 220.85206949861185) rotate(0 11.407291673558433 16.06667692362089)"><path d="M0 0 C7.42 9.02, 13.99 20.69, 22.81 32.13 M0 0 C6.72 9.22, 12.49 17.37, 22.81 32.13" stroke="#e67700" stroke-width="1" fill="none"></path></g></g><mask></mask><g stroke-linecap="round"><g stroke-opacity="0.6" fill-opacity="0.6" transform="translate(602.5964155655582 213.08692594384274) rotate(0 6.566364091805724 0.5220789837815119)"><path d="M0 0 C5 0.87, 10.27 1.23, 13.13 1.04 M0 0 C3.06 -0.07, 6.69 0.14, 13.13 1.04" stroke="#e67700" stroke-width="1" fill="none"></path></g></g><mask></mask><g stroke-linecap="round"><g stroke-opacity="0.6" fill-opacity="0.6" transform="translate(598.6689817388342 205.6333220941483) rotate(0 10.559463777254763 -13.52326479153453)"><path d="M0 0 C4.08 -5.02, 8.01 -10.32, 21.12 -27.05 M0 0 C8.1 -10.08, 14.72 -18.76, 21.12 -27.05" stroke="#e67700" stroke-width="1" fill="none"></path></g></g><mask></mask><g transform="translate(576.3100690462526 296.41005452164154) rotate(0 38.50397491455078 20)"><text x="38.50397491455078" y="14.016" font-family="Virgil, Segoe UI Emoji" font-size="16px" fill="#000000" text-anchor="middle" style="white-space: pre;" direction="ltr" dominant-baseline="alphabetic">Load</text><text x="38.50397491455078" y="34.016" font-family="Virgil, Segoe UI Emoji" font-size="16px" fill="#000000" text-anchor="middle" style="white-space: pre;" direction="ltr" dominant-baseline="alphabetic">Balancers</text></g><g stroke-linecap="round" transform="translate(11.975541065760439 185.9309348467741) rotate(0 63.94191786606946 38.26851694988886)"><path d="M0 0 C39.46 -0.9, 75.52 -1.17, 127.88 0 M0 0 C46.28 -0.09, 93.53 -0.55, 127.88 0 M127.88 0 C129.32 23.81, 129.13 52.31, 127.88 76.54 M127.88 0 C127.34 17.6, 127.63 34.11, 127.88 76.54 M127.88 76.54 C97.47 74.38, 69.51 77.77, 0 76.54 M127.88 76.54 C83.68 77.55, 39.79 77.4, 0 76.54 M0 76.54 C0.92 50.65, 2 27.28, 0 0 M0 76.54 C0.59 54.48, 1.19 31.26, 0 0" stroke="#000000" stroke-width="1" fill="none"></path></g><g stroke-linecap="round"><g transform="translate(10.899943314865226 196.64746923901794) rotate(0 64.42096614922217 0)"><path d="M-0.9 -1.16 C20.49 -1.1, 105.98 0.56, 127.78 0.82 M0.83 0.84 C22.63 0.53, 108.45 -0.44, 129.93 -0.87" stroke="#000000" stroke-width="1" fill="none"></path></g></g><mask></mask><g stroke-linecap="round" transform="translate(16.463576534715315 190.20250464678247) rotate(0 2.5009765625 2.5009765625)"><path d="M5 2.5 C5 2.65, 4.99 2.79, 4.96 2.94 C4.94 3.08, 4.9 3.22, 4.85 3.36 C4.8 3.49, 4.74 3.63, 4.67 3.75 C4.59 3.88, 4.51 4, 4.42 4.11 C4.32 4.22, 4.22 4.32, 4.11 4.42 C4 4.51, 3.88 4.59, 3.75 4.67 C3.63 4.74, 3.49 4.8, 3.36 4.85 C3.22 4.9, 3.08 4.94, 2.94 4.96 C2.79 4.99, 2.65 5, 2.5 5 C2.36 5, 2.21 4.99, 2.07 4.96 C1.92 4.94, 1.78 4.9, 1.65 4.85 C1.51 4.8, 1.38 4.74, 1.25 4.67 C1.13 4.59, 1 4.51, 0.89 4.42 C0.78 4.32, 0.68 4.22, 0.59 4.11 C0.49 4, 0.41 3.88, 0.34 3.75 C0.26 3.63, 0.2 3.49, 0.15 3.36 C0.1 3.22, 0.06 3.08, 0.04 2.94 C0.01 2.79, 0 2.65, 0 2.5 C0 2.36, 0.01 2.21, 0.04 2.07 C0.06 1.92, 0.1 1.78, 0.15 1.65 C0.2 1.51, 0.26 1.38, 0.34 1.25 C0.41 1.13, 0.49 1, 0.59 0.89 C0.68 0.78, 0.78 0.68, 0.89 0.59 C1 0.49, 1.13 0.41, 1.25 0.34 C1.38 0.26, 1.51 0.2, 1.65 0.15 C1.78 0.1, 1.92 0.06, 2.07 0.04 C2.21 0.01, 2.36 0, 2.5 0 C2.65 0, 2.79 0.01, 2.94 0.04 C3.08 0.06, 3.22 0.1, 3.36 0.15 C3.49 0.2, 3.63 0.26, 3.75 0.34 C3.88 0.41, 4 0.49, 4.11 0.59 C4.22 0.68, 4.32 0.78, 4.42 0.89 C4.51 1, 4.59 1.13, 4.67 1.25 C4.74 1.38, 4.8 1.51, 4.85 1.65 C4.9 1.78, 4.94 1.92, 4.96 2.07 C4.99 2.21, 5 2.43, 5 2.5 C5.01 2.57, 5.01 2.43, 5 2.5" stroke="none" stroke-width="0" fill="#fa5252"></path><path d="M5 2.5 C5 2.65, 4.99 2.79, 4.96 2.94 C4.94 3.08, 4.9 3.22, 4.85 3.36 C4.8 3.49, 4.74 3.63, 4.67 3.75 C4.59 3.88, 4.51 4, 4.42 4.11 C4.32 4.22, 4.22 4.32, 4.11 4.42 C4 4.51, 3.88 4.59, 3.75 4.67 C3.63 4.74, 3.49 4.8, 3.36 4.85 C3.22 4.9, 3.08 4.94, 2.94 4.96 C2.79 4.99, 2.65 5, 2.5 5 C2.36 5, 2.21 4.99, 2.07 4.96 C1.92 4.94, 1.78 4.9, 1.65 4.85 C1.51 4.8, 1.38 4.74, 1.25 4.67 C1.13 4.59, 1 4.51, 0.89 4.42 C0.78 4.32, 0.68 4.22, 0.59 4.11 C0.49 4, 0.41 3.88, 0.34 3.75 C0.26 3.63, 0.2 3.49, 0.15 3.36 C0.1 3.22, 0.06 3.08, 0.04 2.94 C0.01 2.79, 0 2.65, 0 2.5 C0 2.36, 0.01 2.21, 0.04 2.07 C0.06 1.92, 0.1 1.78, 0.15 1.65 C0.2 1.51, 0.26 1.38, 0.34 1.25 C0.41 1.13, 0.49 1, 0.59 0.89 C0.68 0.78, 0.78 0.68, 0.89 0.59 C1 0.49, 1.13 0.41, 1.25 0.34 C1.38 0.26, 1.51 0.2, 1.65 0.15 C1.78 0.1, 1.92 0.06, 2.07 0.04 C2.21 0.01, 2.36 0, 2.5 0 C2.65 0, 2.79 0.01, 2.94 0.04 C3.08 0.06, 3.22 0.1, 3.36 0.15 C3.49 0.2, 3.63 0.26, 3.75 0.34 C3.88 0.41, 4 0.49, 4.11 0.59 C4.22 0.68, 4.32 0.78, 4.42 0.89 C4.51 1, 4.59 1.13, 4.67 1.25 C4.74 1.38, 4.8 1.51, 4.85 1.65 C4.9 1.78, 4.94 1.92, 4.96 2.07 C4.99 2.21, 5 2.43, 5 2.5 C5.01 2.57, 5.01 2.43, 5 2.5" stroke="#000000" stroke-width="1" fill="none"></path></g><g stroke-linecap="round" transform="translate(26.726271847215315 190.20250464678247) rotate(0 2.5009765625 2.5009765625)"><path d="M5 2.5 C5 2.65, 4.99 2.79, 4.96 2.94 C4.94 3.08, 4.9 3.22, 4.85 3.36 C4.8 3.49, 4.74 3.63, 4.67 3.75 C4.59 3.88, 4.51 4, 4.42 4.11 C4.32 4.22, 4.22 4.32, 4.11 4.42 C4 4.51, 3.88 4.59, 3.75 4.67 C3.63 4.74, 3.49 4.8, 3.36 4.85 C3.22 4.9, 3.08 4.94, 2.94 4.96 C2.79 4.99, 2.65 5, 2.5 5 C2.36 5, 2.21 4.99, 2.07 4.96 C1.92 4.94, 1.78 4.9, 1.65 4.85 C1.51 4.8, 1.38 4.74, 1.25 4.67 C1.13 4.59, 1 4.51, 0.89 4.42 C0.78 4.32, 0.68 4.22, 0.59 4.11 C0.49 4, 0.41 3.88, 0.34 3.75 C0.26 3.63, 0.2 3.49, 0.15 3.36 C0.1 3.22, 0.06 3.08, 0.04 2.94 C0.01 2.79, 0 2.65, 0 2.5 C0 2.36, 0.01 2.21, 0.04 2.07 C0.06 1.92, 0.1 1.78, 0.15 1.65 C0.2 1.51, 0.26 1.38, 0.34 1.25 C0.41 1.13, 0.49 1, 0.59 0.89 C0.68 0.78, 0.78 0.68, 0.89 0.59 C1 0.49, 1.13 0.41, 1.25 0.34 C1.38 0.26, 1.51 0.2, 1.65 0.15 C1.78 0.1, 1.92 0.06, 2.07 0.04 C2.21 0.01, 2.36 0, 2.5 0 C2.65 0, 2.79 0.01, 2.94 0.04 C3.08 0.06, 3.22 0.1, 3.36 0.15 C3.49 0.2, 3.63 0.26, 3.75 0.34 C3.88 0.41, 4 0.49, 4.11 0.59 C4.22 0.68, 4.32 0.78, 4.42 0.89 C4.51 1, 4.59 1.13, 4.67 1.25 C4.74 1.38, 4.8 1.51, 4.85 1.65 C4.9 1.78, 4.94 1.92, 4.96 2.07 C4.99 2.21, 5 2.43, 5 2.5 C5.01 2.57, 5.01 2.43, 5 2.5" stroke="none" stroke-width="0" fill="#fab005"></path><path d="M5 2.5 C5 2.65, 4.99 2.79, 4.96 2.94 C4.94 3.08, 4.9 3.22, 4.85 3.36 C4.8 3.49, 4.74 3.63, 4.67 3.75 C4.59 3.88, 4.51 4, 4.42 4.11 C4.32 4.22, 4.22 4.32, 4.11 4.42 C4 4.51, 3.88 4.59, 3.75 4.67 C3.63 4.74, 3.49 4.8, 3.36 4.85 C3.22 4.9, 3.08 4.94, 2.94 4.96 C2.79 4.99, 2.65 5, 2.5 5 C2.36 5, 2.21 4.99, 2.07 4.96 C1.92 4.94, 1.78 4.9, 1.65 4.85 C1.51 4.8, 1.38 4.74, 1.25 4.67 C1.13 4.59, 1 4.51, 0.89 4.42 C0.78 4.32, 0.68 4.22, 0.59 4.11 C0.49 4, 0.41 3.88, 0.34 3.75 C0.26 3.63, 0.2 3.49, 0.15 3.36 C0.1 3.22, 0.06 3.08, 0.04 2.94 C0.01 2.79, 0 2.65, 0 2.5 C0 2.36, 0.01 2.21, 0.04 2.07 C0.06 1.92, 0.1 1.78, 0.15 1.65 C0.2 1.51, 0.26 1.38, 0.34 1.25 C0.41 1.13, 0.49 1, 0.59 0.89 C0.68 0.78, 0.78 0.68, 0.89 0.59 C1 0.49, 1.13 0.41, 1.25 0.34 C1.38 0.26, 1.51 0.2, 1.65 0.15 C1.78 0.1, 1.92 0.06, 2.07 0.04 C2.21 0.01, 2.36 0, 2.5 0 C2.65 0, 2.79 0.01, 2.94 0.04 C3.08 0.06, 3.22 0.1, 3.36 0.15 C3.49 0.2, 3.63 0.26, 3.75 0.34 C3.88 0.41, 4 0.49, 4.11 0.59 C4.22 0.68, 4.32 0.78, 4.42 0.89 C4.51 1, 4.59 1.13, 4.67 1.25 C4.74 1.38, 4.8 1.51, 4.85 1.65 C4.9 1.78, 4.94 1.92, 4.96 2.07 C4.99 2.21, 5 2.43, 5 2.5 C5.01 2.57, 5.01 2.43, 5 2.5" stroke="#000000" stroke-width="1" fill="none"></path></g><g stroke-linecap="round" transform="translate(37.439688313561504 190.65322580062912) rotate(0 2.5009765625 2.5009765625)"><path d="M5 2.5 C5 2.65, 4.99 2.79, 4.96 2.94 C4.94 3.08, 4.9 3.22, 4.85 3.36 C4.8 3.49, 4.74 3.63, 4.67 3.75 C4.59 3.88, 4.51 4, 4.42 4.11 C4.32 4.22, 4.22 4.32, 4.11 4.42 C4 4.51, 3.88 4.59, 3.75 4.67 C3.63 4.74, 3.49 4.8, 3.36 4.85 C3.22 4.9, 3.08 4.94, 2.94 4.96 C2.79 4.99, 2.65 5, 2.5 5 C2.36 5, 2.21 4.99, 2.07 4.96 C1.92 4.94, 1.78 4.9, 1.65 4.85 C1.51 4.8, 1.38 4.74, 1.25 4.67 C1.13 4.59, 1 4.51, 0.89 4.42 C0.78 4.32, 0.68 4.22, 0.59 4.11 C0.49 4, 0.41 3.88, 0.34 3.75 C0.26 3.63, 0.2 3.49, 0.15 3.36 C0.1 3.22, 0.06 3.08, 0.04 2.94 C0.01 2.79, 0 2.65, 0 2.5 C0 2.36, 0.01 2.21, 0.04 2.07 C0.06 1.92, 0.1 1.78, 0.15 1.65 C0.2 1.51, 0.26 1.38, 0.34 1.25 C0.41 1.13, 0.49 1, 0.59 0.89 C0.68 0.78, 0.78 0.68, 0.89 0.59 C1 0.49, 1.13 0.41, 1.25 0.34 C1.38 0.26, 1.51 0.2, 1.65 0.15 C1.78 0.1, 1.92 0.06, 2.07 0.04 C2.21 0.01, 2.36 0, 2.5 0 C2.65 0, 2.79 0.01, 2.94 0.04 C3.08 0.06, 3.22 0.1, 3.36 0.15 C3.49 0.2, 3.63 0.26, 3.75 0.34 C3.88 0.41, 4 0.49, 4.11 0.59 C4.22 0.68, 4.32 0.78, 4.42 0.89 C4.51 1, 4.59 1.13, 4.67 1.25 C4.74 1.38, 4.8 1.51, 4.85 1.65 C4.9 1.78, 4.94 1.92, 4.96 2.07 C4.99 2.21, 5 2.43, 5 2.5 C5.01 2.57, 5.01 2.43, 5 2.5" stroke="none" stroke-width="0" fill="#40c057"></path><path d="M5 2.5 C5 2.65, 4.99 2.79, 4.96 2.94 C4.94 3.08, 4.9 3.22, 4.85 3.36 C4.8 3.49, 4.74 3.63, 4.67 3.75 C4.59 3.88, 4.51 4, 4.42 4.11 C4.32 4.22, 4.22 4.32, 4.11 4.42 C4 4.51, 3.88 4.59, 3.75 4.67 C3.63 4.74, 3.49 4.8, 3.36 4.85 C3.22 4.9, 3.08 4.94, 2.94 4.96 C2.79 4.99, 2.65 5, 2.5 5 C2.36 5, 2.21 4.99, 2.07 4.96 C1.92 4.94, 1.78 4.9, 1.65 4.85 C1.51 4.8, 1.38 4.74, 1.25 4.67 C1.13 4.59, 1 4.51, 0.89 4.42 C0.78 4.32, 0.68 4.22, 0.59 4.11 C0.49 4, 0.41 3.88, 0.34 3.75 C0.26 3.63, 0.2 3.49, 0.15 3.36 C0.1 3.22, 0.06 3.08, 0.04 2.94 C0.01 2.79, 0 2.65, 0 2.5 C0 2.36, 0.01 2.21, 0.04 2.07 C0.06 1.92, 0.1 1.78, 0.15 1.65 C0.2 1.51, 0.26 1.38, 0.34 1.25 C0.41 1.13, 0.49 1, 0.59 0.89 C0.68 0.78, 0.78 0.68, 0.89 0.59 C1 0.49, 1.13 0.41, 1.25 0.34 C1.38 0.26, 1.51 0.2, 1.65 0.15 C1.78 0.1, 1.92 0.06, 2.07 0.04 C2.21 0.01, 2.36 0, 2.5 0 C2.65 0, 2.79 0.01, 2.94 0.04 C3.08 0.06, 3.22 0.1, 3.36 0.15 C3.49 0.2, 3.63 0.26, 3.75 0.34 C3.88 0.41, 4 0.49, 4.11 0.59 C4.22 0.68, 4.32 0.78, 4.42 0.89 C4.51 1, 4.59 1.13, 4.67 1.25 C4.74 1.38, 4.8 1.51, 4.85 1.65 C4.9 1.78, 4.94 1.92, 4.96 2.07 C4.99 2.21, 5 2.43, 5 2.5 C5.01 2.57, 5.01 2.43, 5 2.5" stroke="#000000" stroke-width="1" fill="none"></path></g><g stroke-opacity="0.9" fill-opacity="0.9" stroke-linecap="round" transform="translate(53.46674930318872 206.70559467864496) rotate(0 21.36010126968786 21.360101269687902)"><path d="M24.74 -0.05 C29.1 0.35, 34.37 3.78, 37.3 7.34 C40.23 10.9, 42.19 16.67, 42.34 21.31 C42.49 25.94, 40.95 31.71, 38.2 35.14 C35.46 38.57, 30.37 41.02, 25.86 41.91 C21.35 42.79, 15.16 42.68, 11.15 40.45 C7.14 38.22, 3.4 32.9, 1.77 28.53 C0.15 24.17, -0.02 18.49, 1.42 14.28 C2.87 10.07, 6.32 5.56, 10.43 3.27 C14.55 0.98, 23.45 0.87, 26.1 0.53 C28.75 0.2, 26.49 0.86, 26.32 1.27 M20.07 0.37 C24.46 -0.38, 29.9 0.95, 33.68 3.48 C37.46 6.01, 41.52 11.12, 42.73 15.55 C43.95 19.99, 42.99 25.82, 40.96 30.08 C38.93 34.34, 34.86 39.07, 30.56 41.12 C26.26 43.16, 19.67 43.62, 15.18 42.35 C10.68 41.09, 6.16 37.32, 3.59 33.53 C1.02 29.74, -0.68 24.27, -0.24 19.62 C0.2 14.97, 2.94 8.92, 6.21 5.65 C9.47 2.38, 17.09 0.89, 19.36 0.01 C21.64 -0.88, 19.8 0.05, 19.86 0.33" stroke="none" stroke-width="0" fill="#04aaf7"></path><path d="M23.36 -0.29 C27.82 -0.09, 33.5 3.28, 36.64 6.52 C39.78 9.76, 41.85 14.71, 42.22 19.15 C42.59 23.58, 41.31 29.35, 38.86 33.13 C36.4 36.91, 31.84 40.6, 27.47 41.82 C23.1 43.05, 16.93 42.35, 12.65 40.47 C8.38 38.6, 3.88 34.72, 1.82 30.58 C-0.25 26.44, -0.88 20, 0.27 15.63 C1.42 11.27, 4.8 7.05, 8.72 4.4 C12.63 1.75, 21.16 0.34, 23.76 -0.27 C26.35 -0.88, 24.34 0.25, 24.3 0.73 M22.92 0.35 C27.19 0.5, 32.48 3.53, 35.81 6.64 C39.14 9.75, 42.47 14.6, 42.9 19.02 C43.32 23.45, 40.99 29.29, 38.38 33.2 C35.76 37.1, 31.43 41.12, 27.21 42.47 C22.99 43.81, 17.31 43.14, 13.08 41.25 C8.85 39.36, 3.93 35.24, 1.81 31.1 C-0.3 26.97, -0.74 21.05, 0.39 16.43 C1.53 11.82, 4.94 6.11, 8.63 3.41 C12.32 0.7, 20.2 0.6, 22.55 0.2 C24.9 -0.2, 22.8 0.72, 22.74 1.01" stroke="#000000" stroke-width="1" fill="none"></path></g><g stroke-linecap="round"><g transform="translate(80.54491336516432 222.92994674310194) rotate(0 -3.311408073223003 5.948935990064456)" fill-rule="evenodd"><path d="M0 0 C-0.31 -0.07, -0.57 0.63, -1.83 -0.41 C-3.09 -1.46, -5.98 -5.62, -7.57 -6.27 C-9.16 -6.93, -10.52 -5.79, -11.36 -4.35 C-12.2 -2.91, -12.63 0.53, -12.61 2.37 C-12.6 4.22, -10.47 5.65, -11.27 6.74 C-12.07 7.83, -16.44 7.74, -17.42 8.89 C-18.41 10.04, -18.04 12.9, -17.2 13.64 C-16.36 14.39, -13.8 14.04, -12.38 13.35 C-10.96 12.66, -10.16 8.72, -8.7 9.48 C-7.24 10.23, -5 16.42, -3.62 17.87 C-2.24 19.32, -0.39 20.35, -0.42 18.17 C-0.44 15.99, -4.08 7.1, -3.78 4.8 C-3.48 2.5, 0.23 4.17, 1.39 4.35 C2.54 4.53, 1.85 5.61, 3.16 5.87 C4.47 6.12, 7.96 6.74, 9.24 5.87 C10.51 5, 11.64 1.43, 10.8 0.63 C9.97 -0.16, 5.11 2.18, 4.22 1.11 C3.34 0.04, 5.78 -4.68, 5.49 -5.76 C5.19 -6.84, 3.43 -6.15, 2.47 -5.35 C1.52 -4.54, 0.17 -1.81, -0.24 -0.92 C-0.65 -0.03, -0.04 -0.15, 0 0" stroke="none" stroke-width="0" fill="#40c057" fill-rule="evenodd"></path><path d="M0 0 C-0.31 -0.07, -0.57 0.63, -1.83 -0.41 C-3.09 -1.46, -5.98 -5.62, -7.57 -6.27 C-9.16 -6.93, -10.52 -5.79, -11.36 -4.35 C-12.2 -2.91, -12.63 0.53, -12.61 2.37 C-12.6 4.22, -10.47 5.65, -11.27 6.74 C-12.07 7.83, -16.44 7.74, -17.42 8.89 C-18.41 10.04, -18.04 12.9, -17.2 13.64 C-16.36 14.39, -13.8 14.04, -12.38 13.35 C-10.96 12.66, -10.16 8.72, -8.7 9.48 C-7.24 10.23, -5 16.42, -3.62 17.87 C-2.24 19.32, -0.39 20.35, -0.42 18.17 C-0.44 15.99, -4.08 7.1, -3.78 4.8 C-3.48 2.5, 0.23 4.17, 1.39 4.35 C2.54 4.53, 1.85 5.61, 3.16 5.87 C4.47 6.12, 7.96 6.74, 9.24 5.87 C10.51 5, 11.64 1.43, 10.8 0.63 C9.97 -0.16, 5.11 2.18, 4.22 1.11 C3.34 0.04, 5.78 -4.68, 5.49 -5.76 C5.19 -6.84, 3.43 -6.15, 2.47 -5.35 C1.52 -4.54, 0.17 -1.81, -0.24 -0.92 C-0.65 -0.03, -0.04 -0.15, 0 0 M0 0 C-0.31 -0.07, -0.57 0.63, -1.83 -0.41 C-3.09 -1.46, -5.98 -5.62, -7.57 -6.27 C-9.16 -6.93, -10.52 -5.79, -11.36 -4.35 C-12.2 -2.91, -12.63 0.53, -12.61 2.37 C-12.6 4.22, -10.47 5.65, -11.27 6.74 C-12.07 7.83, -16.44 7.74, -17.42 8.89 C-18.41 10.04, -18.04 12.9, -17.2 13.64 C-16.36 14.39, -13.8 14.04, -12.38 13.35 C-10.96 12.66, -10.16 8.72, -8.7 9.48 C-7.24 10.23, -5 16.42, -3.62 17.87 C-2.24 19.32, -0.39 20.35, -0.42 18.17 C-0.44 15.99, -4.08 7.1, -3.78 4.8 C-3.48 2.5, 0.23 4.17, 1.39 4.35 C2.54 4.53, 1.85 5.61, 3.16 5.87 C4.47 6.12, 7.96 6.74, 9.24 5.87 C10.51 5, 11.64 1.43, 10.8 0.63 C9.97 -0.16, 5.11 2.18, 4.22 1.11 C3.34 0.04, 5.78 -4.68, 5.49 -5.76 C5.19 -6.84, 3.43 -6.15, 2.47 -5.35 C1.52 -4.54, 0.17 -1.81, -0.24 -0.92 C-0.65 -0.03, -0.04 -0.15, 0 0" stroke="#087f5b" stroke-width="1" fill="none"></path></g></g><mask></mask><g stroke-linecap="round"><g stroke-opacity="0.9" fill-opacity="0.9" transform="translate(54.52581177721626 227.6684682418254) rotate(0 21.047557886136122 0)"><path d="M-0.47 0.49 C6.45 0.6, 34.53 0.58, 41.71 0.43 M0.29 0.26 C7.37 0.24, 35.71 -0.26, 42.75 -0.31" stroke="#000000" stroke-width="1" fill="none"></path></g></g><mask></mask><g stroke-linecap="round"><g stroke-opacity="0.9" fill-opacity="0.9" transform="translate(59.62114080699061 212.23393931485953) rotate(0 14.65930330192431 2.593116626464507)"><path d="M0 0 C0.13 0.38, 0.09 1.58, 0.77 2.28 C1.46 2.97, 2.81 3.68, 4.1 4.19 C5.4 4.7, 6.64 5.13, 8.54 5.34 C10.43 5.55, 12.97 5.55, 15.48 5.45 C17.99 5.34, 21.44 5.28, 23.58 4.71 C25.72 4.14, 27.36 2.86, 28.32 2.03 C29.27 1.2, 29.15 0.12, 29.32 -0.26 M0 0 C0.13 0.38, 0.09 1.58, 0.77 2.28 C1.46 2.97, 2.81 3.68, 4.1 4.19 C5.4 4.7, 6.64 5.13, 8.54 5.34 C10.43 5.55, 12.97 5.55, 15.48 5.45 C17.99 5.34, 21.44 5.28, 23.58 4.71 C25.72 4.14, 27.36 2.86, 28.32 2.03 C29.27 1.2, 29.15 0.12, 29.32 -0.26" stroke="#000000" stroke-width="1" fill="none"></path></g></g><mask></mask><g stroke-opacity="0.9" fill-opacity="0.9" stroke-linecap="round" transform="translate(67.69505673091007 205.32306504905227) rotate(0 7.764217176558056 22.41115194065469)"><path d="M7.86 -0.08 C9.48 -0.5, 11.45 1.52, 12.65 4.52 C13.85 7.51, 14.8 13.2, 15.06 17.89 C15.32 22.58, 14.97 28.35, 14.2 32.64 C13.44 36.93, 11.9 41.86, 10.46 43.63 C9.01 45.4, 7.04 44.84, 5.53 43.27 C4.02 41.71, 2.25 38.19, 1.38 34.23 C0.5 30.26, 0.06 24.23, 0.29 19.48 C0.52 14.74, 1.52 8.97, 2.76 5.74 C3.99 2.52, 6.8 1.03, 7.7 0.11 C8.6 -0.8, 8.07 -0.15, 8.16 0.24 M7.61 0.6 C9.37 0.36, 11.82 2.51, 13.06 5.53 C14.29 8.56, 14.81 14.05, 15.02 18.74 C15.22 23.43, 15.06 29.7, 14.28 33.7 C13.5 37.69, 11.91 41.06, 10.35 42.72 C8.79 44.38, 6.48 45.07, 4.93 43.65 C3.38 42.24, 1.94 38.43, 1.07 34.22 C0.19 30.02, -0.67 23.2, -0.34 18.41 C0 13.61, 1.67 8.61, 3.1 5.45 C4.52 2.3, 7.41 0.31, 8.22 -0.52 C9.02 -1.36, 8.08 0.03, 7.92 0.44" stroke="#000000" stroke-width="1" fill="none"></path></g><g stroke-linecap="round"><g stroke-opacity="0.9" fill-opacity="0.9" transform="translate(61.1370923166165 243.97103137330032) rotate(0 14.65930330192431 -2.6770512214206974)"><path d="M0 0 C0.68 -0.72, 2.68 -3.4, 4.1 -4.32 C5.53 -5.24, 6.64 -5.3, 8.54 -5.52 C10.43 -5.73, 12.97 -5.73, 15.48 -5.63 C17.99 -5.52, 21.44 -5.45, 23.58 -4.86 C25.72 -4.28, 27.36 -2.95, 28.32 -2.1 C29.27 -1.24, 29.15 -0.12, 29.32 0.27 M0 0 C0.68 -0.72, 2.68 -3.4, 4.1 -4.32 C5.53 -5.24, 6.64 -5.3, 8.54 -5.52 C10.43 -5.73, 12.97 -5.73, 15.48 -5.63 C17.99 -5.52, 21.44 -5.45, 23.58 -4.86 C25.72 -4.28, 27.36 -2.95, 28.32 -2.1 C29.27 -1.24, 29.15 -0.12, 29.32 0.27" stroke="#000000" stroke-width="1" fill="none"></path></g></g><mask></mask><g transform="translate(787.7406076365162 285.14176892502564) rotate(0 24.67998504638672 10)"><text x="24.67998504638672" y="14.016" font-family="Virgil, Segoe UI Emoji" font-size="16px" fill="#000000" text-anchor="middle" style="white-space: pre;" direction="ltr" dominant-baseline="alphabetic">Server</text></g><g transform="translate(43.1556085520435 275.79801892502564) rotate(0 21.639984130859375 10)"><text x="21.639984130859375" y="14.016" font-family="Virgil, Segoe UI Emoji" font-size="16px" fill="#000000" text-anchor="middle" style="white-space: pre;" direction="ltr" dominant-baseline="alphabetic">Client</text></g><g stroke-linecap="round"><g transform="translate(804.8391227003357 50.541685444146424) rotate(0 -13.4118916869121 11.904696496058477)"><path d="M0.45 -1.04 C-3.68 -0.11, -25.73 1.44, -25.82 5.6 C-25.92 9.76, -4.37 21.02, -0.15 23.91 M-0.77 1.02 C-4.88 2.1, -26.26 2.73, -26.25 6.78 C-26.23 10.82, -5.02 22.48, -0.68 25.29" stroke="#1864ab" stroke-width="4" fill="none"></path></g></g><mask></mask><g stroke-linecap="round" transform="translate(790.6841679468449 10) rotate(0 21.087758935362444 16.187378952603694)"><path d="M0.58 12.43 C0.58 12.43, 0.58 12.43, 0.58 12.43 M0.58 12.43 C0.58 12.43, 0.58 12.43, 0.58 12.43 M8.72 27.45 C13.76 20.75, 19.29 15.13, 29.71 3.3 M8.72 27.45 C16.39 18.39, 24 9.32, 29.71 3.3 M26.04 31.91 C30.78 27.82, 33.25 22.36, 41.78 13.8 M26.04 31.91 C30.7 26.46, 34.88 21.97, 41.78 13.8" stroke="#ced4da" stroke-width="2" fill="none"></path><path d="M22.72 0.15 C26.98 0.32, 32.64 2.76, 35.95 5.3 C39.26 7.83, 42.25 12.01, 42.57 15.35 C42.9 18.7, 40.6 22.65, 37.89 25.36 C35.19 28.07, 30.59 30.76, 26.34 31.59 C22.09 32.43, 16.41 31.9, 12.41 30.38 C8.41 28.86, 4.29 25.48, 2.34 22.46 C0.4 19.44, -0.48 15.48, 0.73 12.25 C1.93 9.02, 5.78 5.07, 9.56 3.1 C13.34 1.12, 20.93 0.74, 23.41 0.39 C25.88 0.04, 24.48 0.72, 24.43 1.01 M18.07 0.15 C22.23 -0.67, 27.5 0.38, 31.21 2.14 C34.93 3.91, 38.62 7.37, 40.35 10.75 C42.07 14.13, 42.95 19.12, 41.56 22.44 C40.17 25.75, 36.05 28.99, 32.02 30.63 C28 32.28, 21.98 32.88, 17.41 32.3 C12.84 31.73, 7.5 29.84, 4.59 27.18 C1.69 24.51, -0.01 19.89, -0.02 16.32 C-0.03 12.74, 1.67 8.32, 4.54 5.74 C7.41 3.15, 14.94 1.58, 17.21 0.81 C19.49 0.04, 18.11 0.99, 18.18 1.12" stroke="#1864ab" stroke-width="4" fill="none"></path></g><g stroke-linecap="round"><g transform="translate(809.6395003463758 31.982937402267453) rotate(0 7.34831371113205 -2.3704969002146754)"><path d="M0.21 0.05 C1.63 0.07, 6.55 0.68, 8.98 -0.18 C11.41 -1.04, 13.74 -4.41, 14.78 -5.12 M-0.35 -0.4 C0.96 -0.29, 6.1 1.02, 8.57 0.32 C11.04 -0.38, 13.58 -3.67, 14.47 -4.61" stroke="#1864ab" stroke-width="4" fill="none"></path></g></g><mask></mask><g stroke-linecap="round"><g transform="translate(814.2124438865771 49.26435852826489) rotate(0 8.190436692506182 -4.217951492621978)"><path d="M0.09 -0.85 C2.77 0.28, 15.15 9.12, 16.56 6.84 C17.97 4.56, 9.91 -10.63, 8.57 -14.53 M-1.32 1.33 C1.18 2.61, 14.09 11.12, 15.71 8.18 C17.33 5.25, 10.07 -12.26, 8.4 -16.28" stroke="#1864ab" stroke-width="4" fill="none"></path></g></g><mask></mask><g stroke-linecap="round"><g transform="translate(810.8062465737207 54.884579806589954) rotate(0 -0.510929207120455 36.02051105103283)"><path d="M0.18 -0.37 C0.19 5.17, 0.05 20.46, 0.12 32.37 C0.2 44.29, 0.8 64.53, 0.61 71.12 M-1.18 -1.61 C-1.24 3.69, -0.49 18.58, -0.22 30.84 C0.05 43.1, 0.56 64.94, 0.43 71.95" stroke="#1864ab" stroke-width="4" fill="none"></path></g></g><mask></mask><g stroke-linecap="round"><g transform="translate(804.4196314847148 132.88644330807438) rotate(0 -10.55920231446271 -0.08515551753339423)"><path d="M0.53 0.51 C-2.92 0.44, -16.96 -0.47, -20.6 -0.59 M0.13 0.3 C-3.35 0.3, -17.12 -0.11, -20.77 -0.11" stroke="#1864ab" stroke-width="4" fill="none"></path></g></g><mask></mask><g stroke-linecap="round"><g transform="translate(813.5312075424703 132.6309787045143) rotate(0 10.984977953089924 -0.1277323017800427)"><path d="M0.51 -0.42 C4.05 -0.56, 18.22 -0.42, 21.75 -0.33 M0.11 0.55 C3.51 0.73, 17.69 0.54, 21.2 0.33" stroke="#1864ab" stroke-width="4" fill="none"></path></g></g><mask></mask><g stroke-linecap="round"><g transform="translate(817.7383197863272 19.561647263039504) rotate(0 1.8457037390564324 -0.7949845682951491)" fill-rule="evenodd"><path d="M0 0 C0 0, 0 0, 0 0 M0 0 C0 0, 0 0, 0 0" stroke="#ced4da" stroke-width="2" fill="none"></path><path d="M-0.14 -0.05 C0.16 -0.24, 1.59 -1.52, 2.18 -1.44 C2.77 -1.36, 3.19 0.16, 3.38 0.41 M0.43 -0.38 C0.83 -0.65, 2.27 -1.97, 2.88 -1.93 C3.49 -1.89, 4.01 -0.51, 4.08 -0.12" stroke="#1864ab" stroke-width="4" fill="none"></path></g></g><mask></mask><g stroke-linecap="round"><g transform="translate(810.756593073909 20.26792369822988) rotate(0 1.8457037390564324 -0.7949845682951491)" fill-rule="evenodd"><path d="M0 0 C0 0, 0 0, 0 0 M0 0 C0 0, 0 0, 0 0" stroke="#ced4da" stroke-width="2" fill="none"></path><path d="M-0.18 0.26 C0.18 0.03, 1.46 -1.37, 2.06 -1.39 C2.65 -1.42, 3.04 -0.22, 3.36 0.09 M0.37 0.08 C0.85 -0.23, 2.08 -1.92, 2.69 -1.86 C3.31 -1.8, 3.79 0.18, 4.04 0.46" stroke="#1864ab" stroke-width="4" fill="none"></path></g></g><mask></mask><g stroke-linecap="round" transform="translate(911.3105265810111 20.95126155641674) rotate(0 23.483390663121668 23.471961553926576)"><path d="M17.91 0.65 C22.47 -0.71, 29.73 0.39, 34.23 2.69 C38.74 4.98, 42.96 9.8, 44.94 14.43 C46.92 19.05, 47.58 25.68, 46.11 30.45 C44.64 35.22, 40.28 40.33, 36.11 43.06 C31.93 45.78, 25.99 47.35, 21.04 46.79 C16.09 46.22, 9.92 43.3, 6.4 39.68 C2.89 36.07, 0.31 30.11, -0.04 25.1 C-0.39 20.09, 1.22 13.7, 4.31 9.61 C7.41 5.52, 15.92 2.11, 18.53 0.56 C21.13 -0.99, 19.88 -0.07, 19.94 0.31 M27.44 -0.28 C32.1 0.15, 37.26 4.37, 40.56 8.18 C43.86 11.98, 47.14 17.65, 47.24 22.55 C47.34 27.45, 44.38 33.65, 41.18 37.55 C37.99 41.46, 33 44.92, 28.07 45.99 C23.14 47.06, 16.11 46.24, 11.6 43.95 C7.09 41.67, 2.81 36.87, 1 32.28 C-0.81 27.7, -0.97 21.24, 0.72 16.43 C2.41 11.62, 6.65 6.11, 11.16 3.41 C15.67 0.72, 25.02 0.73, 27.79 0.25 C30.56 -0.24, 27.82 0, 27.78 0.48" stroke="none" stroke-width="0" fill="#fff"></path><path d="M26.87 0.6 C31.59 1.15, 37.77 4.27, 41.14 8.11 C44.52 11.95, 47.02 18.51, 47.1 23.64 C47.19 28.76, 44.84 35.03, 41.65 38.85 C38.46 42.67, 32.98 45.7, 27.96 46.55 C22.94 47.41, 16.03 46.39, 11.54 43.98 C7.05 41.56, 2.79 36.75, 1.02 32.07 C-0.76 27.39, -0.78 20.66, 0.89 15.89 C2.57 11.12, 6.55 6.03, 11.05 3.43 C15.55 0.83, 24.84 0.61, 27.9 0.28 C30.97 -0.05, 29.53 0.97, 29.45 1.46 M18.24 1.29 C22.75 -0.06, 29.24 0.25, 33.76 2.39 C38.27 4.53, 43.24 9.52, 45.3 14.14 C47.37 18.76, 47.74 25.16, 46.15 30.1 C44.56 35.05, 40.01 41.04, 35.78 43.81 C31.55 46.57, 25.63 47.4, 20.79 46.7 C15.96 46, 10.22 43.24, 6.77 39.6 C3.31 35.96, 0.41 29.97, 0.06 24.86 C-0.3 19.76, 1.57 12.92, 4.63 8.95 C7.7 4.99, 16.12 2.49, 18.44 1.07 C20.77 -0.34, 18.44 0.15, 18.58 0.49" stroke="#000000" stroke-width="1" fill="none"></path></g><g stroke-linecap="round" transform="translate(921.1658899295818 24.660400237970407) rotate(0 28.55386766223046 28.539970807379632)"><path d="M28.52 0.33 C34.36 -0.04, 41.65 2.97, 46.38 6.86 C51.11 10.74, 55.8 17.7, 56.9 23.62 C58 29.54, 55.92 37.12, 52.99 42.39 C50.06 47.67, 44.95 53.02, 39.32 55.25 C33.69 57.48, 25.11 57.68, 19.2 55.76 C13.29 53.85, 7.1 48.99, 3.84 43.75 C0.58 38.51, -1.28 30.43, -0.36 24.32 C0.55 18.21, 3.87 11.28, 9.34 7.1 C14.82 2.91, 28.28 0.14, 32.47 -0.8 C36.65 -1.73, 34.49 0.85, 34.43 1.48 M32.2 0.6 C37.99 1.26, 47.01 4.69, 50.99 9.12 C54.96 13.54, 56.1 21, 56.05 27.12 C56 33.24, 54.6 40.93, 50.69 45.84 C46.77 50.74, 38.82 55.2, 32.56 56.58 C26.31 57.96, 18.5 56.95, 13.17 54.11 C7.84 51.27, 2.58 45.41, 0.58 39.54 C-1.41 33.68, -1.27 24.89, 1.21 18.92 C3.7 12.95, 9.89 6.9, 15.49 3.73 C21.1 0.55, 31.62 0.15, 34.85 -0.11 C38.09 -0.38, 35.45 1.41, 34.89 2.13" stroke="none" stroke-width="0" fill="#fff"></path><path d="M14.9 3.15 C20.06 0.16, 28.81 0.01, 34.85 1.49 C40.88 2.97, 47.38 7.32, 51.13 12.01 C54.89 16.7, 57.75 23.68, 57.37 29.64 C57 35.6, 53.19 43.16, 48.87 47.8 C44.55 52.43, 37.53 56.58, 31.47 57.47 C25.4 58.35, 17.65 56.41, 12.48 53.1 C7.31 49.79, 2.28 43.55, 0.44 37.59 C-1.41 31.64, -2.09 23.34, 1.41 17.36 C4.91 11.37, 17.37 4.34, 21.43 1.7 C25.49 -0.94, 25.91 1.15, 25.77 1.52 M23.47 -0.04 C29.22 -1.56, 38.39 0.66, 43.82 3.82 C49.25 6.99, 54.32 12.86, 56.05 18.93 C57.78 25, 56.43 34.47, 54.19 40.23 C51.95 45.99, 47.66 50.71, 42.61 53.47 C37.55 56.23, 29.91 57.92, 23.86 56.79 C17.8 55.67, 10.3 51.67, 6.29 46.72 C2.27 41.77, -0.43 33.1, -0.22 27.09 C0 21.07, 3.41 15.27, 7.57 10.62 C11.74 5.97, 21.81 0.74, 24.8 -0.81 C27.78 -2.36, 25.51 0.74, 25.47 1.31" stroke="#000000" stroke-width="1" fill="none"></path></g><g stroke-linecap="round" transform="translate(943.1232680154415 24.156468945030156) rotate(0 28.55386766223046 28.539970807379632)"><path d="M29.03 0.41 C34.85 0.21, 43.21 3.58, 47.76 7.54 C52.31 11.51, 55.35 18.22, 56.32 24.2 C57.29 30.19, 56.68 38.18, 53.57 43.46 C50.47 48.74, 43.64 53.84, 37.7 55.89 C31.76 57.94, 23.76 57.96, 17.94 55.74 C12.11 53.52, 5.71 48, 2.72 42.56 C-0.27 37.11, -1.47 29.27, -0.02 23.05 C1.44 16.83, 6.24 9.01, 11.44 5.22 C16.64 1.43, 27.24 0.99, 31.18 0.31 C35.13 -0.36, 34.98 0.67, 35.11 1.18 M18.46 0.97 C23.76 -1.79, 30.6 -1.91, 36.37 -0.01 C42.13 1.9, 49.81 6.99, 53.06 12.41 C56.31 17.82, 56.97 26.12, 55.88 32.49 C54.79 38.87, 51.11 46.34, 46.52 50.64 C41.93 54.94, 34.38 58.23, 28.36 58.31 C22.35 58.4, 14.84 55.15, 10.42 51.15 C6 47.15, 2.78 40.43, 1.82 34.33 C0.87 28.23, 1.78 19.74, 4.7 14.55 C7.63 9.36, 17.39 5.02, 19.38 3.19 C21.37 1.36, 16.53 3.56, 16.63 3.56" stroke="none" stroke-width="0" fill="#fff"></path><path d="M36.9 2.01 C42.64 3.5, 48.99 8.78, 52.37 13.74 C55.76 18.69, 58.05 25.83, 57.21 31.76 C56.38 37.69, 52.03 45, 47.38 49.32 C42.74 53.64, 35.46 57.25, 29.35 57.68 C23.24 58.11, 15.64 55.59, 10.73 51.9 C5.81 48.22, 1.27 41.63, -0.14 35.55 C-1.55 29.47, -0.72 20.85, 2.28 15.42 C5.29 9.99, 12.09 5.14, 17.87 2.98 C23.66 0.81, 33.68 2.47, 37 2.41 C40.32 2.34, 37.88 2.27, 37.8 2.58 M41.74 2.67 C47.31 4.93, 53 10.83, 55.2 16.71 C57.4 22.6, 56.72 32.06, 54.96 37.98 C53.21 43.91, 49.44 49.05, 44.65 52.25 C39.85 55.45, 32.34 57.79, 26.2 57.17 C20.07 56.54, 12.24 53.13, 7.84 48.51 C3.45 43.89, 0.12 35.47, -0.17 29.46 C-0.47 23.45, 2.3 17.44, 6.08 12.47 C9.85 7.5, 16.4 1.14, 22.46 -0.36 C28.53 -1.86, 39.37 2.89, 42.46 3.45 C45.55 4.01, 41.63 2.47, 41 2.98" stroke="#000000" stroke-width="1" fill="none"></path></g><g stroke-linecap="round" transform="translate(969.3382950062584 24.156468945030156) rotate(0 28.55386766223046 28.539970807379632)"><path d="M33.55 0.77 C39.31 1.28, 45.76 5.3, 49.8 9.89 C53.83 14.48, 57.63 22.12, 57.78 28.3 C57.92 34.48, 54.7 42.16, 50.67 46.98 C46.64 51.8, 39.75 56.11, 33.6 57.25 C27.45 58.38, 19.15 56.86, 13.75 53.77 C8.36 50.69, 3.13 44.69, 1.22 38.73 C-0.69 32.77, 0.29 23.81, 2.3 18.03 C4.31 12.25, 7.2 6.79, 13.28 4.06 C19.36 1.33, 33.85 1.54, 38.76 1.63 C43.68 1.72, 43.16 4.28, 42.77 4.59 M29.08 -1.38 C34.85 -1.42, 43.88 2.26, 48.36 6.67 C52.84 11.08, 55.47 18.69, 55.96 25.08 C56.46 31.47, 54.73 39.67, 51.35 45.01 C47.97 50.35, 41.44 55.45, 35.68 57.11 C29.92 58.76, 22.04 57.56, 16.8 54.93 C11.57 52.3, 6.74 46.9, 4.28 41.32 C1.83 35.75, 0.65 27.24, 2.09 21.49 C3.53 15.74, 8.49 10.24, 12.92 6.83 C17.34 3.41, 25.61 2.3, 28.65 1.02 C31.69 -0.27, 31.04 -1.03, 31.16 -0.88" stroke="none" stroke-width="0" fill="#fff"></path><path d="M26.41 1.06 C32.18 0.12, 40.65 1.95, 45.48 5.37 C50.3 8.78, 54.06 15.53, 55.36 21.56 C56.67 27.59, 55.97 35.98, 53.32 41.54 C50.67 47.1, 45.03 52.47, 39.46 54.94 C33.89 57.4, 25.78 58.12, 19.92 56.34 C14.06 54.55, 7.46 49.23, 4.28 44.23 C1.11 39.23, 0.29 32.2, 0.88 26.33 C1.46 20.46, 3.11 13.38, 7.82 9.01 C12.52 4.65, 24.86 1.47, 29.09 0.14 C33.32 -1.19, 32.9 0.66, 33.18 1.03 M25.53 -0.3 C31.03 -1.09, 38.05 2.49, 43.17 5.89 C48.29 9.29, 54.15 14.4, 56.25 20.09 C58.36 25.77, 58.23 34.28, 55.78 39.99 C53.33 45.7, 47.2 51.75, 41.55 54.35 C35.9 56.95, 27.78 56.87, 21.89 55.59 C15.99 54.31, 9.73 51.61, 6.18 46.66 C2.62 41.71, 0.12 32.09, 0.55 25.89 C0.99 19.7, 4.71 13.86, 8.79 9.48 C12.86 5.11, 22.49 0.95, 24.99 -0.35 C27.49 -1.65, 23.71 1.24, 23.78 1.7" stroke="#000000" stroke-width="1" fill="none"></path></g><g stroke-linecap="round" transform="translate(1001.170430727826 24.156468945030156) rotate(0 28.55386766223046 28.539970807379632)"><path d="M33.77 0.46 C39.6 1.2, 47.67 5.93, 51.57 10.78 C55.47 15.63, 57.48 23.35, 57.18 29.57 C56.88 35.79, 53.98 43.49, 49.79 48.09 C45.6 52.69, 38.16 56.33, 32.04 57.16 C25.92 57.99, 18.03 56.5, 13.05 53.07 C8.07 49.65, 4.12 42.43, 2.14 36.62 C0.17 30.81, -1.03 23.73, 1.2 18.2 C3.44 12.67, 9.42 6.17, 15.56 3.44 C21.69 0.71, 33.96 2, 38.03 1.84 C42.1 1.68, 40.16 2.02, 39.96 2.48 M18.72 0.79 C24.05 -1.38, 31.5 -0.81, 37.05 1.53 C42.59 3.87, 48.91 9.34, 52 14.82 C55.1 20.3, 56.49 28.48, 55.6 34.4 C54.71 40.32, 50.91 46.56, 46.66 50.33 C42.42 54.09, 35.93 57.02, 30.12 56.98 C24.31 56.94, 16.5 53.75, 11.8 50.08 C7.11 46.41, 3.58 40.73, 1.97 34.97 C0.36 29.22, -0.76 21.32, 2.17 15.55 C5.09 9.78, 16.87 2.7, 19.51 0.35 C22.16 -2.01, 18.06 0.8, 18.03 1.41" stroke="none" stroke-width="0" fill="#fff"></path><path d="M40.59 2.55 C45.89 4.47, 50.99 10.65, 53.43 16.27 C55.87 21.88, 56.76 30.27, 55.24 36.25 C53.73 42.22, 49.3 48.61, 44.34 52.12 C39.38 55.63, 31.54 57.91, 25.47 57.31 C19.4 56.72, 12.01 52.77, 7.91 48.55 C3.81 44.32, 1.5 37.83, 0.88 31.96 C0.26 26.09, 1.02 18.46, 4.19 13.33 C7.37 8.2, 13.3 2.6, 19.93 1.16 C26.56 -0.27, 39.22 3.69, 43.96 4.73 C48.7 5.76, 48.62 6.92, 48.37 7.35 M24.21 1.48 C29.93 0.49, 39.12 1.34, 44.56 4.52 C50 7.7, 55.12 14.61, 56.83 20.55 C58.55 26.49, 57.46 34.69, 54.85 40.14 C52.25 45.59, 46.62 50.39, 41.22 53.25 C35.83 56.11, 28.32 58.74, 22.49 57.29 C16.65 55.83, 9.77 49.5, 6.21 44.52 C2.65 39.54, 0.91 33.4, 1.15 27.39 C1.38 21.38, 3.85 12.83, 7.62 8.46 C11.4 4.08, 20.85 2.52, 23.77 1.13 C26.7 -0.26, 24.89 -0.28, 25.19 0.12" stroke="#000000" stroke-width="1" fill="none"></path></g><g stroke-linecap="round" transform="translate(1034.453398095832 24.156468945030156) rotate(0 28.55386766223046 28.539970807379632)"><path d="M34.61 0.53 C40.48 1.33, 47.06 5.97, 50.79 10.82 C54.51 15.66, 57.18 23.48, 56.95 29.62 C56.72 35.75, 53.48 43.06, 49.41 47.61 C45.33 52.16, 38.3 56.17, 32.5 56.91 C26.69 57.65, 19.85 55.21, 14.57 52.05 C9.29 48.9, 2.81 43.62, 0.8 38 C-1.21 32.39, 0.14 24.03, 2.51 18.35 C4.87 12.68, 9 6.81, 15 3.95 C21.01 1.1, 33.71 0.95, 38.55 1.22 C43.39 1.49, 44.24 5.09, 44.07 5.56 M14.58 3.08 C19.35 0.42, 27.86 -0.01, 33.8 1.57 C39.73 3.14, 46.38 7.79, 50.17 12.55 C53.97 17.3, 56.47 24.22, 56.56 30.1 C56.65 35.99, 54.56 43.48, 50.7 47.85 C46.85 52.22, 39.48 55.34, 33.45 56.31 C27.42 57.28, 20.16 56.71, 14.55 53.65 C8.94 50.59, 1.66 44.22, -0.21 37.94 C-2.09 31.66, 0.77 21.93, 3.29 15.97 C5.81 10.01, 12.83 4.32, 14.89 2.18 C16.95 0.03, 15.16 2.6, 15.65 3.11" stroke="none" stroke-width="0" fill="#fff"></path><path d="M41.14 3.46 C46.23 5.97, 51.78 12.81, 54.06 18.53 C56.34 24.26, 56.72 32.04, 54.83 37.79 C52.94 43.55, 47.88 49.98, 42.72 53.07 C37.56 56.17, 29.62 57.19, 23.85 56.38 C18.07 55.57, 12.15 52.54, 8.05 48.2 C3.95 43.87, -0.28 36.57, -0.76 30.38 C-1.24 24.19, 1.32 16, 5.17 11.04 C9.02 6.08, 15.31 1.51, 22.35 0.63 C29.39 -0.24, 42.86 4.1, 47.4 5.77 C51.95 7.45, 50.14 10.19, 49.65 10.7 M24.14 0.28 C30.12 -1.22, 38.69 1.01, 43.91 4.18 C49.14 7.35, 53.62 13.72, 55.49 19.3 C57.35 24.89, 57.17 31.86, 55.11 37.69 C53.05 43.52, 48.32 51.32, 43.13 54.29 C37.94 57.26, 29.86 56.67, 23.95 55.49 C18.04 54.3, 11.69 51.8, 7.68 47.19 C3.67 42.57, 0.28 33.85, -0.1 27.82 C-0.48 21.79, 1.43 15.68, 5.4 11 C9.37 6.32, 20.63 1.35, 23.71 -0.24 C26.8 -1.83, 23.75 0.93, 23.92 1.44" stroke="#000000" stroke-width="1" fill="none"></path></g><g stroke-linecap="round" transform="translate(912.711329549986 51.77295287446168) rotate(0 28.55386766223046 28.539970807379632)"><path d="M27.02 0.33 C32.67 -0.25, 40.72 2.64, 45.48 6.32 C50.25 10, 54.28 16.52, 55.61 22.4 C56.94 28.28, 55.98 36.36, 53.46 41.59 C50.94 46.82, 46.14 51.38, 40.49 53.78 C34.83 56.18, 25.4 57.58, 19.54 55.98 C13.68 54.37, 8.47 49.24, 5.3 44.16 C2.14 39.09, 0.06 31.74, 0.55 25.52 C1.04 19.31, 3.33 11.05, 8.23 6.87 C13.13 2.68, 25.99 1.52, 29.93 0.4 C33.88 -0.72, 32.09 -0.28, 31.89 0.16 M17.62 2.6 C22.92 0.48, 31.27 0.99, 37.12 2.95 C42.97 4.91, 49.27 9.3, 52.74 14.36 C56.2 19.43, 58.64 27.43, 57.9 33.34 C57.16 39.24, 52.93 45.67, 48.29 49.81 C43.66 53.96, 36.68 57.94, 30.1 58.21 C23.51 58.48, 13.53 55.78, 8.77 51.42 C4 47.06, 2.43 38.41, 1.5 32.07 C0.57 25.72, 0.32 18.5, 3.17 13.36 C6.02 8.21, 15.8 3.12, 18.6 1.19 C21.4 -0.73, 19.63 1.32, 19.96 1.82" stroke="none" stroke-width="0" fill="#fff"></path><path d="M27.89 0.65 C33.7 0.4, 41.63 3.35, 46.28 7.28 C50.93 11.2, 54.77 18.31, 55.79 24.21 C56.81 30.1, 55.26 37.36, 52.42 42.67 C49.59 47.97, 44.55 53.81, 38.76 56.06 C32.98 58.3, 23.72 58.36, 17.72 56.13 C11.72 53.89, 5.69 48.11, 2.77 42.64 C-0.15 37.17, -1.24 29.41, 0.19 23.29 C1.62 17.18, 5.52 9.63, 11.37 5.93 C17.22 2.23, 30.29 1.44, 35.28 1.12 C40.27 0.81, 41.42 3.73, 41.29 4.05 M41.26 2.81 C46.65 4.95, 51.88 11.21, 54.34 16.55 C56.79 21.89, 57.44 28.82, 56 34.84 C54.55 40.87, 50.49 49.18, 45.65 52.68 C40.8 56.18, 32.9 56.42, 26.91 55.87 C20.92 55.32, 14.19 53.56, 9.71 49.38 C5.23 45.2, 1.06 36.8, 0.04 30.8 C-0.98 24.8, 0.13 18.44, 3.59 13.37 C7.05 8.31, 14.67 2.14, 20.8 0.41 C26.93 -1.31, 37.1 2.63, 40.39 3.01 C43.69 3.38, 40.68 2.23, 40.58 2.66" stroke="#000000" stroke-width="1" fill="none"></path></g><g stroke-linecap="round" transform="translate(911.3105265810111 85.80962025261942) rotate(0 23.483390663121668 23.471961553926576)"><path d="M23.48 0.32 C28.2 0.05, 34.46 2.53, 38.27 5.74 C42.08 8.95, 45.35 14.73, 46.33 19.57 C47.3 24.41, 46.66 30.44, 44.11 34.78 C41.57 39.12, 35.79 43.83, 31.05 45.61 C26.31 47.39, 20.32 47.21, 15.69 45.49 C11.07 43.77, 5.9 39.75, 3.28 35.31 C0.66 30.88, -0.88 23.83, -0.01 18.88 C0.86 13.93, 4.43 8.83, 8.5 5.63 C12.57 2.43, 21.58 0.5, 24.41 -0.32 C27.23 -1.14, 25.47 0.29, 25.45 0.69 M22.64 0.63 C27.47 0.21, 34.02 2.32, 38.11 5.39 C42.2 8.47, 46.08 14.2, 47.17 19.08 C48.25 23.96, 47.07 30.21, 44.62 34.7 C42.18 39.18, 37.45 44.1, 32.51 46 C27.57 47.9, 19.75 47.99, 14.97 46.11 C10.18 44.22, 6.31 39.18, 3.81 34.7 C1.32 30.21, -0.72 24.06, 0 19.18 C0.72 14.3, 4.16 8.63, 8.12 5.39 C12.07 2.16, 21.14 0.61, 23.73 -0.23 C26.32 -1.07, 23.75 -0.12, 23.66 0.35" stroke="none" stroke-width="0" fill="#fff"></path><path d="M23.63 0.21 C28.42 0, 34.77 2.77, 38.55 6.03 C42.34 9.29, 45.47 14.77, 46.35 19.77 C47.24 24.76, 46.52 31.61, 43.89 36.01 C41.26 40.41, 35.48 44.6, 30.57 46.16 C25.67 47.72, 19.1 47.28, 14.45 45.37 C9.81 43.46, 4.96 39.18, 2.71 34.71 C0.46 30.23, -0.07 23.46, 0.93 18.55 C1.93 13.64, 4.8 8.31, 8.72 5.25 C12.64 2.19, 21.75 1.01, 24.44 0.17 C27.12 -0.67, 24.77 -0.18, 24.84 0.2 M23.01 0.19 C27.68 -0.29, 34.12 1.6, 38.08 4.8 C42.03 7.99, 45.7 14.48, 46.74 19.38 C47.78 24.28, 46.69 29.84, 44.32 34.21 C41.95 38.57, 37.28 43.69, 32.53 45.56 C27.79 47.43, 20.84 46.99, 15.87 45.41 C10.9 43.84, 5.31 40.41, 2.71 36.1 C0.11 31.79, -0.63 24.57, 0.26 19.57 C1.15 14.56, 4.22 9.35, 8.05 6.05 C11.88 2.76, 20.69 0.7, 23.23 -0.19 C25.77 -1.09, 23.28 0.32, 23.29 0.69" stroke="#000000" stroke-width="1" fill="none"></path></g><g stroke-linecap="round" transform="translate(937.689597768723 75.16140046169994) rotate(0 28.55386766223046 28.539970807379632)"><path d="M31.9 0.69 C37.63 1.08, 44.95 5.39, 49.26 9.72 C53.57 14.05, 57.6 20.57, 57.76 26.67 C57.92 32.77, 54 41.35, 50.21 46.31 C46.41 51.27, 40.81 55.17, 35.01 56.46 C29.21 57.74, 21.02 57.07, 15.4 54.03 C9.78 51, 3.58 43.92, 1.27 38.25 C-1.04 32.57, -0.38 25.76, 1.54 19.98 C3.46 14.2, 7.08 6.67, 12.8 3.57 C18.51 0.47, 31.34 1.55, 35.84 1.39 C40.34 1.23, 39.8 2.32, 39.81 2.63 M36.06 1.3 C42.13 2.36, 49.82 7.64, 53.52 12.61 C57.22 17.58, 58.9 24.84, 58.27 31.12 C57.64 37.41, 54.65 45.83, 49.76 50.3 C44.86 54.78, 35.09 58.04, 28.91 57.99 C22.73 57.95, 17.49 53.99, 12.7 50.04 C7.92 46.1, 1.83 40.11, 0.19 34.33 C-1.46 28.55, -0.16 20.74, 2.83 15.34 C5.82 9.95, 12.35 4.35, 18.12 1.95 C23.89 -0.46, 34.42 0.86, 37.45 0.9 C40.48 0.95, 36.67 1.71, 36.31 2.22" stroke="none" stroke-width="0" fill="#fff"></path><path d="M36.76 1.82 C42.41 3.2, 48.79 8.02, 52.25 13.29 C55.71 18.56, 58.45 27.18, 57.52 33.44 C56.58 39.7, 51.5 46.9, 46.63 50.85 C41.76 54.81, 34.34 57.18, 28.31 57.17 C22.27 57.17, 14.88 54.77, 10.41 50.84 C5.94 46.91, 2.68 39.55, 1.49 33.59 C0.29 27.64, 0.52 20.33, 3.26 15.1 C6 9.88, 12.08 4.55, 17.93 2.24 C23.78 -0.07, 34.63 1.1, 38.36 1.23 C42.09 1.36, 40.43 2.39, 40.31 3.04 M30.97 -0.63 C36.86 -0.36, 44.86 5.14, 49.29 9.42 C53.71 13.71, 56.91 19.07, 57.52 25.07 C58.13 31.08, 56.6 40.37, 52.96 45.45 C49.32 50.54, 42.03 53.95, 35.7 55.58 C29.36 57.22, 20.49 57.89, 14.97 55.26 C9.45 52.64, 4.89 45.45, 2.57 39.82 C0.26 34.18, -0.61 27.34, 1.09 21.48 C2.79 15.62, 7.68 8.17, 12.8 4.68 C17.92 1.19, 28.64 1.33, 31.8 0.55 C34.95 -0.23, 31.88 -0.58, 31.71 -0.01" stroke="#000000" stroke-width="1" fill="none"></path></g><g stroke-linecap="round" transform="translate(963.9046247595401 75.16140046169994) rotate(0 28.55386766223046 28.539970807379632)"><path d="M36.99 1.66 C42.86 2.92, 50.38 7.42, 53.55 12.62 C56.72 17.81, 56.92 26.63, 56.02 32.84 C55.12 39.05, 52.52 45.78, 48.13 49.87 C43.74 53.97, 36.03 57.39, 29.68 57.41 C23.33 57.44, 14.87 53.81, 10.04 50.01 C5.21 46.22, 1.91 40.59, 0.69 34.63 C-0.53 28.67, -0.01 19.65, 2.72 14.24 C5.46 8.83, 10.82 4.16, 17.11 2.17 C23.4 0.18, 35.96 1.9, 40.46 2.31 C44.97 2.72, 44.15 4.21, 44.15 4.62 M41.3 2.34 C47.07 4.24, 52.77 9.71, 55.52 15.41 C58.26 21.1, 59.69 30.3, 57.75 36.49 C55.82 42.68, 48.93 49.38, 43.92 52.55 C38.91 55.72, 33.66 56.25, 27.7 55.52 C21.74 54.79, 12.76 52.24, 8.15 48.16 C3.54 44.08, 0.42 37.05, 0.04 31.06 C-0.34 25.06, 2.3 17.22, 5.87 12.19 C9.45 7.16, 15.8 2.42, 21.48 0.88 C27.17 -0.65, 37.01 2.6, 40 2.96 C42.98 3.31, 39.73 2.72, 39.41 3.01" stroke="none" stroke-width="0" fill="#fff"></path><path d="M33.52 0.15 C39.56 0.99, 47.82 6.35, 51.62 11.34 C55.42 16.34, 56.75 24.1, 56.32 30.13 C55.9 36.16, 53.03 43.09, 49.06 47.53 C45.09 51.97, 38.25 55.98, 32.51 56.78 C26.76 57.58, 19.8 55.49, 14.59 52.34 C9.38 49.19, 3.39 43.54, 1.24 37.88 C-0.9 32.23, -0.48 24.24, 1.74 18.4 C3.96 12.56, 8.76 5.71, 14.56 2.84 C20.36 -0.03, 32.82 1.22, 36.53 1.16 C40.25 1.11, 37.11 2.07, 36.88 2.5 M32.56 1.18 C38.49 1.48, 45.74 3.61, 50.01 8.01 C54.28 12.4, 57.98 21.35, 58.18 27.55 C58.38 33.76, 55.32 40.27, 51.21 45.22 C47.09 50.18, 39.47 55.95, 33.51 57.29 C27.56 58.63, 20.68 56.15, 15.48 53.28 C10.28 50.41, 4.6 45.68, 2.31 40.08 C0.03 34.49, -0.12 25.57, 1.77 19.72 C3.66 13.87, 8.52 8.35, 13.68 4.99 C18.83 1.62, 29.66 0.05, 32.69 -0.48 C35.72 -1.01, 32.03 1.19, 31.88 1.8" stroke="#000000" stroke-width="1" fill="none"></path></g><g stroke-linecap="round" transform="translate(995.7367604811078 75.16140046169994) rotate(0 28.55386766223046 28.539970807379632)"><path d="M34.81 -0.43 C40.55 0.34, 46.24 5.87, 50.06 10.8 C53.88 15.74, 57.68 23.01, 57.73 29.16 C57.78 35.31, 54.63 43.27, 50.36 47.72 C46.09 52.17, 38.2 54.94, 32.11 55.87 C26.02 56.8, 19.05 56.45, 13.83 53.3 C8.61 50.15, 2.92 42.81, 0.79 36.99 C-1.35 31.16, -1.22 24.04, 1 18.35 C3.23 12.67, 8.29 5.89, 14.14 2.88 C19.98 -0.13, 32.02 0.53, 36.07 0.29 C40.12 0.04, 38.41 0.88, 38.43 1.4 M31.33 -0.51 C37.2 -0.38, 45.45 4.35, 49.46 8.76 C53.47 13.18, 54.71 20.35, 55.4 25.98 C56.09 31.61, 56.76 37.73, 53.59 42.54 C50.41 47.35, 42.37 52.89, 36.33 54.85 C30.28 56.8, 22.68 56.58, 17.32 54.28 C11.96 51.99, 6.8 46.48, 4.18 41.09 C1.56 35.69, 0.43 27.72, 1.6 21.93 C2.78 16.13, 6.58 9.94, 11.23 6.3 C15.89 2.66, 26.56 1.1, 29.54 0.09 C32.52 -0.93, 28.99 -0.48, 29.11 0.21" stroke="none" stroke-width="0" fill="#fff"></path><path d="M33.74 0.94 C39.52 1.7, 45.57 6.15, 49.32 10.68 C53.06 15.21, 56.01 22.15, 56.2 28.12 C56.39 34.09, 54 41.86, 50.46 46.5 C46.91 51.15, 40.95 54.79, 34.95 56.01 C28.96 57.22, 20.03 56.59, 14.48 53.77 C8.94 50.95, 3.88 44.93, 1.66 39.07 C-0.55 33.22, -0.96 24.42, 1.21 18.63 C3.38 12.85, 9.2 7.25, 14.68 4.35 C20.17 1.44, 30.66 1.68, 34.12 1.2 C37.58 0.71, 35.49 1.08, 35.45 1.42 M21.96 -0.23 C27.61 -2.12, 36.57 0.48, 41.99 3.22 C47.4 5.95, 52.34 10.53, 54.45 16.18 C56.57 21.83, 56.31 31.25, 54.68 37.13 C53.04 43.01, 49.46 48.05, 44.66 51.44 C39.85 54.82, 31.85 57.97, 25.85 57.42 C19.85 56.86, 12.85 52.49, 8.66 48.12 C4.46 43.74, 1.15 37.32, 0.69 31.17 C0.23 25.02, 2.47 16.11, 5.9 11.23 C9.33 6.35, 18.66 3.51, 21.28 1.9 C23.89 0.3, 21.39 1.32, 21.61 1.58" stroke="#000000" stroke-width="1" fill="none"></path></g><g stroke-linecap="round" transform="translate(1029.0197278491137 75.16140046169994) rotate(0 28.55386766223046 28.539970807379632)"><path d="M30.56 0.25 C36.37 0.61, 45.12 4.14, 49.59 8.55 C54.06 12.96, 57.14 20.74, 57.37 26.69 C57.61 32.65, 54.61 39.29, 51.01 44.27 C47.41 49.25, 41.69 55, 35.77 56.55 C29.85 58.1, 21.19 56.25, 15.5 53.57 C9.8 50.9, 4.13 46.06, 1.6 40.51 C-0.92 34.95, -1.45 26.28, 0.35 20.24 C2.14 14.2, 6.71 7.68, 12.37 4.26 C18.04 0.84, 30.27 0.23, 34.35 -0.27 C38.43 -0.78, 37.03 0.52, 36.86 1.25 M29.13 1.15 C34.46 0.85, 39.99 3.74, 44.73 7.09 C49.46 10.43, 56.16 15.55, 57.56 21.21 C58.95 26.87, 56.18 35.51, 53.09 41.06 C50 46.6, 44.43 52.13, 39.03 54.49 C33.63 56.85, 26.32 57.05, 20.67 55.19 C15.03 53.33, 8.58 48.37, 5.17 43.33 C1.76 38.3, -0.45 31, 0.2 24.99 C0.85 18.99, 4.64 11.54, 9.07 7.31 C13.5 3.09, 23.64 0.52, 26.8 -0.38 C29.96 -1.28, 27.68 1.61, 28.04 1.91" stroke="none" stroke-width="0" fill="#fff"></path><path d="M21.89 1.49 C27.23 -0.15, 35.62 0.73, 41.1 3.46 C46.57 6.2, 52.16 12.35, 54.75 17.91 C57.33 23.48, 58.52 31, 56.63 36.86 C54.73 42.71, 48.79 49.66, 43.4 53.03 C38.01 56.4, 30.37 58.09, 24.29 57.08 C18.22 56.07, 10.87 51.53, 6.96 46.97 C3.06 42.41, 1.03 35.65, 0.86 29.75 C0.7 23.85, 2 16.47, 6 11.56 C10 6.66, 21.36 2.14, 24.85 0.3 C28.35 -1.55, 27.03 -0.03, 26.98 0.48 M38.61 1.86 C44.14 3.43, 49.94 7.68, 52.74 12.97 C55.54 18.25, 56.3 27.53, 55.43 33.57 C54.56 39.61, 51.85 45.2, 47.52 49.19 C43.2 53.19, 35.52 57.31, 29.49 57.54 C23.47 57.77, 16.08 54.35, 11.37 50.55 C6.65 46.76, 2.43 40.81, 1.2 34.77 C-0.03 28.73, 1.21 19.61, 3.97 14.32 C6.74 9.03, 12.22 5.16, 17.81 3.03 C23.4 0.91, 34.2 1.78, 37.53 1.56 C40.85 1.35, 37.75 1.5, 37.76 1.74" stroke="#000000" stroke-width="1" fill="none"></path></g><g stroke-linecap="round" transform="translate(1055.6884258411599 20.95126155641674) rotate(0 23.483390663121668 23.471961553926576)"><path d="M18.08 0.69 C22.74 -0.74, 29.51 0.41, 33.92 2.53 C38.33 4.66, 42.51 8.86, 44.54 13.45 C46.57 18.05, 47.5 25.24, 46.12 30.09 C44.75 34.94, 40.54 39.76, 36.28 42.56 C32.03 45.36, 25.59 47.42, 20.59 46.91 C15.59 46.4, 9.69 43.18, 6.26 39.49 C2.84 35.8, 0.29 29.8, 0.04 24.78 C-0.22 19.75, 1.5 13.42, 4.75 9.33 C7.99 5.24, 16.88 1.62, 19.51 0.24 C22.15 -1.13, 20.56 0.58, 20.56 1.07 M20.6 0.58 C25.3 -0.37, 33.2 0.74, 37.41 3.44 C41.61 6.15, 44.61 11.89, 45.83 16.82 C47.05 21.76, 46.71 28.42, 44.74 33.03 C42.77 37.64, 38.48 42.31, 34.01 44.48 C29.54 46.64, 22.89 47.25, 17.94 46.05 C12.98 44.84, 7.27 41.36, 4.25 37.27 C1.24 33.19, -0.5 26.63, -0.14 21.54 C0.21 16.45, 2.77 10.21, 6.38 6.74 C10 3.28, 18.93 1.91, 21.53 0.76 C24.13 -0.4, 21.95 -0.5, 21.98 -0.18" stroke="none" stroke-width="0" fill="#fff"></path><path d="M26.51 0.31 C31.32 0.65, 37.44 4.22, 40.92 7.93 C44.41 11.64, 47.29 17.54, 47.42 22.59 C47.56 27.63, 44.97 34.21, 41.74 38.21 C38.51 42.22, 32.98 45.69, 28.04 46.62 C23.1 47.55, 16.44 46.18, 12.11 43.78 C7.78 41.38, 3.88 36.78, 2.06 32.2 C0.24 27.63, -0.37 21.13, 1.17 16.34 C2.71 11.55, 6.81 6.14, 11.31 3.47 C15.8 0.81, 25.24 0.73, 28.14 0.37 C31.04 0, 28.75 0.85, 28.71 1.28 M19.03 0.14 C23.46 -1.01, 29.85 1, 34.24 3.44 C38.64 5.89, 43.51 10.14, 45.42 14.81 C47.33 19.47, 47.31 26.65, 45.7 31.42 C44.09 36.19, 40.04 40.86, 35.76 43.43 C31.48 46.01, 25 47.69, 20.04 46.86 C15.07 46.03, 9.35 42.22, 5.99 38.46 C2.64 34.7, 0.03 29.27, -0.08 24.31 C-0.2 19.35, 2.06 12.71, 5.29 8.7 C8.52 4.7, 16.9 1.7, 19.29 0.3 C21.69 -1.1, 19.56 -0.01, 19.65 0.32" stroke="#000000" stroke-width="1" fill="none"></path></g><g stroke-linecap="round" transform="translate(1047.6358932977816 51.62356168481392) rotate(0 28.55386766223046 28.539970807379632)"><path d="M30.47 0.39 C36.06 0.2, 42.89 2.65, 47.32 6.84 C51.74 11.02, 56.28 19.4, 57.01 25.51 C57.75 31.61, 55.26 38.35, 51.74 43.44 C48.22 48.53, 41.74 54.24, 35.88 56.03 C30.03 57.82, 22.1 56.71, 16.63 54.15 C11.15 51.6, 5.58 46.17, 3.03 40.7 C0.48 35.22, -0.22 27.18, 1.32 21.29 C2.86 15.4, 7.22 8.75, 12.26 5.36 C17.3 1.97, 28.16 1.55, 31.55 0.95 C34.94 0.36, 32.75 1.26, 32.62 1.77 M40.12 0.51 C45.8 1.99, 50.33 8.46, 53.05 14 C55.76 19.54, 57.35 27.66, 56.4 33.73 C55.45 39.81, 51.95 46.6, 47.33 50.45 C42.7 54.3, 34.94 56.83, 28.64 56.82 C22.33 56.82, 14.3 54.42, 9.5 50.4 C4.7 46.39, 0.87 38.96, -0.15 32.76 C-1.17 26.55, 0.03 18.18, 3.38 13.19 C6.72 8.19, 13.76 4.89, 19.91 2.78 C26.06 0.67, 37.04 0.48, 40.26 0.51 C43.48 0.54, 39.54 2.49, 39.21 2.94" stroke="none" stroke-width="0" fill="#fff"></path><path d="M40.39 2.73 C46.11 4.76, 52.81 10.41, 55.39 16 C57.97 21.59, 57.67 30.22, 55.87 36.26 C54.08 42.3, 49.67 48.91, 44.63 52.25 C39.59 55.6, 31.56 56.89, 25.65 56.33 C19.74 55.78, 13.43 53.05, 9.16 48.92 C4.89 44.8, 0.64 37.71, 0.02 31.58 C-0.61 25.45, 1.82 17.27, 5.39 12.14 C8.97 7.01, 15.41 2.19, 21.49 0.8 C27.57 -0.58, 38.05 3.09, 41.85 3.85 C45.65 4.6, 44.56 4.84, 44.29 5.33 M31.16 1.2 C36.98 1.64, 45.41 4.33, 49.75 8.8 C54.08 13.28, 56.87 21.88, 57.17 28.03 C57.47 34.18, 55.23 40.92, 51.54 45.73 C47.86 50.54, 41.05 55.67, 35.08 56.89 C29.11 58.11, 21.24 55.81, 15.71 53.03 C10.18 50.25, 4.29 45.76, 1.9 40.23 C-0.48 34.69, -0.57 25.85, 1.42 19.83 C3.41 13.81, 8.52 7.54, 13.86 4.09 C19.21 0.65, 30.31 -0.14, 33.51 -0.83 C36.7 -1.52, 33.23 -0.86, 33.05 -0.04" stroke="#000000" stroke-width="1" fill="none"></path></g><g stroke-linecap="round" transform="translate(1055.6884258411599 85.80962025261942) rotate(0 23.483390663121668 23.471961553926576)"><path d="M22.97 -0.44 C27.73 -0.76, 34.66 2.37, 38.54 5.59 C42.41 8.82, 45.41 13.98, 46.23 18.92 C47.04 23.85, 45.9 30.81, 43.41 35.19 C40.92 39.56, 35.93 43.5, 31.28 45.17 C26.64 46.84, 20.18 46.91, 15.55 45.2 C10.92 43.5, 5.96 39.25, 3.5 34.94 C1.03 30.63, -0.06 24.18, 0.75 19.35 C1.56 14.52, 4.36 9.12, 8.34 5.98 C12.32 2.83, 21.73 1.29, 24.63 0.47 C27.52 -0.34, 25.67 0.85, 25.72 1.09 M26.96 -0.18 C31.63 0.38, 37.8 4.03, 41.22 7.89 C44.64 11.75, 47.34 17.9, 47.48 22.95 C47.63 28.01, 45.38 34.24, 42.1 38.22 C38.82 42.19, 32.85 45.84, 27.8 46.8 C22.74 47.76, 16.22 46.5, 11.77 43.97 C7.31 41.43, 2.8 36.17, 1.09 31.57 C-0.62 26.97, -0.33 21.21, 1.5 16.38 C3.33 11.54, 7.76 5.19, 12.09 2.54 C16.41 -0.1, 24.91 0.93, 27.45 0.51 C29.99 0.09, 27.47 -0.35, 27.34 0.04" stroke="none" stroke-width="0" fill="#fff"></path><path d="M24.54 -0.27 C29.33 -0.43, 35.23 2.61, 38.9 6 C42.58 9.4, 45.84 15.22, 46.59 20.12 C47.33 25.02, 45.88 31.11, 43.35 35.4 C40.82 39.69, 36.13 44.15, 31.38 45.85 C26.64 47.56, 19.6 47.49, 14.86 45.64 C10.12 43.78, 5.33 39.19, 2.95 34.71 C0.57 30.23, -0.35 23.65, 0.59 18.74 C1.53 13.84, 4.55 8.36, 8.59 5.26 C12.64 2.17, 22.2 0.92, 24.88 0.19 C27.55 -0.53, 24.68 0.53, 24.63 0.89 M21.27 -0.22 C26.12 -1, 32.68 1.52, 36.87 4.4 C41.05 7.28, 45 12.21, 46.38 17.05 C47.75 21.9, 47.22 28.93, 45.13 33.47 C43.04 38.02, 38.44 42.13, 33.83 44.33 C29.22 46.53, 22.38 47.89, 17.47 46.69 C12.55 45.48, 7.21 41.32, 4.34 37.12 C1.48 32.91, -0.19 26.57, 0.29 21.46 C0.78 16.34, 3.71 10.06, 7.26 6.43 C10.8 2.79, 19.21 0.55, 21.58 -0.34 C23.95 -1.23, 21.61 0.7, 21.48 1.07" stroke="#000000" stroke-width="1" fill="none"></path></g><g stroke-linecap="round" transform="translate(877.4459880092879 26.534610776116097) rotate(89.99999999999994 12.046836048910336 12.046836048910336)"><path d="M10.29 0.26 C12.69 -0.3, 16.02 0.16, 18.29 1.53 C20.57 2.9, 23.13 5.92, 23.94 8.49 C24.75 11.05, 24.19 14.54, 23.16 16.91 C22.13 19.28, 20.02 21.58, 17.76 22.72 C15.51 23.86, 12.21 24.27, 9.63 23.75 C7.05 23.23, 3.83 21.58, 2.28 19.58 C0.73 17.58, 0.25 14.3, 0.33 11.76 C0.4 9.22, 0.92 6.29, 2.74 4.33 C4.56 2.37, 9.78 0.76, 11.26 0 C12.75 -0.76, 11.62 -0.42, 11.66 -0.22 M11 -0.13 C13.46 -0.55, 16.9 0.84, 19.05 2.25 C21.2 3.66, 23.24 5.81, 23.9 8.34 C24.56 10.86, 24.07 14.98, 22.98 17.41 C21.9 19.84, 19.64 21.88, 17.37 22.92 C15.11 23.95, 11.81 24.35, 9.39 23.63 C6.96 22.91, 4.32 20.74, 2.81 18.61 C1.3 16.47, 0.21 13.2, 0.32 10.8 C0.44 8.4, 1.89 6.09, 3.5 4.21 C5.11 2.32, 8.78 0.06, 10.01 -0.51 C11.24 -1.08, 10.71 0.44, 10.86 0.78" stroke="#000000" stroke-width="1" fill="none"></path></g><g stroke-linecap="round" transform="translate(849.4739167301111 18.91671513287656) rotate(89.99999999999994 8.944889599454598 8.944889599454655)"><path d="M9.35 -0.3 C11.27 -0.3, 14.14 1.18, 15.55 2.61 C16.96 4.04, 17.64 6.39, 17.79 8.28 C17.95 10.17, 17.51 12.39, 16.48 13.92 C15.44 15.45, 13.48 16.9, 11.58 17.46 C9.68 18.02, 6.82 18.01, 5.1 17.28 C3.38 16.55, 2.11 14.76, 1.24 13.08 C0.37 11.4, -0.55 9.09, -0.12 7.19 C0.3 5.3, 2.17 2.97, 3.79 1.7 C5.41 0.43, 8.5 -0.18, 9.59 -0.42 C10.68 -0.67, 10.34 0, 10.32 0.23 M9.95 0.24 C11.78 0.25, 14.2 0.82, 15.5 2.21 C16.8 3.61, 17.63 6.62, 17.76 8.59 C17.9 10.57, 17.36 12.6, 16.33 14.08 C15.29 15.55, 13.32 17.04, 11.55 17.45 C9.78 17.86, 7.45 17.38, 5.72 16.53 C3.99 15.68, 2.05 13.91, 1.17 12.35 C0.29 10.8, 0.12 9.08, 0.43 7.2 C0.74 5.32, 1.47 2.19, 3.02 1.08 C4.57 -0.04, 8.63 0.6, 9.73 0.5 C10.83 0.4, 9.6 0.49, 9.62 0.47" stroke="#000000" stroke-width="1" fill="none"></path></g><g stroke-linecap="round" transform="translate(1076.263773390122 45.36316871081681) rotate(0 9.883021301182168 27.822744202197555)"><path d="M0 0 L19.77 0 L19.77 55.65 L0 55.65" stroke="none" stroke-width="0" fill="#fff"></path><path d="M0 0 C4.85 0, 9.7 0, 19.77 0 M0 0 C7.61 0, 15.22 0, 19.77 0 M19.77 0 C19.77 15.86, 19.77 31.72, 19.77 55.65 M19.77 0 C19.77 18.25, 19.77 36.5, 19.77 55.65 M19.77 55.65 C13.73 55.65, 7.7 55.65, 0 55.65 M19.77 55.65 C14.76 55.65, 9.76 55.65, 0 55.65 M0 55.65 C0 35.37, 0 15.1, 0 0 M0 55.65 C0 43.29, 0 30.94, 0 0" stroke="#fff" stroke-width="1" fill="none"></path></g><g stroke-linecap="round" transform="translate(919.7851877685147 31.855425795701194) rotate(0 10.678119925154078 35.26053944491946)"><path d="M0 0 L21.36 0 L21.36 70.52 L0 70.52" stroke="none" stroke-width="0" fill="#fff"></path><path d="M0 0 C6.96 0, 13.92 0, 21.36 0 M0 0 C6.22 0, 12.45 0, 21.36 0 M21.36 0 C21.36 23.21, 21.36 46.42, 21.36 70.52 M21.36 0 C21.36 18.51, 21.36 37.03, 21.36 70.52 M21.36 70.52 C14.24 70.52, 7.13 70.52, 0 70.52 M21.36 70.52 C13.52 70.52, 5.68 70.52, 0 70.52 M0 70.52 C0 46.58, 0 22.65, 0 0 M0 70.52 C0 44.9, 0 19.28, 0 0" stroke="#fff" stroke-width="1" fill="none"></path></g><g stroke-linecap="round" transform="translate(930.3300582962372 29.647811139379883) rotate(0 81.38404802396508 47.662109375)"><path d="M0 0 L162.77 0 L162.77 95.32 L0 95.32" stroke="none" stroke-width="0" fill="#fff"></path><path d="M0 0 C63.12 0, 126.25 0, 162.77 0 M0 0 C44.88 0, 89.75 0, 162.77 0 M162.77 0 C162.77 31.07, 162.77 62.13, 162.77 95.32 M162.77 0 C162.77 23.8, 162.77 47.6, 162.77 95.32 M162.77 95.32 C115.03 95.32, 67.29 95.32, 0 95.32 M162.77 95.32 C108.8 95.32, 54.84 95.32, 0 95.32 M0 95.32 C0 67.8, 0 40.29, 0 0 M0 95.32 C0 73.78, 0 52.24, 0 0" stroke="#fff" stroke-width="1" fill="none"></path></g><g transform="translate(942.5461451995968 37.30992051437988) rotate(0 69.16796112060547 40)"><text x="69.16796112060547" y="14.016" font-family="Virgil, Segoe UI Emoji" font-size="16px" fill="#1e1e1e" text-anchor="middle" style="white-space: pre;" direction="ltr" dominant-baseline="alphabetic">How can I figure </text><text x="69.16796112060547" y="34.016" font-family="Virgil, Segoe UI Emoji" font-size="16px" fill="#1e1e1e" text-anchor="middle" style="white-space: pre;" direction="ltr" dominant-baseline="alphabetic">out the the </text><text x="69.16796112060547" y="54.016" font-family="Virgil, Segoe UI Emoji" font-size="16px" fill="#1e1e1e" text-anchor="middle" style="white-space: pre;" direction="ltr" dominant-baseline="alphabetic">Client's IP </text><text x="69.16796112060547" y="74.016" font-family="Virgil, Segoe UI Emoji" font-size="16px" fill="#1e1e1e" text-anchor="middle" style="white-space: pre;" direction="ltr" dominant-baseline="alphabetic">address?</text></g><g transform="translate(40.958777802531785 106.46598767502564) rotate(0 47.039939880371094 10)"><text x="47.039939880371094" y="14.016" font-family="Virgil, Segoe UI Emoji" font-size="16px" fill="#1e1e1e" text-anchor="middle" style="white-space: pre;" direction="ltr" dominant-baseline="alphabetic">146.74.94.117</text></g><g transform="translate(303.0251993113209 108.57536267502564) rotate(0 47.87195587158203 10)"><text x="47.87195587158203" y="14.016" font-family="Virgil, Segoe UI Emoji" font-size="16px" fill="#1e1e1e" text-anchor="middle" style="white-space: pre;" direction="ltr" dominant-baseline="alphabetic">198.40.10.101</text></g><g transform="translate(564.8370431833912 106.96598767502564) rotate(0 51.39995574951172 10)"><text x="51.39995574951172" y="14.016" font-family="Virgil, Segoe UI Emoji" font-size="16px" fill="#1e1e1e" text-anchor="middle" style="white-space: pre;" direction="ltr" dominant-baseline="alphabetic">198.40.10.102</text></g></svg>